<svg width="546" height="344" viewBox="0 0 546 344" fill="none" xmlns="http://www.w3.org/2000/svg">
<g clip-path="url(#clip0_49_64)">
<path d="M546 0.30423H0.233154V344H546V0.30423Z" fill="#E6E6E6"/>
<path d="M530.394 43.4123H15.8391V323.667H530.394V43.4123Z" fill="white"/>
<path d="M545.767 0H0V22.7989H545.767V0Z" fill="#1C20A6"/>
<path d="M17.23 15.8816C19.6034 15.8816 21.5274 13.9898 21.5274 11.656C21.5274 9.32229 19.6034 7.43042 17.23 7.43042C14.8566 7.43042 12.9326 9.32229 12.9326 11.656C12.9326 13.9898 14.8566 15.8816 17.23 15.8816Z" fill="white"/>
<path d="M33.5418 15.8816C35.9151 15.8816 37.8391 13.9898 37.8391 11.656C37.8391 9.32229 35.9151 7.43042 33.5418 7.43042C31.1684 7.43042 29.2444 9.32229 29.2444 11.656C29.2444 13.9898 31.1684 15.8816 33.5418 15.8816Z" fill="white"/>
<path d="M49.8538 15.8816C52.2272 15.8816 54.1512 13.9898 54.1512 11.656C54.1512 9.32229 52.2272 7.43042 49.8538 7.43042C47.4804 7.43042 45.5564 9.32229 45.5564 11.656C45.5564 13.9898 47.4804 15.8816 49.8538 15.8816Z" fill="white"/>
<path d="M179.789 66.4631H79.1494V173.824H179.789V66.4631Z" fill="#E6E6E6"/>
<path d="M323.435 66.4631H222.796V173.824H323.435V66.4631Z" fill="#E6E6E6"/>
<path d="M467.081 66.4631H366.442V173.824H467.081V66.4631Z" fill="#E6E6E6"/>
<path d="M179.789 193.257H79.1494V300.618H179.789V193.257Z" fill="#E6E6E6"/>
<path d="M323.435 193.257H222.796V300.618H323.435V193.257Z" fill="#E6E6E6"/>
<path d="M467.081 193.257H366.442V300.618H467.081V193.257Z" fill="#E6E6E6"/>
<path d="M118.241 131.381C127.636 131.381 135.253 123.892 135.253 114.653C135.253 105.415 127.636 97.9254 118.241 97.9254C108.846 97.9254 101.229 105.415 101.229 114.653C101.229 123.892 108.846 131.381 118.241 131.381Z" fill="#FFB9B9"/>
<path d="M111.595 127.46C111.595 127.46 113.722 137.393 113.722 138.438C113.722 139.484 123.823 144.188 123.823 144.188L132.86 142.62L136.05 133.211C136.05 133.211 130.734 125.369 130.734 122.233L111.595 127.46Z" fill="#FFB9B9"/>
<path d="M103.488 101.176C103.488 101.176 108.889 89.669 119.242 92.3245C129.594 94.98 135.445 98.9632 135.895 102.946C136.346 106.93 135.67 112.905 135.67 112.905C135.67 112.905 134.545 104.717 127.343 106.487C120.142 108.257 108.889 106.93 108.889 106.93L107.089 122.863C107.089 122.863 105.063 119.986 102.813 121.756C100.562 123.527 96.2864 104.717 103.488 101.176Z" fill="#2F2E41"/>
<path d="M172.199 169.804L167.95 150.982C165.818 144.708 160.507 139.485 160.507 139.485L134.29 130.419H134.283C134.232 132.697 133.451 134.902 132.051 136.719C130.651 138.535 128.703 139.871 126.486 140.536C118.509 143.144 113.017 134.354 113.017 134.354L90.8549 150.982C90.8549 150.982 83.9465 156.737 84.481 167.714L83.7461 173.824H174.243L172.199 169.804Z" fill="#1C20A6"/>
<path d="M261.503 139.717C274.255 139.717 284.593 128.926 284.593 115.615C284.593 102.304 274.255 91.5131 261.503 91.5131C248.75 91.5131 238.412 102.304 238.412 115.615C238.412 128.926 248.75 139.717 261.503 139.717Z" fill="#2F2E41"/>
<path d="M281.991 152.088C288.699 152.088 294.138 146.74 294.138 140.144C294.138 133.547 288.699 128.199 281.991 128.199C275.282 128.199 269.843 133.547 269.843 140.144C269.843 146.74 275.282 152.088 281.991 152.088Z" fill="#2F2E41"/>
<path d="M273.531 124.147L280.038 140.783L263.553 147.609L262.105 144.383L257.045 133.106L273.531 124.147Z" fill="#9F616A"/>
<path d="M260.516 135.025C268.542 135.025 275.049 128.627 275.049 120.734C275.049 112.842 268.542 106.444 260.516 106.444C252.489 106.444 245.982 112.842 245.982 120.734C245.982 128.627 252.489 135.025 260.516 135.025Z" fill="#9F616A"/>
<path d="M248.637 119.167C257.771 113.173 260.502 111.74 270.973 114.056L271.601 99.0355L244.543 104.617L248.637 119.167Z" fill="#2F2E41"/>
<path d="M307.367 153.15L306.966 153.195C306.956 153.181 306.945 153.168 306.932 153.156C305.342 151.592 297.752 148.748 292.093 146.777H292.087C288.492 145.522 285.679 144.622 285.679 144.622L278.838 137.704C277.114 139.609 273.473 141.081 270.012 142.119C267.362 142.908 264.667 143.539 261.941 144.011H261.934L260.518 148.459C260.518 148.459 244.463 160.409 243.167 161.683H243.16V161.697C243.057 161.842 243.014 162.02 243.04 162.196V162.229C242.23 166.043 241.814 169.928 241.797 173.824H311.709V169.79C311.709 164.246 307.367 153.15 307.367 153.15Z" fill="#575A89"/>
<path d="M435.927 173.824H401.358L399.454 155.357L399.34 154.233L399.107 152.006L398.151 142.697L396.955 152.696L394.43 173.824H388.149L388.383 167.248L388.617 160.58L388.717 157.893L390.007 121.339C389.908 115.547 391.772 109.886 395.305 105.25C397.267 102.739 399.798 100.713 402.696 99.3344C405.595 97.9554 408.782 97.2613 412.001 97.3075C415.286 97.297 418.529 98.0348 421.476 99.4629C424.423 100.891 426.993 102.971 428.985 105.539C432.637 110.222 434.591 115.971 434.537 121.871L435.132 143.998L435.927 173.824Z" fill="#2F2E41"/>
<path d="M412.002 134.42C420.399 134.42 427.207 127.726 427.207 119.469C427.207 111.211 420.399 104.517 412.002 104.517C403.604 104.517 396.796 111.211 396.796 119.469C396.796 127.726 403.604 134.42 412.002 134.42Z" fill="#FBBEBE"/>
<path d="M404.399 130.148C404.399 130.148 408.743 144.565 404.399 148.837C400.055 153.109 398.969 154.711 398.969 154.711L411.459 171.264L433.18 145.099C433.18 145.099 417.975 140.828 421.776 129.08L404.399 130.148Z" fill="#FBBEBE"/>
<path d="M451.307 173.824H438.479L438.265 171.663L438.071 169.666L443.978 168.936L451.1 168.063L451.18 170.303L451.307 173.824Z" fill="#FBBEBE"/>
<path d="M452.187 170.196C452.187 170.196 450.014 156.847 448.385 151.507C446.756 146.167 445.127 146.167 445.127 146.167L445.127 146.166C443.209 144.28 438.599 143.945 435.132 143.998C432.7 144.024 430.829 144.235 430.829 144.235L411.46 164.324L401.706 151.573V151.566C400.827 151.633 399.957 151.781 399.107 152.006C398.375 152.19 397.656 152.42 396.955 152.696C393.934 153.966 391.15 155.722 388.717 157.893H388.711C387.308 159.134 386.479 160.048 386.479 160.048C384.331 164.439 382.712 169.063 381.655 173.824H443.724L443.864 171.078V171.073L452.187 170.196Z" fill="#1C20A6"/>
<path d="M399.24 117.066C409.061 111.86 413.095 112.08 425.306 117.066L428.564 109.26C428.563 107.79 427.968 106.381 426.911 105.342C425.854 104.303 424.421 103.718 422.927 103.717H401.077C399.582 103.718 398.149 104.303 397.092 105.342C396.035 106.381 395.441 107.79 395.439 109.26L399.24 117.066Z" fill="#2F2E41"/>
<path d="M128.138 219.243C127.329 219.178 126.519 219.355 125.815 219.753C125.147 220.313 124.611 221.009 124.244 221.793C122.544 224.728 120.242 227.284 117.485 229.3C115.477 230.746 112.923 232.55 113.267 235.217C113.448 236.098 113.779 236.943 114.246 237.715C116.098 241.393 121.154 244.235 120.657 248.431C122.498 245.401 120.035 243.903 121.876 240.873C122.753 239.43 124.275 237.801 125.599 238.707C126.042 239.01 126.333 239.555 126.794 239.821C127.895 240.456 129.067 239.242 130.041 238.381C133.402 235.415 138.181 236.192 142.363 237.116C144.337 237.553 146.505 238.125 147.672 239.981C149.207 242.42 146.214 245.055 145.458 247.813C145.397 248.048 145.394 248.294 145.45 248.53C145.506 248.767 145.62 248.986 145.781 249.17C145.942 249.354 146.146 249.496 146.376 249.586C146.605 249.675 146.853 249.708 147.099 249.683C148.353 249.561 149.84 249.462 149.914 248.92C151.493 248.975 153.427 248.8 154.104 247.183C154.31 246.544 154.42 245.877 154.428 245.206C154.676 242.491 155.848 240.014 156.625 237.43C157.401 234.846 157.739 231.817 156.428 229.526C155.961 228.764 155.382 228.072 154.712 227.474C147.276 220.399 137.501 219.232 128.138 219.243Z" fill="#2F2E41"/>
<path d="M122.274 253.731C122.274 253.731 123.891 266.981 117.962 268.041C112.033 269.101 123.352 287.122 123.352 287.122L150.303 290.302L143.834 269.101C143.834 269.101 139.522 267.511 142.217 256.911C144.913 246.311 122.274 253.731 122.274 253.731Z" fill="#9F616A"/>
<path d="M134.402 262.476C143.333 262.476 150.572 255.357 150.572 246.576C150.572 237.794 143.333 230.675 134.402 230.675C125.471 230.675 118.231 237.794 118.231 246.576C118.231 255.357 125.471 262.476 134.402 262.476Z" fill="#9F616A"/>
<path d="M106.569 300.618C109.429 289.561 113.377 274.668 113.377 274.668C113.377 274.668 114.914 274.977 117.333 275.325C120.866 275.842 124.426 276.16 127.996 276.278C132.566 276.402 137.376 276.107 141.098 274.839C142.501 274.396 143.811 273.709 144.966 272.809C145.453 272.424 145.888 271.98 146.262 271.488C152.73 263.007 155.422 295.336 155.422 295.336L155.923 300.618L106.569 300.618Z" fill="#1C20A6"/>
<path d="M158.235 334.78C158.021 334.78 157.807 334.787 157.594 334.8L157.901 334.235C158.008 334.412 158.115 334.596 158.235 334.78Z" fill="#FFB8B8"/>
<path d="M128.926 223.403C128.274 223.356 127.621 223.48 127.035 223.764C126.505 224.145 126.068 224.637 125.756 225.205C124.318 227.332 122.444 229.139 120.254 230.511C118.619 231.534 116.54 232.809 116.82 234.694C116.972 235.326 117.242 235.925 117.617 236.459C119.13 239.085 119.733 242.124 119.333 245.116L123.828 238.691C124.542 237.671 125.782 236.52 126.859 237.16C127.22 237.375 127.457 237.759 127.832 237.948C128.728 238.397 129.682 237.538 130.475 236.93C133.211 234.834 137.101 235.383 140.505 236.036C142.112 236.344 143.878 236.749 144.828 238.06C146.406 240.24 144.758 243.389 145.679 245.906C145.937 245.729 146.156 245.502 146.323 245.24C146.491 244.977 146.603 244.684 146.653 244.379C147.938 244.418 149.512 244.294 150.063 243.151C150.23 242.703 150.32 242.231 150.327 241.754C150.529 239.835 151.483 238.084 152.115 236.258C152.747 234.431 153.022 232.291 151.955 230.671C151.565 230.122 151.094 229.634 150.558 229.221C144.505 224.22 136.547 223.396 128.926 223.403Z" fill="#2F2E41"/>
<path d="M127.394 275.194C123.706 271.048 121.515 265.004 121.415 264.735V264.728C121.415 264.728 115.535 261.417 113.918 264.597C112.302 267.777 97.2086 275.726 95.5918 275.726C95.5789 275.731 95.5655 275.736 95.5517 275.739C94.9103 275.949 86.8795 278.82 84.815 289.509C84.2543 293.187 83.9551 296.899 83.9197 300.618H127.875C128.33 295.934 128.671 291.552 128.804 287.768C128.998 282.493 128.811 278.393 127.996 276.278C127.865 275.883 127.661 275.515 127.394 275.194Z" fill="#2F2E41"/>
<path d="M165.19 278.176C165.164 278.051 165.143 277.946 165.123 277.848C165.052 277.566 164.93 277.299 164.763 277.06C164.759 277.053 164.757 277.047 164.756 277.04C161.643 272.297 141.619 265.766 141.619 265.766L140.871 268.309C140.871 268.309 140.964 270.818 141.098 274.839C141.231 278.603 141.392 283.688 141.545 289.272C141.652 292.919 141.746 296.782 141.833 300.618H171.785C170.106 292.999 167.903 285.501 165.19 278.176Z" fill="#2F2E41"/>
<path d="M445.427 300.618L447.719 289.607L449.85 288.721L449.864 288.727C450.058 288.799 452.376 289.765 452.376 293.424C452.376 294.16 452.262 296.808 452.075 300.618H445.427Z" fill="#575A89"/>
<path d="M421.357 262.159C431.635 262.159 439.968 253.966 439.968 243.859C439.968 233.752 431.635 225.559 421.357 225.559C411.078 225.559 402.746 233.752 402.746 243.859C402.746 253.966 411.078 262.159 421.357 262.159Z" fill="#FFB8B8"/>
<path d="M432.989 254.534L431.437 285.796L407.398 272.072L410.5 254.534H432.989Z" fill="#FFB8B8"/>
<path d="M439.969 287.321L438.392 300.618H425.771L412.075 274.74L408.213 267.455L406.362 266.266L408.507 265.786L410.197 266.988L429.112 280.463L432.145 271.508L432.225 271.278L432.987 269.025L439.969 287.321Z" fill="#1C20A6"/>
<path d="M410.113 225.94C410.113 225.94 412.439 214.503 425.622 216.79L424.071 217.553C424.071 217.553 436.478 216.028 434.927 222.89C434.927 222.89 445.008 228.99 442.682 235.853C441.314 239.83 440.276 243.91 439.58 248.053L437.254 245.765C437.254 245.765 434.927 230.515 420.969 232.04C410.5 233.184 406.235 238.045 405.145 241.548C404.643 243.195 404.002 244.798 403.229 246.34L402.358 246.528C402.358 246.528 397.705 229.753 410.113 225.94Z" fill="#2F2E41"/>
<path d="M449.864 288.727L449.851 288.721L439.969 279.694V273.597L432.339 267.685L432.226 271.278L431.437 295.711L418.749 278.551L410.197 266.988L408.661 264.919L409.035 262.981L404.298 268.256L387.154 280.903L385.684 281.987C383.998 283.646 382.443 285.429 381.034 287.321C380.573 287.998 378.475 293.385 375.742 300.618H452.075C452.263 296.808 452.376 294.16 452.376 293.424C452.376 289.765 450.058 288.799 449.864 288.727Z" fill="#2F2E41"/>
<path d="M271.584 223.757C258.973 223.757 248.749 234.914 248.749 248.676V266.161H254.218L257.384 259.683L256.592 266.161H291.744L294.623 260.271L293.903 266.161H297.861V252.432C297.861 236.596 286.096 223.757 271.584 223.757Z" fill="#2F2E41"/>
<path d="M253.155 300.618H238.303L238.162 288.707C238.156 288.583 238.156 288.464 238.156 288.34L241.129 285.048L241.182 284.989L252.534 292.058L253.155 300.618Z" fill="#D0CDE1"/>
<path d="M269.564 263.718C278.542 263.718 285.82 256.561 285.82 247.733C285.82 238.905 278.542 231.748 269.564 231.748C260.586 231.748 253.307 238.905 253.307 247.733C253.307 256.561 260.586 263.718 269.564 263.718Z" fill="#FBBEBE"/>
<path d="M260.243 257.324C260.243 257.324 265.012 281.62 262.844 284.178C260.677 286.736 285.82 279.489 285.82 279.489C285.82 279.489 277.583 262.865 281.918 253.487L260.243 257.324Z" fill="#FBBEBE"/>
<path d="M304.347 273.755H304.34C303.957 272.959 303.295 272.324 302.476 271.968C299.289 270.647 296.543 269.636 294.285 268.867C290.291 267.519 285.933 267.652 282.032 269.242C281.651 269.393 281.277 269.557 280.909 269.741C280.909 269.741 265.014 272.717 263.124 272.342C262.983 272.316 262.836 272.296 262.696 272.283C262.41 272.243 262.123 272.219 261.834 272.211C258.136 272.042 254.467 272.937 251.278 274.786C246.06 277.762 238.323 283.038 238.163 288.175L238.016 288.34L238.163 300.618H307.928C308.068 288.852 308.148 280.009 308.148 279.411C308.148 277.552 304.347 273.755 304.347 273.755Z" fill="#1C20A6"/>
<path d="M278.075 230.622C276.976 229.171 275.552 227.988 273.914 227.166C272.275 226.344 270.466 225.904 268.626 225.88H268.178C259.534 225.88 252.527 233.571 252.527 243.059L255.423 243.059L255.891 239.558L256.576 243.059H273.754L275.194 240.097L274.834 243.059H278.213C279.79 250.759 277.524 258.46 271.416 266.161H277.173L280.051 260.237L279.331 266.161H290.305L292.464 252.536C292.464 242.333 286.435 233.681 278.075 230.622Z" fill="#2F2E41"/>
<path d="M281.23 232.056C285.954 232.056 289.783 228.291 289.783 223.646C289.783 219.002 285.954 215.236 281.23 215.236C276.507 215.236 272.678 219.002 272.678 223.646C272.678 228.291 276.507 232.056 281.23 232.056Z" fill="#2F2E41"/>
</g>
<defs>
<clipPath id="clip0_49_64">
<rect width="546" height="344" fill="white"/>
</clipPath>
</defs>
</svg>
