<svg width="605" height="367" viewBox="0 0 605 367" fill="none" xmlns="http://www.w3.org/2000/svg">
<g clip-path="url(#clip0_53_694)">
<path d="M199.239 367C180.983 367 162.755 366.605 144.554 365.814C118.548 364.683 91.6554 363.515 66.66 346.739C49.1747 335.005 33.6887 316.179 21.8767 292.294C13.9817 276.105 8.19278 258.542 4.71322 240.222C-1.77751 206.868 -1.55643 172.116 5.35787 138.886C7.78091 127.493 11.1212 116.415 15.3309 105.811C33.559 60.1342 66.8058 29.4725 106.547 21.6886C106.875 21.6371 107.207 21.6285 107.536 21.663C107.715 21.6746 107.893 21.687 108.075 21.6778L108.309 21.5879C108.908 21.3358 109.524 21.1446 110.15 21.0163C171.441 9.97485 236.234 32.3155 297.52 85.6213C344.907 126.843 407.708 149.04 489.511 153.481L490.673 153.555C513.445 155.138 535.472 166.498 554.376 186.411C573.035 206.064 587.045 232.285 594.89 262.24C595.855 265.892 596.739 269.694 597.518 273.538C598.244 277.112 598.193 280.851 597.37 284.393C596.547 287.936 594.98 291.16 592.822 293.752V293.759L592.619 294.013C592.128 294.603 591.612 295.169 591.085 295.696L590.464 296.314C585.237 301.525 581.108 305.642 576.166 308.839C572.87 310.957 569.365 312.559 565.734 313.605C545.8 319.486 525.556 324.939 505.565 329.812C466.742 339.285 426.896 347.099 387.133 353.037C324.797 362.338 262.047 367.001 199.239 367ZM107.072 23.2808C106.95 23.2794 106.828 23.2895 106.707 23.3108C67.3374 31.0219 34.4054 61.3826 16.358 106.608C12.1899 117.106 8.88261 128.075 6.48367 139.355C-0.36763 172.289 -0.585962 206.733 5.84703 239.791C9.29253 257.936 15.0253 275.331 22.8441 291.365C34.5405 315.015 49.8681 333.653 67.1702 345.263C91.9412 361.889 118.707 363.052 144.591 364.176C225.549 367.677 306.608 363.407 387.008 351.409C426.744 345.474 466.565 337.666 505.363 328.199C525.34 323.329 545.57 317.881 565.491 312.003C569.034 310.983 572.455 309.421 575.671 307.354C580.513 304.221 584.603 300.144 589.78 294.982L590.401 294.364C590.854 293.911 591.3 293.427 591.726 292.923L591.848 292.768C596.103 287.578 597.757 280.732 596.387 273.984V273.983C595.617 270.179 594.742 266.418 593.787 262.804C577.76 201.61 536.299 158.365 490.616 155.19L489.461 155.117C452.094 153.088 419.396 147.467 389.501 137.932C353.813 126.551 322.657 109.418 296.898 87.01C235.845 33.9085 171.323 11.651 110.299 22.64C109.729 22.759 109.168 22.935 108.622 23.1661L108.201 23.3088C107.961 23.3217 107.722 23.3183 107.483 23.2984C107.342 23.2896 107.205 23.2808 107.072 23.2808Z" fill="#F0F0F0"/>
<path d="M188.977 119.573C187.287 117.611 185.558 106.669 183.401 105.559C185.014 109.872 183.843 111.014 183.834 115.748C183.854 118.436 183.595 121.116 183.062 123.725H146.512V89.2083C146.512 86.1069 147.017 83.0358 147.998 80.1704C148.978 77.305 150.416 74.7015 152.228 72.5084C154.041 70.3154 156.192 68.5757 158.56 67.3889C160.928 66.2021 163.466 65.5913 166.029 65.5914C167.007 65.6145 167.979 65.7867 168.922 66.1039C172.063 67.1302 174.927 69.1382 177.224 71.9264C179.522 74.7146 181.174 78.185 182.013 81.9894C184.8 94.3135 189.231 114.828 188.977 119.573Z" fill="#2F2E41"/>
<path d="M148.657 162.036L148.675 135.131L135.606 136.545L140.218 153.513L138.059 196.163C137.012 196.448 136.056 197.094 135.308 198.025C134.559 198.955 134.051 200.129 133.844 201.403C133.638 202.677 133.742 203.997 134.144 205.2C134.546 206.404 135.229 207.44 136.11 208.182C136.99 208.924 138.03 209.341 139.103 209.38C140.175 209.419 141.234 209.08 142.15 208.404C143.066 207.727 143.799 206.743 144.261 205.571C144.723 204.399 144.893 203.09 144.75 201.803L148.657 162.036Z" fill="#FFB6B6"/>
<path d="M174.377 354.292L179.657 354.291L182.169 329.648H174.375L174.377 354.292Z" fill="#FFB6B6"/>
<path d="M172.589 351.14L180.935 350.537V354.865L188.87 361.497C189.262 361.824 189.558 362.295 189.713 362.839C189.868 363.384 189.876 363.975 189.734 364.525C189.592 365.076 189.309 365.557 188.925 365.898C188.541 366.24 188.078 366.424 187.601 366.424H177.664L175.952 362.144L175.283 366.424H171.536L172.589 351.14Z" fill="#2F2E41"/>
<path d="M143.847 354.292L149.127 354.291L151.639 329.648H143.846L143.847 354.292Z" fill="#FFB6B6"/>
<path d="M142.059 351.14L150.406 350.537V354.865L158.341 361.497C158.733 361.824 159.028 362.295 159.184 362.839C159.339 363.384 159.346 363.975 159.205 364.525C159.063 365.076 158.779 365.557 158.396 365.898C158.012 366.24 157.548 366.424 157.072 366.424H147.135L145.422 362.144L144.753 366.424H141.007L142.059 351.14Z" fill="#2F2E41"/>
<path d="M169.675 106.078L158.737 106.337L151.016 116.199L144.826 117.298C142.026 117.795 139.452 119.44 137.534 121.957C135.616 124.475 134.47 127.714 134.288 131.131L135.36 138.259H141.794L145.516 164.705C144.069 169.167 143.97 172.69 146.941 174.074L156.163 195.095L183.401 180.302C184.782 177.429 185.225 174.542 183.813 171.735L185.76 131.252H192.307C192.307 123.68 190.191 117.297 183.973 116.454C181.503 116.131 179.022 115.959 176.538 115.94L169.675 106.078Z" fill="#E6E6E6"/>
<path d="M183.401 180.302C183.401 180.302 156.807 186.012 146.941 174.074C146.941 174.074 145.94 176.131 144.431 179.544C143.997 180.525 143.158 181.19 142.652 182.378C142.192 183.459 141.009 184.787 140.507 186.012C140.104 186.998 140.751 188.286 140.331 189.351C135.279 202.175 129.376 220.263 130.642 232.208C131.458 239.91 133.143 257.834 134.919 277.085C135.057 278.589 133.934 280.521 134.073 282.037C134.205 283.466 135.599 284.48 135.73 285.912C135.818 286.864 134.844 287.834 134.931 288.785C135.027 289.827 136.183 290.849 136.278 291.888C138.71 318.469 140.936 343.285 140.936 343.285H153.376L155.723 286.607L153.804 265.946L158.308 224.162L164.528 263.87L165.328 286.218L171.901 344.323H183.401V288.073L184.259 285.151L183.401 281.403L184.259 277.365L183.401 272.968V180.302Z" fill="#2F2E41"/>
<path d="M173.032 98.4021C171.338 101.126 168.928 103.07 166.198 103.914C163.469 104.759 160.583 104.453 158.016 103.048C155.45 101.643 153.355 99.2217 152.077 96.1835C150.799 93.1452 150.415 89.671 150.987 86.3329C151.559 82.9948 153.053 79.992 155.224 77.8189C157.394 75.6458 160.112 74.432 162.929 74.3775C165.745 74.3229 168.494 75.4308 170.721 77.5188C172.948 79.6067 174.52 82.5502 175.18 85.8644C175.216 86.0442 175.246 86.223 175.275 86.4087C175.624 88.486 175.604 90.6292 175.217 92.6966C174.831 94.7641 174.086 96.7087 173.032 98.4021Z" fill="#FFB6B6"/>
<path d="M170.447 89.8416C170.184 88.2442 169.519 86.7846 168.543 85.6632C168.639 87.1939 168.464 88.7319 168.028 90.1738C164.767 90.5232 161.492 89.738 158.587 87.9107C156.4 86.1148 153.616 86.2705 150.373 87.9107C150.373 86.0021 150.683 84.1121 151.287 82.3487C151.89 80.5853 152.775 78.983 153.89 77.6334C155.006 76.2838 156.33 75.2133 157.787 74.483C159.244 73.7527 160.806 73.3769 162.383 73.3772H164.528C167.713 73.3779 170.768 74.9093 173.02 77.6347C175.272 80.3601 176.538 84.0564 176.538 87.9107C174.559 88.7698 172.521 89.4159 170.447 89.8416Z" fill="#2F2E41"/>
<path d="M76.6181 275.077C95.674 275.077 111.122 256.383 111.122 233.324C111.122 210.265 95.674 191.571 76.6181 191.571C57.5621 191.571 42.1143 210.265 42.1143 233.324C42.1143 256.383 57.5621 275.077 76.6181 275.077Z" fill="#F0F0F0"/>
<path d="M296.496 83.5054C315.551 83.5054 330.999 64.8121 330.999 41.7527C330.999 18.6933 315.551 0 296.496 0C277.44 0 261.992 18.6933 261.992 41.7527C261.992 64.8121 277.44 83.5054 296.496 83.5054Z" fill="#F0F0F0"/>
<path d="M570.496 281.626C589.552 281.626 605 262.933 605 239.873C605 216.814 589.552 198.121 570.496 198.121C551.44 198.121 535.992 216.814 535.992 239.873C535.992 262.933 551.44 281.626 570.496 281.626Z" fill="#F0F0F0"/>
<path d="M358.738 46.306V140.983C358.738 142.95 358.097 144.837 356.954 146.235C355.81 147.633 354.258 148.429 352.633 148.449C352.61 148.452 352.588 148.453 352.565 148.452H343.459C336.173 148.452 329.185 144.95 324.033 138.716C318.881 132.481 315.987 124.025 315.987 115.209V46.306C315.987 44.3251 316.637 42.4253 317.795 41.0245C318.952 39.6238 320.522 38.8369 322.159 38.8369H325.849C324.14 44.8711 347.34 47.4116 348.613 38.8369H352.565C354.202 38.8369 355.772 39.6238 356.93 41.0246C358.087 42.4253 358.738 44.3251 358.738 46.306Z" fill="#1C20A6"/>
<path d="M331.714 31.7572C331.715 31.4977 331.8 31.2489 331.952 31.0654C332.103 30.8819 332.309 30.7787 332.523 30.7784H338.024C338.238 30.7791 338.443 30.8826 338.594 31.0661C338.746 31.2496 338.83 31.4981 338.83 31.7572C338.83 32.0164 338.746 32.2649 338.594 32.4484C338.443 32.6319 338.238 32.7354 338.024 32.7361H332.523C332.309 32.7358 332.103 32.6326 331.952 32.4491C331.8 32.2656 331.715 32.0168 331.714 31.7572Z" fill="#3F3D56"/>
<path d="M354.455 160.461H319.67C316.971 160.458 314.384 159.159 312.475 156.85C310.567 154.54 309.493 151.409 309.49 148.144V81.9604C309.299 81.7945 309.144 81.5758 309.036 81.3225C308.929 81.0692 308.873 80.7887 308.874 80.5042V73.848C308.873 73.5635 308.929 73.283 309.036 73.0298C309.144 72.7766 309.299 72.558 309.49 72.3921V70.6056C309.299 70.4397 309.144 70.2211 309.036 69.9679C308.929 69.7147 308.873 69.4343 308.874 69.1498V62.4932C308.873 62.2087 308.929 61.9282 309.036 61.675C309.144 61.4218 309.299 61.2032 309.49 61.0373V57.8086C309.254 57.6553 309.057 57.4273 308.92 57.149C308.783 56.8708 308.711 56.5527 308.712 56.2287V49.5726C308.711 49.2486 308.783 48.9304 308.92 48.6521C309.057 48.3738 309.254 48.1457 309.49 47.9924V39.1452C309.493 35.8794 310.567 32.7485 312.475 30.4392C314.384 28.13 316.971 26.8311 319.67 26.8274H354.455C357.154 26.8311 359.741 28.13 361.649 30.4393C363.558 32.7485 364.631 35.8795 364.634 39.1452V58.4302C364.818 58.5689 364.969 58.7618 365.074 58.9907C365.178 59.2195 365.233 59.4768 365.233 59.7385V72.4305C365.233 72.6922 365.178 72.9496 365.074 73.1785C364.969 73.4074 364.818 73.6004 364.634 73.7392V148.144C364.631 151.409 363.558 154.54 361.649 156.85C359.741 159.159 357.154 160.458 354.455 160.461ZM319.67 28.4648C317.33 28.468 315.086 29.5942 313.432 31.5965C311.777 33.5988 310.846 36.3135 310.843 39.1452V49.3851L310.192 49.4155C310.159 49.417 310.127 49.4341 310.103 49.4633C310.079 49.4925 310.066 49.5316 310.065 49.5726V56.2287C310.066 56.2696 310.079 56.3087 310.103 56.3379C310.127 56.3671 310.159 56.3842 310.192 56.3858L310.843 56.4158V62.1869L310.329 62.3404C310.3 62.3487 310.275 62.3682 310.256 62.3959C310.238 62.4235 310.228 62.4577 310.227 62.4932V69.1497C310.228 69.1852 310.238 69.2194 310.256 69.247C310.275 69.2746 310.3 69.2941 310.329 69.3024L310.843 69.4559V73.5417L310.329 73.6952C310.3 73.7035 310.275 73.723 310.256 73.7507C310.238 73.7783 310.228 73.8125 310.227 73.848V80.5041C310.227 80.5397 310.238 80.5739 310.256 80.6016C310.275 80.6293 310.3 80.6489 310.329 80.6572L310.843 80.8107V148.144C310.846 150.975 311.777 153.69 313.432 155.692C315.086 157.695 317.33 158.821 319.67 158.824H354.455C356.795 158.821 359.038 157.695 360.693 155.692C362.348 153.69 363.278 150.975 363.281 148.144V72.3373H363.88V59.8321H363.281V39.1452C363.278 36.3135 362.348 33.5988 360.693 31.5965C359.038 29.5943 356.795 28.468 354.455 28.4648L319.67 28.4648Z" fill="#3F3D56"/>
<path d="M341.097 32.7361C341.544 32.7361 341.906 32.2979 341.906 31.7572C341.906 31.2166 341.544 30.7784 341.097 30.7784C340.651 30.7784 340.289 31.2166 340.289 31.7572C340.289 32.2979 340.651 32.7361 341.097 32.7361Z" fill="#3F3D56"/>
<path d="M165.131 221.374H74.6184C73.333 221.37 72.1012 220.75 71.1922 219.65C70.2832 218.55 69.7711 217.06 69.7676 215.505V162.136C69.7709 160.58 70.2829 159.09 71.1918 157.99C72.1006 156.89 73.3323 156.27 74.6177 156.266H165.131C166.416 156.27 167.648 156.889 168.557 157.989C169.466 159.089 169.978 160.579 169.982 162.135V215.504C169.978 217.059 169.466 218.55 168.557 219.65C167.648 220.75 166.417 221.369 165.131 221.374Z" fill="white"/>
<path d="M165.131 221.374H74.6184C73.333 221.37 72.1012 220.75 71.1922 219.65C70.2832 218.55 69.7711 217.06 69.7676 215.505V162.136C69.7709 160.58 70.2829 159.09 71.1918 157.99C72.1006 156.89 73.3323 156.27 74.6177 156.266H165.131C166.416 156.27 167.648 156.889 168.557 157.989C169.466 159.089 169.978 160.579 169.982 162.135V215.504C169.978 217.059 169.466 218.55 168.557 219.65C167.648 220.75 166.417 221.369 165.131 221.374ZM74.6184 157.903C73.6914 157.906 72.8033 158.353 72.1479 159.147C71.4925 159.94 71.1232 161.015 71.1207 162.136V215.504C71.1234 216.625 71.4928 217.7 72.1483 218.493C72.8038 219.286 73.6921 219.733 74.619 219.736H165.13C166.057 219.733 166.945 219.286 167.601 218.493C168.256 217.7 168.626 216.625 168.628 215.503V162.136C168.626 161.014 168.256 159.939 167.601 159.146C166.945 158.353 166.057 157.906 165.13 157.903L74.6184 157.903Z" fill="#3F3D56"/>
<path d="M124.726 213.486C106.874 213.486 88.2606 213.28 81.3155 213.146C80.4018 213.123 79.5316 212.669 78.8908 211.881C78.25 211.092 77.8893 210.032 77.8857 208.926V164.748C77.8861 164.352 78.016 163.973 78.2472 163.692C78.4783 163.412 78.7918 163.254 79.1191 163.252H160.626C160.954 163.253 161.267 163.41 161.499 163.69C161.731 163.969 161.861 164.348 161.863 164.744V194.718C161.847 199.611 160.248 204.301 157.408 207.784C154.567 211.266 150.712 213.262 146.67 213.345C140.197 213.447 132.532 213.486 124.726 213.486Z" fill="#1C20A6"/>
<path d="M155.788 191.964H82.14C81.5233 191.962 80.9221 191.73 80.4181 191.3C79.9141 190.87 79.5317 190.263 79.3228 189.561L70.9869 161.262C70.8263 160.716 70.7762 160.132 70.8409 159.558C70.9057 158.984 71.0833 158.437 71.3589 157.963C71.6344 157.489 72 157.102 72.4247 156.835C72.8495 156.568 73.321 156.428 73.7998 156.426L165.859 156.271C166.296 156.271 166.729 156.386 167.126 156.61C167.522 156.834 167.874 157.16 168.155 157.565C168.436 157.971 168.64 158.447 168.753 158.958C168.866 159.47 168.885 160.005 168.808 160.527L168.879 160.563L168.615 161.309L168.612 161.317L158.535 189.77C158.306 190.422 157.923 190.977 157.434 191.367C156.946 191.757 156.373 191.965 155.788 191.964ZM165.863 157.909L73.8024 158.064C73.5402 158.064 73.2818 158.141 73.0491 158.287C72.8164 158.434 72.6162 158.646 72.4652 158.905C72.3142 159.165 72.2169 159.464 72.1814 159.779C72.146 160.093 72.1734 160.413 72.2614 160.712L80.597 189.01C80.7115 189.395 80.9212 189.728 81.1974 189.963C81.4736 190.199 81.8031 190.326 82.141 190.327H155.788C156.109 190.327 156.422 190.213 156.689 190C156.956 189.786 157.166 189.483 157.291 189.126L167.369 160.672C167.476 160.37 167.519 160.041 167.495 159.715C167.471 159.388 167.38 159.073 167.231 158.8C167.082 158.526 166.878 158.301 166.64 158.145C166.401 157.99 166.134 157.909 165.863 157.909Z" fill="#3F3D56"/>
<path d="M119.737 198.124C122.922 198.124 125.504 195 125.504 191.146C125.504 187.292 122.922 184.167 119.737 184.167C116.552 184.167 113.97 187.292 113.97 191.146C113.97 195 116.552 198.124 119.737 198.124Z" fill="white"/>
<path d="M337.585 137.542C340.77 137.542 343.352 134.417 343.352 130.563C343.352 126.709 340.77 123.585 337.585 123.585C334.4 123.585 331.818 126.709 331.818 130.563C331.818 134.417 334.4 137.542 337.585 137.542Z" fill="white"/>
<path d="M555.7 231.785L540.295 213.381C539.545 212.478 538.655 211.763 537.677 211.277C536.698 210.791 535.65 210.543 534.592 210.548H534.538C533.472 210.552 532.417 210.812 531.435 211.312C530.452 211.812 529.561 212.543 528.814 213.463C525.37 217.681 523.41 223.351 523.349 229.281C523.287 235.21 525.127 240.938 528.483 245.26C528.645 245.473 528.814 245.678 528.983 245.883C529.92 247.01 530.954 248.011 532.068 248.871C535.114 251.252 538.665 252.512 542.291 252.497H542.406C544.895 252.487 547.357 251.88 549.65 250.711C551.944 249.542 554.023 247.834 555.768 245.686C557.279 243.83 558.121 241.324 558.109 238.719C558.096 236.113 557.23 233.619 555.7 231.785ZM554.807 244.532C551.947 248.018 548.181 250.205 544.144 250.724C540.107 251.243 536.045 250.062 532.643 247.381C531.67 246.602 530.762 245.711 529.93 244.72C526.611 240.753 524.73 235.353 524.701 229.708C524.672 224.062 526.497 218.634 529.775 214.617C530.398 213.849 531.141 213.238 531.961 212.821C532.781 212.403 533.662 212.187 534.551 212.186H534.592C535.473 212.182 536.345 212.388 537.16 212.793C537.975 213.197 538.716 213.792 539.341 214.543L554.746 232.956C556.021 234.482 556.744 236.558 556.755 238.728C556.767 240.899 556.066 242.986 554.807 244.532Z" fill="#3F3D56"/>
<path d="M505.155 171.383L489.751 152.97C488.234 151.15 486.183 150.131 484.047 150.138H484C482.933 150.143 481.877 150.404 480.893 150.906C479.91 151.407 479.018 152.14 478.27 153.06C475.422 156.56 473.576 161.071 473.001 165.933C472.426 170.795 473.154 175.752 475.076 180.077L475.083 180.085C475.876 181.854 476.861 183.487 478.012 184.94C478.141 185.12 478.29 185.3 478.439 185.48C481.976 189.729 486.762 192.108 491.746 192.095H491.868C494.357 192.083 496.819 191.473 499.113 190.303C501.406 189.132 503.485 187.424 505.23 185.276C505.979 184.357 506.571 183.27 506.973 182.075C507.375 180.88 507.578 179.6 507.571 178.31C507.564 177.02 507.347 175.744 506.933 174.556C506.518 173.367 505.914 172.289 505.155 171.383ZM504.262 184.129C502.643 186.123 500.713 187.708 498.585 188.795C496.457 189.881 494.171 190.446 491.861 190.458H491.746C488.277 190.456 484.886 189.213 481.999 186.886C479.112 184.558 476.859 181.249 475.522 177.375C474.185 173.502 473.824 169.236 474.485 165.115C475.146 160.994 476.799 157.202 479.237 154.215C480.498 152.672 482.214 151.797 484.008 151.784C485.801 151.77 487.526 152.618 488.803 154.141L504.208 172.545C505.483 174.074 506.204 176.152 506.214 178.324C506.224 180.495 505.523 182.583 504.262 184.129Z" fill="#3F3D56"/>
<path d="M556.685 237.571L539.701 217.273C538.588 215.945 537.084 215.206 535.52 215.217C533.957 215.229 532.461 215.991 531.361 217.336C529.985 219.018 528.897 221.012 528.158 223.203C527.419 225.395 527.044 227.741 527.055 230.108C527.066 232.475 527.463 234.816 528.222 236.997C528.981 239.179 530.088 241.157 531.48 242.821C532.872 244.484 534.521 245.799 536.333 246.691C538.145 247.582 540.084 248.033 542.04 248.017C543.996 248.001 545.93 247.518 547.732 246.597C549.533 245.676 551.168 244.334 552.54 242.648L556.685 237.571Z" fill="#1C20A6"/>
<path d="M506.143 177.165L489.16 156.867C488.046 155.539 486.542 154.8 484.979 154.812C483.415 154.824 481.92 155.585 480.82 156.93C479.444 158.612 478.355 160.606 477.616 162.798C476.877 164.989 476.503 167.336 476.514 169.702C476.525 172.069 476.921 174.41 477.681 176.592C478.44 178.773 479.547 180.752 480.939 182.415C482.33 184.078 483.979 185.393 485.791 186.285C487.603 187.177 489.542 187.627 491.498 187.611C493.454 187.595 495.388 187.113 497.19 186.192C498.992 185.271 500.626 183.929 501.999 182.243L506.143 177.165Z" fill="#1C20A6"/>
<path d="M538.022 250.213L537.616 251.507C535.708 250.631 533.859 249.752 532.068 248.871C500.352 233.209 485.211 214.879 475.083 180.085L475.076 180.077C474.596 178.44 474.129 176.764 473.676 175.05L474.745 174.633C475.102 176.281 475.625 177.87 476.301 179.365C476.856 181.272 477.426 183.131 478.012 184.94C487.531 214.306 501.57 231.089 528.483 245.26C529.836 245.973 531.223 246.679 532.643 247.381C534.293 248.681 536.111 249.639 538.022 250.213Z" fill="#3F3D56"/>
<path d="M489.468 190.605L488.517 191.77L523.655 233.767L524.607 232.601L489.468 190.605Z" fill="#3F3D56"/>
<path d="M191.98 155.807L191.998 128.903L178.929 130.316L183.541 147.284L166.799 177.997C165.752 178.281 164.796 178.928 164.047 179.858C163.299 180.788 162.79 181.962 162.584 183.236C162.377 184.51 162.481 185.83 162.883 187.033C163.286 188.237 163.969 189.273 164.849 190.015C165.729 190.757 166.769 191.174 167.842 191.213C168.914 191.252 169.973 190.913 170.889 190.237C171.805 189.561 172.539 188.576 173 187.404C173.462 186.232 173.632 184.923 173.489 183.636L191.98 155.807Z" fill="#FFB6B6"/>
</g>
<defs>
<clipPath id="clip0_53_694">
<rect width="605" height="367" fill="white"/>
</clipPath>
</defs>
</svg>
