<svg width="788" height="724" viewBox="0 0 788 724" fill="none" xmlns="http://www.w3.org/2000/svg">
<path d="M788 553.715H0V554.077H788V553.715Z" fill="#EBEBEB"/>
<path d="M709.043 577.014H656.846V577.376H709.043V577.014Z" fill="#EBEBEB"/>
<path d="M522.003 580.952H508.308V581.314H522.003V580.952Z" fill="#EBEBEB"/>
<path d="M655.269 563.576H625.025V563.938H655.269V563.576Z" fill="#EBEBEB"/>
<path d="M150.744 566.009H82.6768V566.371H150.744V566.009Z" fill="#EBEBEB"/>
<path d="M174.762 566.009H164.786V566.371H174.762V566.009Z" fill="#EBEBEB"/>
<path d="M354.836 572.119H207.196V572.481H354.836V572.119Z" fill="#EBEBEB"/>
<path d="M373.512 489.134H69.202C66.818 489.131 64.5331 488.258 62.8489 486.708C61.1647 485.157 60.2187 483.057 60.2188 480.866V87.8357C60.2395 85.6579 61.1946 83.5756 62.8766 82.0411C64.5586 80.5066 66.8316 79.6437 69.202 79.64H373.512C375.898 79.64 378.187 80.5111 379.875 82.0617C381.563 83.6122 382.511 85.7153 382.511 87.9081V480.866C382.511 483.059 381.563 485.162 379.875 486.713C378.187 488.263 375.898 489.134 373.512 489.134ZM69.202 79.9296C66.9225 79.9335 64.7378 80.7681 63.1275 82.2504C61.5172 83.7326 60.6127 85.7414 60.6127 87.8357V480.866C60.6127 482.961 61.5172 484.969 63.1275 486.452C64.7378 487.934 66.9225 488.769 69.202 488.772H373.512C375.793 488.769 377.979 487.934 379.592 486.453C381.205 484.971 382.113 482.962 382.117 480.866V87.8357C382.113 85.74 381.205 83.7313 379.592 82.2495C377.979 80.7676 375.793 79.9334 373.512 79.9296H69.202Z" fill="#EBEBEB"/>
<path d="M714.416 489.134H410.091C407.705 489.131 405.419 488.258 403.732 486.709C402.045 485.159 401.096 483.058 401.092 480.866V87.8357C401.117 85.6566 402.075 83.5743 403.76 82.0402C405.444 80.5061 407.719 79.6437 410.091 79.64H714.416C716.784 79.6476 719.053 80.5121 720.732 82.0462C722.41 83.5803 723.363 85.6604 723.384 87.8357V480.866C723.384 483.054 722.44 485.153 720.759 486.703C719.078 488.252 716.798 489.127 714.416 489.134ZM410.091 79.9296C407.81 79.9334 405.624 80.7676 404.011 82.2495C402.398 83.7313 401.49 85.74 401.486 87.8357V480.866C401.49 482.962 402.398 484.971 404.011 486.453C405.624 487.934 407.81 488.769 410.091 488.772H714.416C716.697 488.769 718.884 487.934 720.496 486.453C722.109 484.971 723.017 482.962 723.021 480.866V87.8357C723.017 85.74 722.109 83.7313 720.496 82.2495C718.884 80.7676 716.697 79.9334 714.416 79.9296H410.091Z" fill="#EBEBEB"/>
<path d="M487.757 545.273H454.487L471.981 414.418C472.401 411.685 473.862 409.177 476.104 407.34C478.345 405.503 481.223 404.455 484.226 404.383H629.376L608.1 545.273H487.757Z" fill="#F5F5F5"/>
<path d="M593.254 545.273H626.523L644.017 414.418C644.232 413.159 644.144 411.873 643.758 410.65C643.372 409.426 642.698 408.296 641.784 407.338C640.869 406.381 639.737 405.62 638.467 405.109C637.197 404.598 635.821 404.351 634.435 404.383H623.009C620.003 404.452 617.121 405.498 614.876 407.335C612.631 409.173 611.168 411.682 610.748 414.418L593.254 545.273Z" fill="#F0F0F0"/>
<path d="M581.008 545.129L587.028 481.822C587.166 480.456 587.807 479.174 588.844 478.187C589.881 477.2 591.252 476.567 592.733 476.392L595.223 476.102C597.204 475.872 599.041 475.03 600.432 473.714C601.824 472.399 602.688 470.688 602.883 468.862L603.97 457.278C604.077 456.161 603.93 455.035 603.539 453.973C603.147 452.91 602.519 451.934 601.696 451.106C600.872 450.279 599.869 449.617 598.753 449.164C597.636 448.711 596.428 448.476 595.208 448.475H650.793C652.015 448.474 653.224 448.708 654.343 449.16C655.462 449.612 656.466 450.273 657.291 451.101C658.117 451.929 658.746 452.906 659.139 453.969C659.531 455.033 659.679 456.16 659.571 457.278L658.468 468.862C658.276 470.689 657.413 472.401 656.021 473.717C654.629 475.033 652.791 475.874 650.809 476.102L648.335 476.392C646.849 476.568 645.473 477.206 644.436 478.198C643.398 479.191 642.761 480.48 642.629 481.851L636.593 545.157C636.381 547.381 635.269 549.452 633.478 550.961C631.687 552.469 629.347 553.307 626.917 553.31H571.315C573.752 553.307 576.099 552.465 577.893 550.951C579.688 549.436 580.799 547.359 581.008 545.129Z" fill="#E6E6E6"/>
<path d="M428.01 465.981C427.553 461.186 425.156 456.723 421.294 453.471C417.431 450.22 412.382 448.416 407.144 448.417H455.542C460.781 448.416 465.83 450.22 469.692 453.471C473.555 456.723 475.952 461.186 476.409 465.981L481.137 516.154H432.785L428.01 465.981Z" fill="#E6E6E6"/>
<path d="M385.647 448.417H407.144C412.383 448.416 417.431 450.22 421.294 453.471C425.157 456.723 427.553 461.186 428.01 465.981L432.738 516.154H548.007L552.735 465.981C553.196 461.177 555.603 456.708 559.478 453.456C563.353 450.203 568.415 448.405 573.664 448.417H595.176C596.397 448.418 597.604 448.653 598.721 449.106C599.838 449.559 600.84 450.221 601.664 451.049C602.488 451.876 603.116 452.852 603.507 453.915C603.899 454.977 604.046 456.103 603.939 457.221L602.851 468.805C602.657 470.63 601.793 472.341 600.401 473.656C599.009 474.972 597.173 475.814 595.192 476.045L592.702 476.334C591.216 476.51 589.841 477.148 588.803 478.14C587.766 479.133 587.128 480.422 586.997 481.793L580.977 545.1C580.76 547.325 579.646 549.395 577.852 550.904C576.059 552.412 573.716 553.25 571.284 553.252H409.524C407.094 553.25 404.753 552.412 402.962 550.903C401.171 549.394 400.06 547.324 399.847 545.1L393.811 481.793C393.68 480.422 393.042 479.133 392.005 478.14C390.967 477.148 389.591 476.51 388.106 476.334L385.631 476.045C383.65 475.816 381.811 474.975 380.419 473.659C379.027 472.343 378.164 470.631 377.972 468.805L376.869 457.221C376.762 456.102 376.909 454.975 377.302 453.912C377.694 452.848 378.323 451.871 379.149 451.043C379.974 450.215 380.979 449.554 382.097 449.102C383.216 448.65 384.425 448.416 385.647 448.417Z" fill="#F0F0F0"/>
<path d="M145.796 190.195C145.796 190.195 143.952 179.002 152.825 171.834C161.698 164.667 160.925 160.395 158.388 159.83C155.851 159.266 153.518 166.448 149.61 168.417C149.61 168.417 149.484 158.194 153.455 154.429C157.427 150.664 159.507 140.963 155.725 140.804C151.942 140.644 151.564 146.596 150.776 150.766C149.988 154.936 145.796 160.902 145.796 160.902C145.796 160.902 144.976 151.765 142.407 147.986C139.839 144.206 146.678 135.62 143.983 131.855C141.289 128.09 136.734 135.243 137.112 143.352C137.49 151.461 143.416 160.033 141.998 168.46C141.998 168.46 139.413 162.552 137.096 162.017C134.78 161.481 132.368 157.557 130.871 156.109C129.374 154.661 127.357 159.685 130.871 164.348C134.386 169.011 143.416 181.434 141.998 191.512L145.796 190.195Z" fill="#E6E6E6"/>
<path d="M151.107 185.098L154.022 201.866C154.231 203.084 154.151 204.33 153.787 205.517C153.422 206.705 152.782 207.805 151.911 208.744C151.039 209.682 149.957 210.436 148.738 210.953C147.519 211.471 146.192 211.739 144.85 211.741H141.698C140.356 211.74 139.03 211.471 137.812 210.954C136.593 210.436 135.512 209.682 134.641 208.743C133.771 207.804 133.132 206.703 132.77 205.516C132.407 204.329 132.329 203.083 132.541 201.866L135.536 185.098H151.107Z" fill="#E6E6E6"/>
<path d="M107.121 215.26L312.694 215.26V205.558L107.121 205.558V215.26Z" fill="#E0E0E0"/>
<path d="M294.161 205.544H303.223V169.778H294.161V205.544Z" fill="#EBEBEB"/>
<path d="M250.379 205.544H259.441V169.778H250.379V205.544Z" fill="#EBEBEB"/>
<path d="M194.048 204.135L202.979 205.549L209.591 170.304L200.661 168.889L194.048 204.135Z" fill="#EBEBEB"/>
<path d="M282.939 205.558H292.001V174.499H282.939V205.558Z" fill="#EBEBEB"/>
<path d="M262.121 205.558H271.183V174.499H262.121V205.558Z" fill="#EBEBEB"/>
<path d="M209.592 205.558H218.654V174.499H209.592V205.558Z" fill="#EBEBEB"/>
<path d="M231.166 203.724L240.012 205.531L247.346 175.211L238.5 173.404L231.166 203.724Z" fill="#EBEBEB"/>
<path d="M275.122 205.558H279.646V168.011H275.122V205.558Z" fill="#EBEBEB"/>
<path d="M221.254 205.558H225.777V168.011H221.254V205.558Z" fill="#EBEBEB"/>
<path d="M312.695 277.987H107.121V287.689H312.695V277.987Z" fill="#E0E0E0"/>
<path d="M125.639 242.221H116.577V277.987H125.639V242.221Z" fill="#EBEBEB"/>
<path d="M169.436 242.221H160.374V277.987H169.436V242.221Z" fill="#EBEBEB"/>
<path d="M219.144 241.324L210.214 242.738L216.826 277.984L225.757 276.57L219.144 241.324Z" fill="#EBEBEB"/>
<path d="M136.86 246.942H127.798V278.002H136.86V246.942Z" fill="#EBEBEB"/>
<path d="M157.679 246.942H148.617V278.002H157.679V246.942Z" fill="#EBEBEB"/>
<path d="M210.222 246.942H201.16V278.002H210.222V246.942Z" fill="#EBEBEB"/>
<path d="M181.336 245.865L172.49 247.671L179.824 277.991L188.67 276.185L181.336 245.865Z" fill="#EBEBEB"/>
<path d="M144.693 240.44H140.17V277.987H144.693V240.44Z" fill="#EBEBEB"/>
<path d="M198.56 240.44H194.037V277.987H198.56V240.44Z" fill="#EBEBEB"/>
<path d="M292.963 249.679H248.835V277.668H292.963V249.679Z" fill="#EBEBEB"/>
<path d="M646.681 179.856H469.869V359.524H646.681V179.856Z" fill="#E0E0E0"/>
<path d="M652.322 179.856H468.938V359.524H652.322V179.856Z" fill="#F0F0F0"/>
<path d="M644.568 185.59H476.409V351.27H644.568V185.59Z" fill="white"/>
<path d="M644.568 185.59H639.698V351.27H644.568V185.59Z" fill="#E0E0E0"/>
<path d="M475.968 304.717V309.191H640.218V304.717H475.968Z" fill="#E0E0E0"/>
<path d="M644.568 297.231H473.793V304.732H644.568V297.231Z" fill="#F0F0F0"/>
<path d="M394 619.107C562.762 619.107 699.571 611.768 699.571 602.715C699.571 593.663 562.762 586.324 394 586.324C225.238 586.324 88.4297 593.663 88.4297 602.715C88.4297 611.768 225.238 619.107 394 619.107Z" fill="#F5F5F5"/>
<path d="M515.62 578.838C515.844 578.395 515.949 577.91 515.927 577.422C515.906 576.934 515.758 576.458 515.496 576.033C515.234 575.609 514.866 575.247 514.421 574.98C513.977 574.712 513.469 574.545 512.941 574.494C513.418 573.219 513.457 571.84 513.051 570.545C512.644 569.249 511.814 568.1 510.672 567.254C510.403 567.025 510.06 566.882 509.694 566.849C509.301 566.886 508.931 567.038 508.639 567.283L502.335 571.395C501.836 571.68 501.415 572.066 501.105 572.525C499.829 574.798 504.415 577.709 502.524 579.576C501.988 580.112 501.121 580.228 500.443 580.619C498.946 581.473 498.773 583.341 498.079 584.818C497.386 586.295 494.927 587.454 494.045 586.078C494.722 584.63 492.674 583.443 490.987 583.269C489.301 583.095 487.567 582.994 486.638 581.56C484.258 583.457 478.931 578.128 479.057 575.985C478.117 576.141 477.254 576.562 476.587 577.19C475.92 577.819 475.483 578.622 475.338 579.49C475.064 581.264 474.995 583.06 475.133 584.847C475.133 588.322 473.856 591.725 473.919 595.2C473.919 597.908 475.117 600.92 477.812 602.006C479.156 602.442 480.583 602.619 482.004 602.527L512.72 602.339C513.457 602.389 514.197 602.28 514.88 602.02C516.266 601.354 516.55 599.675 516.676 598.241L518.331 579.852L515.62 578.838Z" fill="#1C20A6"/>
<path opacity="0.3" d="M515.62 578.838C515.844 578.395 515.949 577.91 515.927 577.422C515.906 576.934 515.758 576.458 515.496 576.033C515.234 575.609 514.866 575.247 514.421 574.98C513.977 574.712 513.469 574.545 512.941 574.494C513.418 573.219 513.457 571.84 513.051 570.545C512.644 569.249 511.814 568.1 510.672 567.254C510.403 567.025 510.06 566.882 509.694 566.849C509.301 566.886 508.931 567.038 508.639 567.283L502.335 571.395C501.836 571.68 501.415 572.066 501.105 572.525C499.829 574.798 504.415 577.709 502.524 579.576C501.988 580.112 501.121 580.228 500.443 580.619C498.946 581.473 498.773 583.341 498.079 584.818C497.386 586.295 494.927 587.454 494.045 586.078C494.722 584.63 492.674 583.443 490.987 583.269C489.301 583.095 487.567 582.994 486.638 581.56C484.258 583.457 478.931 578.128 479.057 575.985C478.117 576.141 477.254 576.562 476.587 577.19C475.92 577.819 475.483 578.622 475.338 579.49C475.064 581.264 474.995 583.06 475.133 584.847C475.133 588.322 473.856 591.725 473.919 595.2C473.919 597.908 475.117 600.92 477.812 602.006C479.156 602.442 480.583 602.619 482.004 602.527L512.72 602.339C513.457 602.389 514.197 602.28 514.88 602.02C516.266 601.354 516.55 599.675 516.676 598.241L518.331 579.852L515.62 578.838Z" fill="white"/>
<path d="M517.401 549.009H469.743L470.137 553.44L470.421 556.597L471.146 564.807L471.556 569.542L472.107 575.826L472.344 578.519L472.422 579.316L472.706 582.487L473.084 586.831L473.321 589.524L473.557 592.261L473.841 595.432L474.061 597.836L474.298 600.529L474.392 601.702H518.126L518.237 600.529L518.473 597.836L518.678 595.418L518.962 592.246L519.214 589.524L519.45 586.831L519.828 582.487L520.112 579.33V578.534L520.349 575.841L520.9 569.556L521.326 564.836L522.035 556.611L522.319 553.455L522.713 549.024L517.401 549.009ZM520.27 551.905L519.356 551.065H520.349L520.27 551.905ZM520.081 554.584L520.002 555.656L515.731 559.565L510.829 555.076L515.211 551.051H516.251L520.081 554.584ZM518.851 568.601L515.699 571.497L510.798 566.993L515.699 562.519L519.072 565.618L518.851 568.601ZM473.494 565.589L476.882 562.49L481.768 566.964L476.882 571.468L473.73 568.572L473.494 565.589ZM514.155 561.028L509.253 565.516L504.368 561.028L509.253 556.524L514.155 561.028ZM506.464 551.051H512.059L509.253 553.628L506.464 551.051ZM507.662 566.979L502.776 571.482L497.891 566.979L502.776 562.505L507.662 566.979ZM491.413 572.93L496.315 568.441L501.2 572.93L496.315 577.433L491.413 572.93ZM494.723 578.881L489.821 583.37L484.952 578.881L489.837 574.393L494.723 578.881ZM502.776 574.393L507.662 578.881L502.776 583.37L497.891 578.881L502.776 574.393ZM496.315 565.531L491.413 561.042L496.315 556.539L501.2 561.042L496.315 565.531ZM494.739 566.979L489.853 571.482L484.967 566.979L489.853 562.505L494.739 566.979ZM483.376 565.531L478.49 561.042L483.376 556.539L488.261 561.042L483.376 565.531ZM483.376 568.427L488.261 572.916L483.376 577.419L478.49 572.916L483.376 568.427ZM488.261 584.818L483.376 589.307L478.49 584.818L483.376 580.329L488.261 584.818ZM489.837 586.266L494.739 590.77L489.853 595.258L484.967 590.77L489.837 586.266ZM491.413 584.818L496.315 580.329L501.2 584.818L496.315 589.307L491.413 584.818ZM502.776 586.266L507.662 590.77L502.776 595.258L497.891 590.77L502.776 586.266ZM509.206 592.232L514.108 596.735L510.956 599.631H507.473L504.321 596.735L509.206 592.232ZM504.321 584.833L509.206 580.344L514.108 584.833L509.206 589.336L504.321 584.833ZM504.321 572.93L509.206 568.441L514.108 572.93L509.206 577.433L504.321 572.93ZM507.614 555.091L502.729 559.58L497.843 555.091L502.225 551.065H503.249L507.614 555.091ZM496.267 553.643L493.462 551.065H499.057L496.267 553.643ZM494.691 555.091L489.806 559.58L484.92 555.091L489.286 551.065H490.326L494.691 555.091ZM486.118 551.065L483.328 553.643L480.539 551.065H486.118ZM477.371 551.065L481.737 555.091L476.851 559.58L472.596 555.67L472.501 554.598L476.331 551.065H477.371ZM473.179 551.065L472.265 551.905V551.065H473.179ZM472.879 558.841L475.275 561.042L473.226 562.91L472.879 558.841ZM474.203 573.915L474.014 571.786L475.275 572.945L474.203 573.929V573.915ZM474.44 576.608L476.851 574.393L481.737 578.881L476.851 583.37L474.881 581.56L474.44 576.608ZM475.165 584.934V584.731L475.275 584.833L475.165 584.934ZM476.016 594.505L475.401 587.613L476.851 586.281L481.737 590.784L476.851 595.273L476.016 594.505ZM476.473 599.646L476.378 598.618L476.851 598.183L478.427 599.631L476.473 599.646ZM478.443 596.75L483.328 592.246L488.214 596.75L485.062 599.646H481.61L478.443 596.75ZM488.214 599.646L489.79 598.198L491.366 599.646H488.214ZM494.518 599.646L491.366 596.75L496.267 592.246L501.153 596.75L498.001 599.646H494.518ZM501.137 599.646L502.713 598.198L504.289 599.646H501.137ZM516.046 599.646H514.092L515.668 598.198L516.141 598.632L516.046 599.646ZM516.503 594.505L515.668 595.273L510.782 590.784L515.684 586.281L517.133 587.613L516.503 594.505ZM517.37 584.717V584.934L517.275 584.833L517.401 584.717H517.37ZM517.654 581.56L515.668 583.37L510.766 578.881L515.668 574.393L518.079 576.608L517.654 581.56ZM518.315 573.915L517.244 572.93L518.505 571.786L518.315 573.915ZM519.655 558.827L519.293 562.924L517.244 561.042L519.655 558.827Z" fill="#1C20A6"/>
<g opacity="0.6">
<path d="M517.401 549.009H469.743L470.137 553.44L470.421 556.597L471.146 564.807L471.556 569.542L472.107 575.826L472.344 578.519L472.422 579.316L472.706 582.487L473.084 586.831L473.321 589.524L473.557 592.261L473.841 595.432L474.061 597.836L474.298 600.529L474.392 601.702H518.126L518.237 600.529L518.473 597.836L518.678 595.418L518.962 592.246L519.214 589.524L519.45 586.831L519.828 582.487L520.112 579.33V578.534L520.349 575.841L520.9 569.556L521.326 564.836L522.035 556.611L522.319 553.455L522.713 549.024L517.401 549.009ZM520.27 551.905L519.356 551.065H520.349L520.27 551.905ZM520.081 554.584L520.002 555.656L515.731 559.565L510.829 555.076L515.211 551.051H516.251L520.081 554.584ZM518.851 568.601L515.699 571.497L510.798 566.993L515.699 562.519L519.072 565.618L518.851 568.601ZM473.494 565.589L476.882 562.49L481.768 566.964L476.882 571.468L473.73 568.572L473.494 565.589ZM514.155 561.028L509.253 565.516L504.368 561.028L509.253 556.524L514.155 561.028ZM506.464 551.051H512.059L509.253 553.628L506.464 551.051ZM507.662 566.979L502.776 571.482L497.891 566.979L502.776 562.505L507.662 566.979ZM491.413 572.93L496.315 568.441L501.2 572.93L496.315 577.433L491.413 572.93ZM494.723 578.881L489.821 583.37L484.952 578.881L489.837 574.393L494.723 578.881ZM502.776 574.393L507.662 578.881L502.776 583.37L497.891 578.881L502.776 574.393ZM496.315 565.531L491.413 561.042L496.315 556.539L501.2 561.042L496.315 565.531ZM494.739 566.979L489.853 571.482L484.967 566.979L489.853 562.505L494.739 566.979ZM483.376 565.531L478.49 561.042L483.376 556.539L488.261 561.042L483.376 565.531ZM483.376 568.427L488.261 572.916L483.376 577.419L478.49 572.916L483.376 568.427ZM488.261 584.818L483.376 589.307L478.49 584.818L483.376 580.329L488.261 584.818ZM489.837 586.266L494.739 590.77L489.853 595.258L484.967 590.77L489.837 586.266ZM491.413 584.818L496.315 580.329L501.2 584.818L496.315 589.307L491.413 584.818ZM502.776 586.266L507.662 590.77L502.776 595.258L497.891 590.77L502.776 586.266ZM509.206 592.232L514.108 596.735L510.956 599.631H507.473L504.321 596.735L509.206 592.232ZM504.321 584.833L509.206 580.344L514.108 584.833L509.206 589.336L504.321 584.833ZM504.321 572.93L509.206 568.441L514.108 572.93L509.206 577.433L504.321 572.93ZM507.614 555.091L502.729 559.58L497.843 555.091L502.225 551.065H503.249L507.614 555.091ZM496.267 553.643L493.462 551.065H499.057L496.267 553.643ZM494.691 555.091L489.806 559.58L484.92 555.091L489.286 551.065H490.326L494.691 555.091ZM486.118 551.065L483.328 553.643L480.539 551.065H486.118ZM477.371 551.065L481.737 555.091L476.851 559.58L472.596 555.67L472.501 554.598L476.331 551.065H477.371ZM473.179 551.065L472.265 551.905V551.065H473.179ZM472.879 558.841L475.275 561.042L473.226 562.91L472.879 558.841ZM474.203 573.915L474.014 571.786L475.275 572.945L474.203 573.929V573.915ZM474.44 576.608L476.851 574.393L481.737 578.881L476.851 583.37L474.881 581.56L474.44 576.608ZM475.165 584.934V584.731L475.275 584.833L475.165 584.934ZM476.016 594.505L475.401 587.613L476.851 586.281L481.737 590.784L476.851 595.273L476.016 594.505ZM476.473 599.646L476.378 598.618L476.851 598.183L478.427 599.631L476.473 599.646ZM478.443 596.75L483.328 592.246L488.214 596.75L485.062 599.646H481.61L478.443 596.75ZM488.214 599.646L489.79 598.198L491.366 599.646H488.214ZM494.518 599.646L491.366 596.75L496.267 592.246L501.153 596.75L498.001 599.646H494.518ZM501.137 599.646L502.713 598.198L504.289 599.646H501.137ZM516.046 599.646H514.092L515.668 598.198L516.141 598.632L516.046 599.646ZM516.503 594.505L515.668 595.273L510.782 590.784L515.684 586.281L517.133 587.613L516.503 594.505ZM517.37 584.717V584.934L517.275 584.833L517.401 584.717H517.37ZM517.654 581.56L515.668 583.37L510.766 578.881L515.668 574.393L518.079 576.608L517.654 581.56ZM518.315 573.915L517.244 572.93L518.505 571.786L518.315 573.915ZM519.655 558.827L519.293 562.924L517.244 561.042L519.655 558.827Z" fill="white"/>
</g>
<path d="M469.27 552.904H523.233C524.66 552.904 525.817 551.841 525.817 550.53V549.545C525.817 548.233 524.66 547.17 523.233 547.17H469.27C467.843 547.17 466.686 548.233 466.686 549.545V550.53C466.686 551.841 467.843 552.904 469.27 552.904Z" fill="#1C20A6"/>
<path d="M518.977 598.618H473.541C472.113 598.618 470.956 599.681 470.956 600.992V601.977C470.956 603.289 472.113 604.352 473.541 604.352H518.977C520.404 604.352 521.561 603.289 521.561 601.977V600.992C521.561 599.681 520.404 598.618 518.977 598.618Z" fill="#1C20A6"/>
<path d="M676.766 135.402H285.823C282.229 135.402 279.314 138.08 279.314 141.383V400.502C279.314 403.805 282.229 406.483 285.823 406.483H676.766C680.361 406.483 683.275 403.805 683.275 400.502V141.383C683.275 138.08 680.361 135.402 676.766 135.402Z" fill="#1C20A6"/>
<path opacity="0.4" d="M683.275 150.056H279.314V394.739H683.275V150.056Z" fill="black"/>
<path d="M673.819 146.031C675.916 146.031 677.617 144.468 677.617 142.541C677.617 140.614 675.916 139.051 673.819 139.051C671.721 139.051 670.021 140.614 670.021 142.541C670.021 144.468 671.721 146.031 673.819 146.031Z" fill="white"/>
<path d="M661.006 146.031C663.104 146.031 664.804 144.468 664.804 142.541C664.804 140.614 663.104 139.051 661.006 139.051C658.909 139.051 657.208 140.614 657.208 142.541C657.208 144.468 658.909 146.031 661.006 146.031Z" fill="white"/>
<path d="M648.193 146.031C650.29 146.031 651.991 144.468 651.991 142.541C651.991 140.614 650.29 139.051 648.193 139.051C646.095 139.051 644.395 140.614 644.395 142.541C644.395 144.468 646.095 146.031 648.193 146.031Z" fill="white"/>
<path d="M412.077 277.22H280.812V382.895H412.077V277.22Z" fill="#263238"/>
<path d="M412.077 169.213H280.812V274.888H412.077V169.213Z" fill="#263238"/>
<path d="M546.352 169.213H415.087V274.888H546.352V169.213Z" fill="#1C20A6"/>
<path d="M680.643 169.213H549.378V274.888H680.643V169.213Z" fill="white"/>
<path d="M546.352 277.22H415.087V382.895H546.352V277.22Z" fill="#263238"/>
<path d="M680.643 277.22H549.378V382.895H680.643V277.22Z" fill="#1C20A6"/>
<path d="M658.153 274.888L661.132 251.836C661.529 248.859 660.709 245.853 658.831 243.399C656.953 240.946 654.15 239.221 650.967 238.558C616.893 231.593 596.563 238.486 596.563 238.486C588.938 249.825 583.046 262.074 579.054 274.888H658.153Z" fill="#263238"/>
<path d="M633.552 237.559C636.472 237.264 639.415 237.211 642.346 237.4C634.939 231.709 638.611 217.258 641.621 209.41L618.721 221.298C618.987 222.303 619.177 223.324 619.289 224.353C619.577 226.192 619.338 228.069 618.595 229.798C617.245 232.017 615.391 233.943 613.158 235.445L622.331 239.195L633.552 237.559Z" fill="#E4897B"/>
<path opacity="0.2" d="M636.373 216.968C635.458 226.612 624.174 229.262 618.643 229.798C619.385 228.069 619.624 226.192 619.336 224.353L636.373 216.968Z" fill="black"/>
<path d="M606.255 187.791C606.255 187.791 604.458 201.504 613.126 207.281C621.794 213.059 619.919 179.552 619.919 179.552L606.255 187.791Z" fill="#263238"/>
<path d="M639.856 216.766C639.402 217.614 638.875 218.427 638.28 219.198C636.591 221.499 634.174 223.269 631.356 224.268C628.538 225.267 625.454 225.449 622.52 224.788C622.104 224.703 621.694 224.597 621.291 224.469C617.425 223.358 614.146 220.969 612.087 217.765C612.087 217.663 611.945 217.533 611.866 217.432C611.583 216.968 611.331 216.49 611.078 215.984C610.593 214.918 610.167 213.831 609.802 212.726C606.65 203.415 607.028 187.849 616.437 182.506C623.923 178.162 635.759 179.61 640.471 186.517C641.826 188.472 640.313 193.583 640.55 195.885C641.669 205.24 642.803 211.191 639.856 216.766Z" fill="#E4897B"/>
<path d="M623.529 201.62C623.749 202.459 623.324 203.256 622.693 203.357C622.063 203.458 621.448 202.821 621.291 201.909C621.133 200.997 621.496 200.258 622.11 200.172C622.725 200.085 623.355 200.751 623.529 201.62Z" fill="#263238"/>
<path d="M612.875 203.285C613.095 204.139 612.654 204.935 612.039 205.022C611.425 205.109 610.81 204.487 610.637 203.574C610.463 202.662 610.857 201.924 611.456 201.837C612.055 201.75 612.717 202.474 612.875 203.285Z" fill="#263238"/>
<path d="M616.341 203.183C615.705 206.007 614.644 208.736 613.189 211.292C613.924 211.622 614.728 211.799 615.545 211.811C616.362 211.824 617.172 211.671 617.917 211.365L616.341 203.183Z" fill="#DE5753"/>
<path d="M626.239 197.927C626.14 197.956 626.033 197.961 625.931 197.941C625.829 197.92 625.734 197.876 625.656 197.811C625.154 197.362 624.546 197.024 623.879 196.826C623.212 196.628 622.504 196.573 621.811 196.667C621.667 196.698 621.515 196.676 621.389 196.606C621.262 196.535 621.17 196.422 621.133 196.291C621.114 196.226 621.11 196.159 621.121 196.092C621.132 196.026 621.157 195.963 621.195 195.906C621.234 195.849 621.284 195.8 621.344 195.761C621.404 195.723 621.471 195.696 621.543 195.683C622.424 195.543 623.329 195.602 624.179 195.854C625.03 196.107 625.802 196.545 626.428 197.131C626.531 197.228 626.588 197.358 626.588 197.493C626.588 197.628 626.531 197.758 626.428 197.855C626.37 197.888 626.306 197.912 626.239 197.927Z" fill="#263238"/>
<path d="M607.674 200.635C607.574 200.688 607.459 200.713 607.343 200.707C607.272 200.689 607.206 200.658 607.148 200.616C607.091 200.574 607.043 200.521 607.008 200.462C606.972 200.403 606.951 200.337 606.943 200.27C606.936 200.203 606.943 200.135 606.965 200.07C607.193 199.277 607.626 198.545 608.226 197.938C608.827 197.33 609.578 196.865 610.416 196.58C610.558 196.544 610.71 196.56 610.84 196.625C610.969 196.69 611.066 196.799 611.11 196.928C611.149 197.059 611.132 197.198 611.061 197.317C610.991 197.436 610.872 197.525 610.731 197.565C610.08 197.808 609.498 198.187 609.033 198.672C608.569 199.157 608.233 199.735 608.052 200.36C608.013 200.427 607.96 200.487 607.895 200.534C607.83 200.581 607.754 200.616 607.674 200.635Z" fill="#263238"/>
<path d="M644.962 189.297C644.962 189.007 645.088 188.718 645.135 188.399C646.711 178.133 630.336 172.095 615.554 173.369C609.108 173.934 610.589 184.055 610.589 184.055C610.589 184.055 606.933 184.055 605.278 186.097C602.362 189.717 606.854 197.681 606.854 197.681C604.6 186.097 611.125 185.46 611.125 185.46C611.125 185.46 612.701 189.949 615.617 189.543C618.532 189.138 625.908 182.578 629.533 183.36C630.677 183.583 631.737 184.079 632.606 184.799C633.475 185.518 634.122 186.436 634.481 187.458C634.534 188.486 634.347 189.512 633.934 190.468C633.521 191.425 632.891 192.289 632.086 193.004C628.934 196.204 634.229 203.039 637.87 205.124C637.87 205.124 637.744 203.401 639.367 203.676C640.99 203.951 641.762 212.914 639.241 217.533C639.241 217.533 643.386 213.189 644.773 203.458C645.557 198.769 645.62 194.002 644.962 189.297Z" fill="#263238"/>
<path d="M620.25 215.607C621.63 215.579 622.983 215.248 624.195 214.641C625.407 214.034 626.443 213.168 627.216 212.118C627.238 212.088 627.254 212.054 627.261 212.018C627.269 211.982 627.268 211.945 627.259 211.91C627.25 211.875 627.234 211.841 627.21 211.812C627.186 211.783 627.156 211.759 627.121 211.741C627.09 211.722 627.055 211.709 627.019 211.702C626.982 211.695 626.944 211.695 626.908 211.702C626.871 211.709 626.836 211.722 626.805 211.741C626.774 211.76 626.748 211.785 626.727 211.813C625.99 212.775 625.02 213.566 623.893 214.124C622.766 214.682 621.513 214.991 620.234 215.028C620.157 215.028 620.083 215.055 620.028 215.103C619.972 215.152 619.939 215.218 619.935 215.289C619.934 215.359 619.964 215.427 620.017 215.478C620.069 215.529 620.142 215.56 620.218 215.564L620.25 215.607Z" fill="#263238"/>
<path d="M647.2 203.82C646.361 206.423 644.434 208.615 641.841 209.917C638.39 211.625 635.821 208.975 636.042 205.573C636.294 202.546 638.327 197.913 642.156 197.652C645.986 197.391 648.177 200.606 647.2 203.82Z" fill="#E4897B"/>
<path opacity="0.1" d="M622.52 224.788C622.104 224.703 621.693 224.597 621.291 224.469C617.425 223.358 614.146 220.969 612.087 217.765C614.829 217.49 620.55 216.968 621.716 217.432C622.882 217.895 622.678 222.644 622.52 224.788Z" fill="black"/>
<path d="M605.215 274.888H612.89L621.243 246.594L628.839 239.195H615.538L618.642 246.319L605.215 274.888Z" fill="#1C20A6"/>
<path d="M576.958 269.603L576.469 274.888H588.935C599.605 251.619 609.518 234.75 609.518 234.75L596.563 238.486C566.619 246.536 564.097 264.55 569.204 269.154C574.31 273.759 576.958 269.603 576.958 269.603Z" fill="#1C20A6"/>
<path opacity="0.5" d="M576.958 269.603L576.469 274.888H588.935C599.605 251.619 609.518 234.75 609.518 234.75L596.563 238.486C566.619 246.536 564.097 264.55 569.204 269.154C574.31 273.759 576.958 269.603 576.958 269.603Z" fill="white"/>
<path d="M586.271 274.888H589.171C598.879 255.673 615.002 233.128 615.002 233.128C608.393 233.114 601.845 234.289 595.727 236.589L599.053 245.103L591.031 246.551L586.271 274.888Z" fill="#1C20A6"/>
<path opacity="0.4" d="M586.271 274.888H589.171C598.879 255.673 615.002 233.128 615.002 233.128C608.393 233.114 601.845 234.289 595.727 236.589L599.053 245.103L591.031 246.551L586.271 274.888Z" fill="white"/>
<path opacity="0.2" d="M582.899 274.888C584.549 271.629 585.43 268.086 585.483 264.492L576.957 269.603L576.469 274.888H582.899Z" fill="black"/>
<path d="M610.778 235.937L616.909 230.84L622.378 237.689L639.714 230.84L644.063 237.298L627.263 244.958L621.684 240.02L615.538 243.583L610.778 235.937Z" fill="#263238"/>
<path opacity="0.2" d="M610.778 235.937L616.909 230.84L622.378 237.689L639.714 230.84L644.063 237.298L627.263 244.958L621.684 240.02L615.538 243.583L610.778 235.937Z" fill="white"/>
<path d="M591 252.951L609.502 234.75C611.893 234.711 614.19 233.889 615.98 232.433C618.722 230.058 622.457 219.546 621.543 218.865C620.629 218.185 609.597 217.345 608.557 218.532C607.517 219.72 602.946 230.348 602.946 230.348L583.12 244.596L591 252.951Z" fill="#E4897B"/>
<path d="M593.049 237.038L596.705 234.069L605.468 240.31L601.496 245.161L593.049 237.038Z" fill="#263238"/>
<path opacity="0.2" d="M593.049 237.038L596.705 234.069L605.468 240.31L601.496 245.161L593.049 237.038Z" fill="white"/>
<path d="M594.042 235.141L604.538 242.772C604.538 242.772 580.141 278.277 571.269 270.776C562.396 263.275 566.935 251.532 594.042 235.141Z" fill="#1C20A6"/>
<path opacity="0.6" d="M594.042 235.141L604.538 242.772C604.538 242.772 580.141 278.277 571.269 270.776C562.396 263.275 566.935 251.532 594.042 235.141Z" fill="white"/>
<path d="M661.336 274.888L662.912 249.432C663.034 246.964 662.304 244.524 660.827 242.459C659.35 240.395 657.2 238.811 654.686 237.935L640.864 233.128C640.864 233.128 641.447 252.242 643.055 274.845L661.336 274.888Z" fill="#1C20A6"/>
<path opacity="0.5" d="M661.336 274.888L662.912 249.432C663.034 246.964 662.304 244.524 660.827 242.459C659.35 240.395 657.2 238.811 654.686 237.935L640.864 233.128C640.864 233.128 641.447 252.242 643.055 274.845L661.336 274.888Z" fill="white"/>
<path d="M648.713 274.888L653.803 261.755L646.16 255.355L654.906 252.951C649.343 237.197 640.328 231.839 640.328 231.839C638.091 241.975 640.328 261.972 642.109 274.888H648.713Z" fill="#1C20A6"/>
<path opacity="0.4" d="M648.713 274.888L653.803 261.755L646.16 255.355L654.906 252.951C649.343 237.197 640.328 231.839 640.328 231.839C638.091 241.975 640.328 261.972 642.109 274.888H648.713Z" fill="white"/>
<path d="M579.148 271.79C580.724 272.34 593.096 273.093 593.096 273.093L595.98 274.888H616.121L595.633 266.012C594.862 263.935 593.315 262.176 591.268 261.045C587.958 259.366 575.918 259.322 575.508 260.321C575.098 261.321 577.588 271.225 579.148 271.79Z" fill="#E4897B"/>
<path d="M609.786 274.888L611.646 271.819L603.986 268.734L601.26 274.888H609.786Z" fill="#263238"/>
<path opacity="0.2" d="M609.786 274.888L611.646 271.819L603.986 268.734L601.26 274.888H609.786Z" fill="white"/>
<path d="M651.439 274.888C660.58 261.755 667.01 245.769 659.54 241.121C659.54 241.121 653.803 239.673 630.116 272.876C630.116 272.876 627.516 278.002 608.052 269.98L605.515 274.903L651.439 274.888Z" fill="#1C20A6"/>
<path opacity="0.6" d="M651.439 274.888C660.58 261.755 667.01 245.769 659.54 241.121C659.54 241.121 653.803 239.673 630.116 272.876C630.116 272.876 627.516 278.002 608.052 269.98L605.515 274.903L651.439 274.888Z" fill="white"/>
<path opacity="0.3" d="M546.352 277.22H415.087V382.895H546.352V277.22Z" fill="white"/>
<path d="M303.396 274.888C306.548 267.344 325.066 252.647 325.066 252.647V237.472C315.61 239.094 292.458 257.396 291.859 274.845L303.396 274.888Z" fill="#1C20A6"/>
<path opacity="0.6" d="M303.396 274.888C304.972 271.297 309.873 266.099 314.648 261.625C319.959 256.701 325.066 252.662 325.066 252.662V237.472C315.61 239.094 292.442 257.396 291.859 274.845L303.396 274.888Z" fill="white"/>
<path opacity="0.2" d="M314.648 261.625C319.96 256.701 325.066 252.662 325.066 252.662V248.245C325.066 248.245 315.957 252.401 314.648 261.625Z" fill="black"/>
<path d="M391.762 274.888C394.126 261.538 396.49 250.533 397.514 245.552C397.683 244.786 397.519 243.991 397.056 243.335C396.594 242.68 395.87 242.218 395.04 242.048C391.652 241.367 388.153 240.788 384.639 240.296C368.741 238.248 352.701 237.28 336.649 237.4C329.526 237.4 325.066 237.588 325.066 237.588C321.819 248.274 319.881 261.581 318.762 274.961L391.762 274.888Z" fill="#1C20A6"/>
<path opacity="0.7" d="M391.778 274.888L391.967 273.773C394.253 260.93 396.459 250.388 397.499 245.552C397.547 245.288 397.547 245.019 397.499 244.755C397.468 244.112 397.205 243.497 396.751 243.007C396.298 242.516 395.679 242.179 394.993 242.048C391.589 241.367 388.106 240.788 384.592 240.296C368.694 238.248 352.655 237.28 336.602 237.4C329.479 237.4 325.019 237.588 325.019 237.588C321.772 248.274 319.834 261.581 318.715 274.961L391.778 274.888Z" fill="white"/>
<path d="M350.691 254.529C371.179 256.528 384.906 240.484 384.906 240.484L384.638 240.296C368.741 238.248 352.701 237.28 336.649 237.4C336.649 237.4 331.417 252.647 350.691 254.529Z" fill="#1C20A6"/>
<path d="M373.386 238.819C367.618 243.64 353.481 241.859 353.481 241.859C353.481 241.859 344.656 239.644 346.499 237.11C351.7 236.314 354.222 234.084 355.262 231.231C355.83 229.466 356.006 227.615 355.782 225.787C355.702 224.762 355.56 223.742 355.357 222.731L372.834 210.843C370.549 218.648 367.744 233.128 373.386 238.819Z" fill="#E4897B"/>
<path opacity="0.2" d="M368.784 218.402C368.09 228.031 359.47 230.695 355.246 231.231C355.814 229.466 355.99 227.615 355.766 225.787L368.784 218.402Z" fill="black"/>
<path d="M370.816 232.708L354.111 239.63L353.118 234.084L346.987 236.024C345.914 236.37 344.999 237.038 344.39 237.921C343.781 238.804 343.513 239.85 343.631 240.889L344.324 246.971L352.803 242.714L357.027 248.202L377.105 239.325L370.816 232.708Z" fill="#1C20A6"/>
<path opacity="0.3" d="M370.816 232.708L354.111 239.63L353.118 234.084L346.987 236.024C345.914 236.37 344.999 237.038 344.39 237.921C343.781 238.804 343.513 239.85 343.631 240.889L344.324 246.971L352.803 242.714L357.027 248.202L377.105 239.325L370.816 232.708Z" fill="white"/>
<path d="M342.118 186.662C342.118 186.662 337.39 201.692 345.381 208.671C353.371 215.651 357.5 187.096 357.5 187.096L342.118 186.662Z" fill="#263238"/>
<path opacity="0.2" d="M342.118 186.662C342.118 186.662 337.39 201.692 345.381 208.671C353.371 215.651 357.5 187.096 357.5 187.096L342.118 186.662Z" fill="white"/>
<path d="M341.992 217.316C342.165 217.852 342.354 218.387 342.575 218.894C344.187 222.588 347.261 225.583 351.18 227.278C354.695 228.829 358.713 229.118 362.448 228.089C365.109 227.32 367.494 225.904 369.351 223.991C375.245 218.112 374.82 211.553 375.072 200.432C375.183 197.834 374.566 195.253 373.282 192.936C371.997 190.619 370.088 188.644 367.735 187.198C365.383 185.753 362.666 184.886 359.845 184.681C357.024 184.475 354.192 184.938 351.621 186.025C339.959 190.846 338.982 207.412 341.992 217.316Z" fill="#E4897B"/>
<path d="M356.853 204.168C356.948 205.051 356.396 205.819 355.75 205.833C355.104 205.848 354.552 205.138 354.505 204.24C354.458 203.343 354.978 202.575 355.608 202.561C356.239 202.546 356.806 203.256 356.853 204.168Z" fill="#263238"/>
<path d="M345.712 204.559C345.822 205.457 345.254 206.224 344.608 206.239C343.962 206.253 343.426 205.544 343.379 204.631C343.332 203.719 343.836 202.981 344.482 202.966C345.128 202.952 345.68 203.705 345.712 204.559Z" fill="#263238"/>
<path d="M349.273 204.892C348.213 207.702 346.733 210.363 344.876 212.798C345.568 213.21 346.348 213.481 347.164 213.59C347.98 213.7 348.812 213.647 349.604 213.435L349.273 204.892Z" fill="#DE5753"/>
<path d="M341.408 200.331C341.498 200.384 341.602 200.412 341.708 200.412C341.814 200.412 341.918 200.384 342.007 200.331C342.6 199.948 343.281 199.695 343.997 199.592C344.713 199.489 345.445 199.539 346.136 199.737C346.206 199.766 346.28 199.781 346.356 199.783C346.432 199.784 346.507 199.772 346.578 199.746C346.648 199.721 346.713 199.682 346.767 199.634C346.821 199.585 346.864 199.526 346.893 199.462C346.951 199.333 346.953 199.188 346.897 199.059C346.841 198.929 346.732 198.824 346.593 198.767C345.728 198.492 344.803 198.41 343.896 198.528C342.989 198.646 342.125 198.962 341.377 199.448C341.248 199.525 341.157 199.646 341.124 199.784C341.092 199.922 341.12 200.067 341.204 200.186C341.259 200.248 341.329 200.297 341.408 200.331Z" fill="#263238"/>
<path d="M358.887 200.012C359.002 200.002 359.111 199.961 359.202 199.896C359.306 199.794 359.364 199.66 359.364 199.52C359.364 199.38 359.306 199.245 359.202 199.143C358.494 198.604 357.654 198.228 356.754 198.049C355.854 197.87 354.921 197.893 354.033 198.115C353.89 198.162 353.773 198.257 353.705 198.381C353.637 198.505 353.625 198.649 353.67 198.781C353.724 198.914 353.831 199.022 353.968 199.084C354.106 199.146 354.265 199.157 354.411 199.114C355.117 198.966 355.851 198.968 356.556 199.121C357.261 199.274 357.918 199.574 358.477 199.998C358.608 200.044 358.752 200.05 358.887 200.012Z" fill="#263238"/>
<path d="M365.632 186.879L364.923 191.773C365.824 192.173 366.527 192.872 366.89 193.729C367.252 194.586 367.248 195.538 366.877 196.392C365.112 200.505 367.586 206.919 371.006 209.497C371.006 209.497 371.132 207.716 372.771 208.15C374.41 208.584 373.843 217.895 370.596 222.297C370.596 222.297 375.482 218.329 378.319 208.584C380.951 199.578 381.345 192.048 379.359 188.544L365.632 186.879Z" fill="#263238"/>
<path d="M351.448 219.271C351.376 219.292 351.299 219.292 351.227 219.271C351.142 219.215 351.083 219.132 351.063 219.037C351.042 218.943 351.062 218.845 351.117 218.764C352.397 217.017 354.323 215.756 356.539 215.216C356.59 215.206 356.644 215.205 356.696 215.214C356.748 215.223 356.798 215.241 356.842 215.269C356.886 215.296 356.924 215.331 356.953 215.371C356.982 215.412 357.002 215.458 357.011 215.506C357.03 215.598 357.01 215.693 356.954 215.771C356.898 215.85 356.811 215.905 356.712 215.926C354.701 216.435 352.953 217.585 351.779 219.169C351.735 219.208 351.683 219.236 351.626 219.254C351.569 219.271 351.508 219.277 351.448 219.271Z" fill="#263238"/>
<path opacity="0.1" d="M345.979 223.803C347.453 225.259 349.219 226.439 351.18 227.278C354.695 228.829 358.714 229.118 362.449 228.089C360.788 226.719 358.767 225.771 356.586 225.338C353.118 224.49 349.563 223.976 345.979 223.803Z" fill="black"/>
<path opacity="0.2" d="M365.632 186.879L364.923 191.773C365.824 192.173 366.527 192.872 366.89 193.729C367.252 194.586 367.248 195.538 366.877 196.392C365.112 200.505 367.586 206.919 371.006 209.497C371.006 209.497 371.132 207.716 372.771 208.15C374.41 208.584 373.843 217.895 370.596 222.297C370.596 222.297 375.482 218.329 378.319 208.584C380.951 199.578 381.345 192.048 379.359 188.544L365.632 186.879Z" fill="white"/>
<path d="M380.194 190.788C380.194 190.788 381.502 184.359 370.486 179.335C359.47 174.31 347.397 180.044 340.037 175.715C332.678 171.385 332.41 189.181 348.138 191.179C358.797 192.315 369.571 192.184 380.194 190.788Z" fill="#263238"/>
<path opacity="0.3" d="M380.194 190.788C380.194 190.788 381.502 184.359 370.486 179.335C359.47 174.31 347.397 180.044 340.037 175.715C332.678 171.385 332.41 189.181 348.138 191.179C358.797 192.315 369.571 192.184 380.194 190.788Z" fill="white"/>
<path d="M380.73 209.366C379.51 211.915 377.245 213.918 374.426 214.941C370.644 216.244 368.406 213.218 369.131 209.772C369.824 206.702 372.598 202.228 376.554 202.43C380.51 202.633 382.212 206.195 380.73 209.366Z" fill="#E4897B"/>
<path d="M362.023 245.204L360.352 237.038C360.352 237.038 363.82 234.026 363.41 231.246C363 228.465 347.65 223.861 344.876 223.673C342.102 223.484 343.19 233.678 344.025 235.546C344.86 237.414 354.111 239.644 354.111 239.644L355.262 248.26L362.023 245.204Z" fill="#E4897B"/>
<path opacity="0.2" d="M389.698 274.888C390.502 274.526 391.274 274.15 391.967 273.773C394.253 260.93 396.459 250.388 397.499 245.552C397.547 245.288 397.547 245.019 397.499 244.755C387.539 254.081 372.031 269.676 373.859 274.888H389.698Z" fill="black"/>
<path d="M384.292 274.888C395.75 265.447 405.71 252.43 398.665 243.64C392.487 235.908 376.601 263.912 371.763 265.838C366.925 267.764 362.732 242.077 362.732 242.077L353.276 244.654C353.276 244.654 355.01 263.16 359.864 274.888H384.292Z" fill="#1C20A6"/>
<path opacity="0.6" d="M384.292 274.888C395.75 265.447 405.71 252.43 398.665 243.64C392.487 235.908 376.601 263.912 371.763 265.838C366.925 267.764 362.732 242.077 362.732 242.077L353.276 244.654C353.276 244.654 355.01 263.16 359.864 274.888H384.292Z" fill="white"/>
<path d="M455.716 274.888C459.041 271.804 461.201 269.632 461.201 269.632L459.372 243.959C454.109 246.536 438.333 265.882 430.043 274.888H455.716Z" fill="#1C20A6"/>
<path opacity="0.5" d="M455.716 274.888C459.041 271.804 461.201 269.632 461.201 269.632L459.372 243.959C454.109 246.536 438.333 265.882 430.043 274.888H455.716Z" fill="white"/>
<path opacity="0.2" d="M455.7 274.888C459.041 271.804 461.2 269.632 461.2 269.632L460.775 263.536L458.616 257.628C453.762 262.257 451.099 268.462 451.208 274.888H455.7Z" fill="black"/>
<path d="M510.955 274.888C511.727 272.34 512.531 269.632 513.603 266.678C514.674 263.724 515.636 260.756 516.833 257.44C517.727 254.94 518.709 252.285 519.781 249.476C513.383 247.598 506.847 246.146 500.222 245.132C493.245 243.99 486.187 243.308 479.104 243.09C469.947 243.09 459.404 243.959 459.404 243.959C459.404 243.959 457.828 244.292 456.961 253.226C456.504 257.73 456.047 264.68 456.016 274.946L510.955 274.888Z" fill="#1C20A6"/>
<path opacity="0.5" d="M510.955 274.888C511.727 272.34 512.531 269.632 513.603 266.678C514.674 263.724 515.636 260.756 516.833 257.44C517.727 254.94 518.709 252.285 519.781 249.476C513.383 247.598 506.847 246.146 500.222 245.132C493.245 243.99 486.187 243.308 479.104 243.09C469.947 243.09 459.404 243.959 459.404 243.959C459.404 243.959 457.828 244.292 456.961 253.226C456.504 257.73 456.047 264.68 456.016 274.946L510.955 274.888Z" fill="white"/>
<path d="M481.673 274.888L494.596 253.632L479.655 261.321L470.987 251.329L474.155 274.888H481.673Z" fill="#263238"/>
<path d="M495.1 242.439C503.642 244.292 506.227 250.576 505.281 256.296L499.056 254.385C491.882 256.77 485.151 260.16 479.104 264.434C479.104 264.434 474.376 256.47 469.868 253.863L463.47 254.558C463.47 254.558 473.446 237.776 495.1 242.439Z" fill="#263238"/>
<path opacity="0.1" d="M495.1 242.439C503.642 244.292 506.227 250.576 505.281 256.296L499.056 254.385C491.882 256.77 485.151 260.16 479.104 264.434C479.104 264.434 474.376 256.47 469.868 253.863L463.47 254.558C463.47 254.558 473.446 237.776 495.1 242.439Z" fill="white"/>
<path d="M479.609 244.944C480.069 244.719 480.548 244.53 481.043 244.379C482.13 243.597 483.454 241.686 483.391 237.139C483.341 235.324 483.157 233.515 482.839 231.723L496.819 229.334C496.819 229.334 492.091 238.022 496.031 244.379C497.386 244.944 498.205 245.74 498.064 246.783C497.008 254.196 479.656 261.378 479.656 261.378C479.656 261.378 471.224 249.201 479.609 244.944Z" fill="#EEC1BB"/>
<path opacity="0.2" d="M482.839 231.68C483.156 233.472 483.34 235.281 483.39 237.096C492.846 237.096 496.818 229.291 496.818 229.291L482.839 231.68Z" fill="black"/>
<path d="M489.08 189.312C489.08 189.312 472.689 187.4 469.664 199.448C468.799 202.887 469.014 206.481 470.283 209.813C471.552 213.145 473.824 216.078 476.834 218.272L489.08 189.312Z" fill="#263238"/>
<path d="M490.562 195.77C478.411 195.161 474.155 200.939 472.579 212.393C470.609 226.713 473.462 237.096 488.844 234.793C509.71 231.68 510.734 196.783 490.562 195.77Z" fill="#EEC1BB"/>
<path d="M480.459 212.161C479.392 213.777 478.117 215.27 476.661 216.606C476.987 217.094 477.455 217.487 478.012 217.743C478.569 217.999 479.193 218.107 479.813 218.054L480.459 212.161Z" fill="#D4827D"/>
<path d="M487.961 211.625C487.882 212.537 488.355 213.319 489.017 213.363C489.679 213.406 490.277 212.711 490.356 211.799C490.435 210.887 489.962 210.105 489.3 210.047C488.638 209.989 488.04 210.713 487.961 211.625Z" fill="#263238"/>
<path d="M489.569 210.119L487.473 209.178C487.473 209.178 488.403 210.93 489.569 210.119Z" fill="#263238"/>
<path d="M475.574 210.539C475.574 211.451 475.984 212.233 476.646 212.291C477.308 212.349 477.907 211.625 477.985 210.713C478.064 209.801 477.591 209.019 476.93 208.975C476.268 208.932 475.653 209.627 475.574 210.539Z" fill="#263238"/>
<path d="M477.197 209.033L475.101 208.092C475.101 208.092 476.03 209.859 477.197 209.033Z" fill="#263238"/>
<path d="M493.698 206.369C493.614 206.369 493.532 206.351 493.458 206.315C493.384 206.28 493.32 206.229 493.272 206.166C492.679 205.565 491.946 205.095 491.127 204.792C490.308 204.488 489.425 204.359 488.544 204.414C488.404 204.419 488.266 204.376 488.159 204.293C488.051 204.21 487.98 204.093 487.961 203.965C487.952 203.833 488 203.703 488.094 203.603C488.189 203.503 488.322 203.441 488.465 203.43C489.524 203.36 490.585 203.519 491.565 203.894C492.544 204.269 493.415 204.848 494.107 205.587C494.19 205.694 494.225 205.825 494.205 205.955C494.184 206.085 494.11 206.202 493.997 206.282C493.906 206.333 493.804 206.362 493.698 206.369Z" fill="#263238"/>
<path d="M474.833 204.168C474.74 204.167 474.65 204.144 474.569 204.1C474.489 204.057 474.423 203.996 474.376 203.922C474.339 203.866 474.315 203.804 474.305 203.739C474.294 203.674 474.298 203.608 474.315 203.545C474.333 203.482 474.364 203.422 474.407 203.37C474.45 203.318 474.504 203.274 474.565 203.241C475.349 202.76 476.24 202.447 477.173 202.324C478.105 202.201 479.056 202.272 479.955 202.532C480.02 202.558 480.077 202.596 480.126 202.643C480.174 202.691 480.211 202.746 480.236 202.807C480.261 202.867 480.273 202.931 480.271 202.996C480.268 203.061 480.252 203.124 480.223 203.183C480.199 203.244 480.162 203.3 480.113 203.347C480.064 203.394 480.005 203.431 479.94 203.455C479.874 203.48 479.804 203.492 479.733 203.49C479.663 203.488 479.593 203.472 479.53 203.444C478.788 203.244 478.007 203.199 477.243 203.312C476.48 203.425 475.754 203.692 475.117 204.096C475.03 204.139 474.933 204.164 474.833 204.168Z" fill="#263238"/>
<path d="M502.744 215.245C502.744 215.245 497.622 205.79 498.899 198.752C498.899 198.752 475.369 188.501 472.832 210.901C472.832 210.901 471.681 190.846 492.579 191.455C513.477 192.063 511.727 220.125 500.459 227.944C500.412 227.944 505.896 221.153 502.744 215.245Z" fill="#263238"/>
<path d="M486.984 188.443C486.984 188.443 477.008 186.184 474.171 188.616C471.334 191.049 491.507 208.179 502.066 209.902C502.066 209.902 505.644 220.632 502.807 225.656C502.807 225.656 514.69 221.848 515.241 205.225C515.793 188.602 496.802 182.448 486.984 188.443Z" fill="#263238"/>
<path d="M500.6 217.504C500.695 216.867 500.926 216.253 501.279 215.698C501.632 215.143 502.101 214.657 502.659 214.268C503.217 213.88 503.852 213.596 504.529 213.433C505.206 213.27 505.912 213.232 506.605 213.319C510.34 213.884 511.711 221.081 502.239 222.311C500.884 222.485 500.206 221.24 500.6 217.504Z" fill="#EEC1BB"/>
<path d="M505.896 195.017C505.896 195.017 510.041 185.33 521.152 186.01C532.263 186.691 533.965 202.633 528.118 214.405C522.271 226.178 526.243 229.986 526.243 229.986C526.243 229.986 520.017 229.291 520.017 218.735C519.677 220.97 519.551 223.228 519.639 225.483C519.639 225.483 515.494 220.11 519.45 209.902C523.406 199.694 510.782 204.371 510.782 204.371L505.896 195.017Z" fill="#263238"/>
<path d="M494.533 210.221C494.476 210.234 494.416 210.234 494.36 210.221C480.176 205.529 474.675 189.818 474.612 189.659C474.573 189.532 474.588 189.396 474.656 189.28C474.724 189.164 474.838 189.076 474.975 189.036C475.042 189.016 475.113 189.008 475.183 189.013C475.254 189.018 475.323 189.036 475.386 189.066C475.449 189.096 475.505 189.136 475.551 189.186C475.596 189.236 475.631 189.293 475.652 189.355C475.652 189.514 481.011 204.762 494.722 209.294C494.857 209.34 494.966 209.432 495.028 209.551C495.09 209.67 495.099 209.806 495.053 209.931C495.008 210.022 494.935 210.098 494.842 210.15C494.749 210.202 494.641 210.226 494.533 210.221Z" fill="#263238"/>
<path d="M482.666 225.121H482.256C482.185 225.121 482.115 225.107 482.05 225.082C481.985 225.056 481.926 225.018 481.877 224.971C481.828 224.923 481.791 224.867 481.766 224.806C481.742 224.744 481.732 224.679 481.736 224.614C481.744 224.482 481.808 224.358 481.914 224.269C482.02 224.18 482.16 224.132 482.304 224.136C484.751 224.131 487.102 223.253 488.86 221.689C488.96 221.597 489.096 221.545 489.238 221.545C489.38 221.545 489.516 221.597 489.616 221.689C489.716 221.781 489.773 221.906 489.773 222.036C489.773 222.167 489.716 222.292 489.616 222.384C487.758 224.068 485.276 225.046 482.666 225.121Z" fill="#263238"/>
<path d="M484.415 216.23C483.749 216.276 483.082 216.137 482.503 215.83C481.923 215.524 481.458 215.063 481.168 214.51C480.877 213.957 480.775 213.336 480.875 212.728C480.975 212.12 481.271 211.555 481.726 211.104C482.181 210.654 482.774 210.34 483.426 210.204C484.078 210.068 484.759 210.115 485.382 210.341C486.004 210.566 486.538 210.958 486.914 211.466C487.289 211.974 487.49 212.575 487.489 213.189C487.51 213.575 487.447 213.962 487.303 214.325C487.159 214.689 486.937 215.022 486.65 215.305C486.364 215.589 486.019 215.817 485.635 215.975C485.251 216.134 484.836 216.221 484.415 216.23ZM484.415 210.872C483.905 210.825 483.392 210.922 482.942 211.148C482.493 211.375 482.129 211.722 481.898 212.142C481.667 212.563 481.58 213.038 481.649 213.505C481.718 213.972 481.939 214.408 482.283 214.757C482.627 215.107 483.079 215.352 483.578 215.46C484.077 215.569 484.6 215.536 485.078 215.367C485.556 215.197 485.967 214.898 486.257 214.509C486.547 214.12 486.701 213.66 486.701 213.189C486.731 212.604 486.507 212.031 486.079 211.597C485.65 211.163 485.052 210.902 484.415 210.872Z" fill="#263238"/>
<path d="M474.896 215.752C474.232 215.784 473.573 215.632 473.004 215.316C472.435 215.001 471.982 214.535 471.703 213.981C471.425 213.426 471.334 212.807 471.442 212.204C471.55 211.602 471.852 211.042 472.309 210.599C472.767 210.156 473.358 209.848 474.008 209.717C474.657 209.586 475.334 209.636 475.952 209.862C476.57 210.088 477.1 210.479 477.473 210.984C477.847 211.489 478.047 212.086 478.048 212.697C478.072 213.09 478.008 213.484 477.86 213.854C477.712 214.224 477.484 214.562 477.189 214.848C476.894 215.134 476.538 215.362 476.144 215.517C475.75 215.673 475.325 215.753 474.896 215.752ZM474.896 210.38C474.386 210.336 473.874 210.435 473.426 210.664C472.979 210.893 472.617 211.24 472.389 211.661C472.16 212.083 472.076 212.557 472.147 213.023C472.218 213.489 472.44 213.925 472.785 214.272C473.131 214.62 473.582 214.864 474.081 214.971C474.58 215.078 475.102 215.044 475.579 214.874C476.056 214.703 476.466 214.404 476.755 214.016C477.044 213.627 477.198 213.167 477.197 212.697C477.21 212.119 476.977 211.559 476.547 211.137C476.117 210.715 475.525 210.464 474.896 210.438V210.38Z" fill="#263238"/>
<path d="M481.736 213.551C481.66 213.554 481.585 213.537 481.521 213.501C481.456 213.465 481.405 213.412 481.373 213.348C481.233 213.077 481.033 212.835 480.787 212.638C480.54 212.441 480.251 212.294 479.939 212.204C479.546 212.183 479.154 212.247 478.792 212.39C478.431 212.534 478.111 212.753 477.859 213.03C477.782 213.097 477.681 213.135 477.575 213.135C477.469 213.135 477.368 213.097 477.291 213.03C477.219 212.962 477.179 212.871 477.179 212.776C477.179 212.682 477.219 212.591 477.291 212.523C477.634 212.166 478.064 211.889 478.547 211.715C479.029 211.542 479.55 211.476 480.065 211.524C480.5 211.635 480.904 211.831 481.249 212.099C481.594 212.366 481.873 212.698 482.067 213.073C482.09 213.116 482.104 213.162 482.107 213.21C482.11 213.257 482.103 213.305 482.085 213.35C482.067 213.395 482.04 213.436 482.004 213.47C481.968 213.505 481.925 213.532 481.878 213.551H481.736Z" fill="#263238"/>
<path d="M487.094 213.551C486.992 213.551 486.894 213.515 486.821 213.45C486.748 213.385 486.704 213.297 486.7 213.204C486.7 213.108 486.739 213.017 486.809 212.947C486.879 212.877 486.975 212.834 487.078 212.827C487.709 212.827 502.192 212.407 503.973 212.48C504.079 212.487 504.178 212.532 504.248 212.605C504.319 212.678 504.356 212.773 504.351 212.87C504.343 212.964 504.296 213.051 504.22 213.113C504.143 213.175 504.044 213.208 503.942 213.204C502.177 213.131 487.268 213.551 487.11 213.551H487.094Z" fill="#263238"/>
<path d="M531.396 274.888C525.659 261.045 519.781 249.476 519.781 249.476C519.781 249.476 510.183 262.305 509.316 274.888H531.396Z" fill="#1C20A6"/>
<path opacity="0.5" d="M531.396 274.888C525.659 261.045 519.781 249.476 519.781 249.476C519.781 249.476 510.183 262.305 509.316 274.888H531.396Z" fill="white"/>
<path d="M534.988 382.909C531.836 374.974 528.684 368.255 528.684 368.255L515.509 378.855L517.81 382.909H534.988Z" fill="#E4897B"/>
<path d="M441.957 382.909C445.109 379.405 447.331 376.828 447.331 376.828L434.455 367.01C434.455 367.01 428.151 375.944 423.014 382.938L441.957 382.909Z" fill="#E4897B"/>
<path d="M445.109 382.909L452.753 377.986L449.79 345.29C440.05 346.738 425.897 372.802 425.897 372.802L436.929 382.938L445.109 382.909Z" fill="#1C20A6"/>
<path opacity="0.2" d="M436.945 382.909H445.109L450.593 379.376L452.753 377.928L449.79 345.218C440.05 346.753 425.897 372.73 425.897 372.73L435.637 381.606L436.945 382.909Z" fill="white"/>
<path d="M439.341 382.909L425.898 369.95L423.581 373.512L434.345 382.909H439.341Z" fill="#1C20A6"/>
<path opacity="0.2" d="M445.109 382.909L450.594 379.376L447.994 365.2C447.994 365.2 437.813 371.108 435.638 381.707L436.946 382.909H445.109Z" fill="black"/>
<path d="M516.36 382.909C519.607 364.491 522.775 350.474 522.775 350.474C491.586 343.552 449.711 345.29 449.711 345.29C446.433 356.034 444.495 369.428 443.407 382.938L516.36 382.909Z" fill="#1C20A6"/>
<path opacity="0.2" d="M516.36 382.909C516.581 381.62 516.802 380.346 517.022 379.101C520.032 362.594 522.775 350.474 522.775 350.474C491.586 343.552 449.711 345.29 449.711 345.29C446.433 356.034 444.51 369.428 443.407 382.938L516.36 382.909Z" fill="white"/>
<path opacity="0.2" d="M516.36 382.909C516.581 381.62 516.802 380.346 517.022 379.101L512.42 375.133C511.306 377.616 510.594 380.236 510.309 382.909H516.36Z" fill="black"/>
<path d="M467.473 382.909H472.421C472.961 374.621 474.242 366.388 476.251 358.293L484.998 351.719L478.111 349.678L471.807 349.996L473.493 357.598C473.493 357.598 470.499 369.24 467.473 382.909Z" fill="#263238"/>
<path d="M498.015 346.593C492.247 351.415 478.094 349.634 478.094 349.634C478.094 349.634 469.269 347.404 471.129 344.87C476.329 344.088 478.851 341.858 479.875 339.078C480.448 337.31 480.63 335.453 480.411 333.619C480.327 332.599 480.18 331.583 479.97 330.578L497.463 318.676C495.178 326.452 492.373 340.903 498.015 346.593Z" fill="#E4897B"/>
<path opacity="0.2" d="M493.429 326.162C492.736 335.806 484.115 338.456 479.892 339.006C480.464 337.237 480.647 335.381 480.427 333.547L493.429 326.162Z" fill="black"/>
<path d="M495.447 340.468L478.741 347.404L477.764 341.844L471.618 343.828C470.546 344.174 469.632 344.843 469.026 345.726C468.42 346.609 468.156 347.655 468.277 348.693L468.97 354.789L477.449 350.445L481.673 355.933L501.735 347.057L495.447 340.468Z" fill="#1C20A6"/>
<path opacity="0.3" d="M495.447 340.468L478.741 347.404L477.764 341.844L471.618 343.828C470.546 344.174 469.632 344.843 469.026 345.726C468.42 346.609 468.156 347.655 468.277 348.693L468.97 354.789L477.449 350.445L481.673 355.933L501.735 347.057L495.447 340.468Z" fill="white"/>
<path d="M461.626 296.29C461.626 296.29 459.026 311.754 467.93 317.735C476.834 323.715 476.945 294.914 476.945 294.914L461.626 296.29Z" fill="#263238"/>
<path d="M493.855 330.144C491.972 332.686 489.233 334.59 486.06 335.566C482.886 336.541 479.451 336.534 476.282 335.545C472.171 334.345 468.708 331.758 466.59 328.305C466.295 327.835 466.027 327.352 465.786 326.857C461.421 317.387 460.065 300.793 470.971 294.682C473.375 293.325 476.117 292.552 478.936 292.439C481.756 292.325 484.56 292.874 487.084 294.034C489.609 295.193 491.769 296.925 493.362 299.066C494.955 301.206 495.927 303.685 496.187 306.266C497.543 317.112 498.882 323.57 493.855 330.144Z" fill="#E4897B"/>
<path d="M478.678 311.928C478.914 312.811 478.473 313.622 477.827 313.724C477.181 313.825 476.55 313.173 476.377 312.276C476.204 311.378 476.598 310.582 477.228 310.495C477.858 310.408 478.505 311.03 478.678 311.928Z" fill="#263238"/>
<path d="M467.693 313.622C467.93 314.506 467.473 315.316 466.842 315.418C466.212 315.519 465.55 314.853 465.392 313.97C465.235 313.087 465.613 312.276 466.243 312.174C466.874 312.073 467.536 312.768 467.693 313.622Z" fill="#263238"/>
<path d="M471.223 313.521C470.564 316.43 469.471 319.241 467.977 321.876C468.712 322.2 469.515 322.376 470.33 322.391C471.146 322.406 471.956 322.26 472.705 321.963L471.223 313.521Z" fill="#DE5753"/>
<path d="M462.84 309.944C462.939 309.972 463.043 309.977 463.145 309.959C463.246 309.941 463.341 309.901 463.423 309.843C463.958 309.393 464.599 309.062 465.296 308.877C465.993 308.691 466.727 308.655 467.442 308.772C467.515 308.791 467.592 308.797 467.668 308.788C467.744 308.78 467.817 308.757 467.884 308.722C467.95 308.687 468.008 308.64 468.054 308.584C468.099 308.528 468.133 308.463 468.151 308.395C468.19 308.261 468.171 308.118 468.097 307.996C468.024 307.874 467.902 307.784 467.757 307.743C466.858 307.572 465.927 307.599 465.042 307.823C464.157 308.047 463.343 308.462 462.666 309.032C462.558 309.132 462.498 309.268 462.498 309.409C462.498 309.55 462.558 309.685 462.666 309.785C462.713 309.848 462.772 309.902 462.84 309.944Z" fill="#263238"/>
<path d="M480.128 307.555C480.241 307.534 480.344 307.483 480.427 307.41C480.505 307.289 480.529 307.144 480.494 307.006C480.458 306.869 480.367 306.749 480.238 306.672C479.461 306.221 478.577 305.948 477.66 305.878C476.744 305.807 475.823 305.94 474.975 306.266C474.838 306.329 474.733 306.438 474.683 306.571C474.632 306.704 474.641 306.849 474.707 306.976C474.777 307.099 474.897 307.192 475.042 307.236C475.186 307.279 475.343 307.269 475.479 307.208C476.159 306.975 476.887 306.89 477.609 306.957C478.33 307.025 479.025 307.245 479.639 307.599C479.719 307.625 479.805 307.635 479.889 307.628C479.974 307.62 480.055 307.596 480.128 307.555Z" fill="#263238"/>
<path d="M484.982 293.741V298.679C485.929 298.972 486.72 299.582 487.199 300.387C487.678 301.192 487.81 302.133 487.567 303.023C486.385 307.295 489.742 313.376 493.477 315.534C493.477 315.534 493.367 313.738 495.053 313.984C496.739 314.23 497.496 323.512 494.88 328.276C494.88 328.276 499.166 323.758 500.632 313.796C501.972 304.543 501.326 297.043 498.867 293.799L484.982 293.741Z" fill="#263238"/>
<path d="M503.106 314.216C502.234 316.902 500.24 319.162 497.559 320.5C493.997 322.252 491.334 319.501 491.586 315.997C491.854 312.884 493.981 308.12 497.89 307.845C501.798 307.57 504.131 310.958 503.106 314.216Z" fill="#E4897B"/>
<path d="M474.092 324.671C474.935 325.85 475.683 327.084 476.33 328.363L477.118 328.16C480.648 327.219 481.94 325.699 482.303 324.323C482.471 323.641 482.471 322.934 482.303 322.252C482.202 321.867 482.043 321.497 481.83 321.152C479.939 322.629 477.724 323.715 475.337 324.338C474.565 324.569 474.092 324.671 474.092 324.671Z" fill="#263238"/>
<path d="M475.29 324.352L475.983 325.424C479.309 324.526 481.499 323.483 482.287 322.267C482.187 321.882 482.027 321.511 481.815 321.166C479.914 322.647 477.689 323.733 475.29 324.352Z" fill="white"/>
<path d="M477.118 328.16C480.648 327.219 481.941 325.699 482.303 324.323C480.967 324.701 479.718 325.3 478.615 326.09C477.893 326.619 477.37 327.343 477.118 328.16Z" fill="#DE5753"/>
<path d="M492.168 311.769L490.592 310.915C490.592 310.915 491.585 316.837 489.536 318.502C489.536 318.502 482.444 319.197 479.97 319.805C478.273 320.411 476.869 321.557 476.014 323.034C476.014 323.034 470.451 321.948 468.04 325.786C466.038 324.144 464.456 322.117 463.406 319.849C463.406 319.849 463.595 330.68 470.199 336.443C476.802 342.206 487.535 339.339 492.578 334.836C497.621 330.332 492.168 311.769 492.168 311.769ZM487.44 328.841C487.015 329.421 486.431 329.889 485.748 330.198C485.065 330.507 484.306 330.646 483.546 330.602C482.786 330.558 482.052 330.333 481.416 329.947C480.781 329.562 480.266 329.031 479.923 328.406L477.716 329.521C477.716 329.521 480.143 331.404 478.299 333.141C476.456 334.879 470.75 334.256 470.167 329.261C469.584 324.265 476.471 323.7 476.471 323.7C477.33 322.904 478.354 322.274 479.483 321.848C480.612 321.423 481.823 321.211 483.043 321.224C483.993 321.26 484.915 321.522 485.721 321.985C486.526 322.448 487.187 323.095 487.637 323.864C488.087 324.633 488.312 325.496 488.288 326.369C488.265 327.241 487.994 328.093 487.503 328.841H487.44Z" fill="#263238"/>
<path d="M484.966 298.679C484.966 298.679 458.174 307.077 461.326 290.483C461.326 290.483 475.778 282.664 488.37 284.851C500.963 287.037 499.985 299.041 499.985 299.041L484.966 298.679Z" fill="#263238"/>
<path d="M538.44 382.909C536.864 378.189 528.023 352.993 522.775 350.474C519.675 353.16 517.184 356.383 515.446 359.958C511.869 366.648 511.097 380.057 511.097 380.057L513.413 382.953L538.44 382.909Z" fill="#1C20A6"/>
<path opacity="0.2" d="M538.44 382.909C536.864 378.189 528.023 352.993 522.775 350.474C519.675 353.16 517.184 356.383 515.446 359.958C511.869 366.648 511.097 380.057 511.097 380.057L513.413 382.953L538.44 382.909Z" fill="white"/>
<path opacity="0.6" d="M680.643 277.22H549.378V382.895H680.643V277.22Z" fill="white"/>
<path d="M582.316 382.909C587.28 378.478 590.748 374.974 590.748 374.974L588.919 349.316C583.057 352.212 564.097 375.93 557.053 382.909H582.316Z" fill="#263238"/>
<path opacity="0.3" d="M582.316 382.909C587.28 378.478 590.748 374.974 590.748 374.974L588.919 349.316C583.057 352.212 564.097 375.93 557.053 382.909H582.316Z" fill="white"/>
<path opacity="0.2" d="M582.317 382.909C587.281 378.493 590.748 374.974 590.748 374.974L590.323 368.892L588.227 362.97C585.485 365.591 583.416 368.741 582.17 372.191C580.924 375.641 580.533 379.303 581.024 382.909H582.317Z" fill="black"/>
<path d="M641.747 315.983C640.392 320.761 647.831 333.967 644.82 357.975C641.81 381.982 613.127 380.534 600.235 372.455C587.344 364.375 589.582 320.993 594.01 312.42C598.439 303.848 641.747 315.983 641.747 315.983Z" fill="#263238"/>
<path d="M639.715 382.909C640.66 379.622 641.795 376.017 643.15 372.02C644.117 369.124 645.194 366.05 646.381 362.796C647.285 360.335 648.262 357.656 649.312 354.76C642.913 352.889 636.377 351.437 629.754 350.416C622.764 349.287 615.697 348.605 608.604 348.374C599.448 348.374 588.904 349.258 588.904 349.258C588.904 349.258 587.407 349.576 586.477 358.51C585.973 363.405 585.469 371.166 585.532 382.851L639.715 382.909Z" fill="#263238"/>
<path opacity="0.3" d="M639.715 382.909C640.66 379.622 641.795 376.017 643.15 372.02C644.117 369.124 645.194 366.05 646.381 362.796C647.285 360.335 648.262 357.656 649.312 354.76C642.913 352.889 636.377 351.437 629.754 350.416C622.764 349.287 615.697 348.605 608.604 348.374C599.448 348.374 588.904 349.258 588.904 349.258C588.904 349.258 587.407 349.576 586.477 358.51C585.973 363.405 585.469 371.166 585.532 382.851L639.715 382.909Z" fill="white"/>
<path d="M617.083 347.187C622.741 347.506 631.787 347.448 637.571 355.759H626.854L632.686 362.304C632.686 362.304 613.915 366.416 608.053 377.725C608.053 377.725 599.637 364.317 595.066 361.204C597.854 358.653 601.041 356.501 604.522 354.818C601.489 353.628 598.316 352.763 595.066 352.24C595.066 352.24 609.44 346.767 617.083 347.187Z" fill="white"/>
<path d="M627.61 352.067C627.61 352.067 613.079 367.126 608.588 374.395C606.546 366.442 606.757 358.142 609.202 350.286L627.61 352.067Z" fill="#1C20A6"/>
<path opacity="0.6" d="M627.61 352.067C627.61 352.067 613.079 367.126 608.588 374.395C606.546 366.442 606.757 358.142 609.202 350.286L627.61 352.067Z" fill="white"/>
<path d="M612.513 357.989C624.128 356.628 627.611 352.067 627.611 352.067C620.235 345.681 626.366 334.691 626.366 334.691L612.386 337.094C612.704 338.881 612.889 340.686 612.938 342.495C613.033 350.286 609.203 350.358 609.203 350.358C606.76 354.514 612.513 357.989 612.513 357.989Z" fill="#EEC1BB"/>
<path opacity="0.2" d="M612.387 337.022C612.705 338.809 612.889 340.613 612.938 342.423C622.394 342.423 626.366 334.618 626.366 334.618L612.387 337.022Z" fill="black"/>
<path d="M620.108 301.184C607.958 300.576 603.702 306.353 602.126 317.807C600.156 332.128 603.009 342.51 618.391 340.208C639.257 337.008 640.281 302.125 620.108 301.184Z" fill="#EEC1BB"/>
<path d="M610.006 317.503C608.942 319.126 607.667 320.624 606.208 321.963C606.534 322.45 607.002 322.844 607.559 323.1C608.116 323.355 608.74 323.463 609.36 323.411L610.006 317.503Z" fill="#D4827D"/>
<path d="M617.509 316.967C617.43 317.894 617.903 318.661 618.564 318.719C619.226 318.777 619.825 318.053 619.904 317.141C619.983 316.229 619.51 315.447 618.848 315.403C618.186 315.36 617.587 316.055 617.509 316.967Z" fill="#263238"/>
<path d="M619.116 315.461L617.02 314.535C617.02 314.535 617.949 316.287 619.116 315.461Z" fill="#263238"/>
<path d="M605.184 315.896C605.106 316.808 605.578 317.59 606.24 317.633C606.902 317.677 607.501 316.982 607.58 316.069C607.659 315.157 607.186 314.361 606.524 314.317C605.862 314.274 605.184 314.969 605.184 315.896Z" fill="#263238"/>
<path d="M606.76 314.39L604.664 313.449C604.664 313.449 605.578 315.201 606.76 314.39Z" fill="#263238"/>
<path d="M623.261 311.725C623.173 311.728 623.087 311.709 623.009 311.671C622.932 311.633 622.867 311.577 622.82 311.508C622.228 310.906 621.495 310.437 620.675 310.136C619.856 309.834 618.972 309.71 618.092 309.771C617.949 309.775 617.81 309.73 617.702 309.644C617.593 309.558 617.525 309.438 617.509 309.307C617.5 309.175 617.548 309.045 617.642 308.945C617.736 308.845 617.87 308.783 618.013 308.772C619.071 308.703 620.132 308.863 621.112 309.238C622.091 309.612 622.962 310.191 623.655 310.929C623.738 311.036 623.773 311.167 623.752 311.297C623.732 311.427 623.657 311.544 623.545 311.624C623.462 311.68 623.364 311.715 623.261 311.725Z" fill="#263238"/>
<path d="M604.38 309.524C604.287 309.523 604.196 309.5 604.116 309.457C604.036 309.414 603.97 309.352 603.923 309.278C603.886 309.222 603.862 309.16 603.851 309.096C603.841 309.031 603.845 308.965 603.862 308.902C603.88 308.838 603.911 308.779 603.954 308.727C603.997 308.674 604.051 308.631 604.112 308.598C604.892 308.109 605.784 307.793 606.719 307.672C607.654 307.552 608.606 307.631 609.502 307.903C609.632 307.957 609.734 308.055 609.787 308.176C609.84 308.298 609.839 308.433 609.786 308.554C609.727 308.673 609.62 308.767 609.488 308.816C609.356 308.864 609.209 308.864 609.077 308.815C608.337 308.607 607.555 308.556 606.79 308.667C606.026 308.777 605.299 309.046 604.664 309.452C604.577 309.496 604.48 309.521 604.38 309.524Z" fill="#263238"/>
<path d="M610.842 327.871C611.337 329.156 611.732 330.472 612.024 331.809C612.286 331.824 612.549 331.824 612.812 331.809C616.374 331.664 617.965 330.52 618.659 329.29C618.972 328.679 619.128 328.01 619.116 327.335C619.117 326.954 619.064 326.574 618.958 326.205C616.811 327.195 614.456 327.749 612.055 327.827L610.842 327.871Z" fill="#263238"/>
<path d="M612.056 327.798L612.434 328.957C615.775 328.797 618.123 328.291 619.116 327.306C619.118 326.925 619.065 326.545 618.959 326.176C616.811 327.166 614.457 327.72 612.056 327.798Z" fill="white"/>
<path d="M612.812 331.78C616.373 331.635 617.965 330.492 618.658 329.261C617.304 329.339 615.975 329.638 614.734 330.144C613.923 330.491 613.25 331.063 612.812 331.78Z" fill="#DE5753"/>
<path d="M632.276 320.587C632.276 320.587 627.138 311.132 628.415 304.094C628.415 304.094 604.885 293.857 602.363 316.243C602.363 316.243 601.197 296.188 622.095 296.797C642.993 297.405 641.243 325.467 629.975 333.286C629.959 333.286 635.444 326.509 632.276 320.587Z" fill="#263238"/>
<path d="M630.148 322.904C630.243 322.267 630.474 321.653 630.827 321.098C631.18 320.543 631.649 320.057 632.207 319.668C632.764 319.28 633.4 318.996 634.077 318.833C634.754 318.67 635.459 318.632 636.153 318.719C639.888 319.284 641.259 326.481 631.787 327.711C630.4 327.842 629.754 326.596 630.148 322.904Z" fill="#EEC1BB"/>
<path d="M625.183 302.994C624.36 312.224 626.845 321.449 632.259 329.261C639.099 338.745 631.251 347.042 631.251 347.042C631.251 347.042 647.468 341.902 640.392 320.761C640.392 320.761 648.019 301.865 633.016 296.782C633.016 296.782 632.937 290.99 619.368 292.12C605.798 293.249 594.892 303.892 592.812 317.503C590.732 331.114 598.47 346.304 598.47 346.304C598.47 346.304 590.259 298.056 625.183 302.994Z" fill="#263238"/>
<path d="M625.94 303.211C625.046 306.445 624.706 309.786 624.931 313.116C625.144 316.487 625.731 319.83 626.681 323.092C627.626 326.378 628.996 329.547 630.762 332.533C632.493 335.545 634.824 338.232 637.634 340.454C634.723 338.307 632.275 335.68 630.416 332.707C628.517 329.745 627.009 326.585 625.924 323.295C624.818 319.995 624.09 316.598 623.749 313.159C623.379 309.673 623.607 306.154 624.427 302.733L625.94 303.211Z" fill="#263238"/>
<path opacity="0.2" d="M639.714 382.909C639.919 382.214 640.124 381.461 640.345 380.795C638.879 376.075 637.366 379.767 637.366 379.767C637.122 380.804 636.943 381.853 636.83 382.909H639.714Z" fill="black"/>
<path d="M660.218 382.909C654.733 369.472 649.312 354.76 649.312 354.76C638.059 358.843 637.444 379.999 637.444 379.999L639.209 382.895L660.218 382.909Z" fill="#263238"/>
<path opacity="0.3" d="M660.218 382.909C654.733 369.472 649.312 354.76 649.312 354.76C638.059 358.843 637.444 379.999 637.444 379.999L639.209 382.895L660.218 382.909Z" fill="white"/>
<path opacity="0.5" d="M412.077 277.22H280.812V382.895H412.077V277.22Z" fill="white"/>
<path d="M348.249 294.407L335.073 306.527H332.347V294.407H348.249Z" fill="white"/>
<path d="M351.007 298.027V306.527H341.756L351.007 298.027Z" fill="white"/>
<path d="M357.657 305.354L352.661 303.906V297.216L357.657 295.768V305.354Z" fill="white"/>
<path d="M345.002 317.633C340.677 317.634 336.486 316.257 333.142 313.737C329.799 311.216 327.51 307.708 326.666 303.811C325.822 299.914 326.475 295.868 328.514 292.364C330.553 288.86 333.851 286.113 337.847 284.593C341.843 283.073 346.289 282.873 350.427 284.027C354.566 285.181 358.14 287.618 360.542 290.923C362.944 294.228 364.024 298.195 363.599 302.149C363.173 306.104 361.268 309.8 358.209 312.609C356.478 314.207 354.42 315.473 352.153 316.336C349.886 317.198 347.456 317.639 345.002 317.633ZM345.002 284.749C342.186 284.747 339.413 285.384 336.929 286.602C334.444 287.821 332.326 289.583 330.761 291.734C329.195 293.885 328.232 296.358 327.956 298.933C327.68 301.507 328.1 304.105 329.178 306.495C330.256 308.886 331.959 310.994 334.137 312.635C336.315 314.275 338.899 315.397 341.662 315.9C344.424 316.403 347.279 316.272 349.973 315.518C352.667 314.765 355.117 313.412 357.106 311.581C359.494 309.381 361.12 306.58 361.778 303.531C362.435 300.483 362.095 297.324 360.8 294.454C359.505 291.583 357.313 289.129 354.502 287.402C351.69 285.675 348.384 284.752 345.002 284.749Z" fill="white"/>
<path d="M357.1 288.34L331.792 311.592L332.906 312.616L358.214 289.364L357.1 288.34Z" fill="white"/>
<path d="M131.99 576.014L171.043 572.496V522.062H186.519V572.481L225.746 576.014C227.625 576.187 229.368 576.995 230.635 578.283C231.902 579.57 232.603 581.244 232.601 582.979V588.366H125.118V582.979C125.121 581.242 125.825 579.568 127.094 578.281C128.364 576.995 130.108 576.187 131.99 576.014Z" fill="#263238"/>
<path opacity="0.3" d="M131.99 576.014L171.043 572.496V522.062H186.519V572.481L225.746 576.014C227.625 576.187 229.368 576.995 230.635 578.283C231.902 579.57 232.603 581.244 232.601 582.979V588.366H125.118V582.979C125.121 581.242 125.825 579.568 127.094 578.281C128.364 576.995 130.108 576.187 131.99 576.014Z" fill="white"/>
<path d="M218.354 595.041C218.354 596.88 218.948 598.677 220.06 600.206C221.171 601.735 222.752 602.926 224.6 603.63C226.449 604.333 228.484 604.517 230.446 604.159C232.409 603.8 234.212 602.915 235.627 601.614C237.042 600.314 238.006 598.658 238.396 596.855C238.786 595.051 238.586 593.182 237.82 591.484C237.054 589.785 235.758 588.333 234.094 587.312C232.43 586.29 230.474 585.745 228.472 585.745C225.789 585.745 223.215 586.724 221.318 588.468C219.42 590.211 218.354 592.576 218.354 595.041Z" fill="#1C20A6"/>
<path d="M139.381 595.041C139.384 596.883 138.792 598.684 137.682 600.216C136.571 601.749 134.99 602.945 133.14 603.652C131.289 604.359 129.252 604.547 127.285 604.19C125.319 603.834 123.512 602.95 122.093 601.649C120.673 600.349 119.705 598.692 119.311 596.886C118.917 595.081 119.115 593.208 119.879 591.506C120.643 589.804 121.939 588.348 123.604 587.322C125.269 586.297 127.227 585.748 129.231 585.745C130.562 585.743 131.88 585.982 133.11 586.448C134.341 586.914 135.459 587.599 136.401 588.462C137.344 589.325 138.092 590.35 138.603 591.479C139.114 592.608 139.379 593.818 139.381 595.041Z" fill="#1C20A6"/>
<path d="M182.642 532.893H174.857C173.13 532.893 171.475 532.263 170.254 531.141C169.034 530.02 168.348 528.499 168.348 526.913V488.005H189.198V526.913C189.198 527.702 189.028 528.483 188.698 529.211C188.368 529.94 187.885 530.601 187.275 531.157C186.666 531.713 185.943 532.152 185.147 532.45C184.352 532.748 183.501 532.899 182.642 532.893Z" fill="#263238"/>
<path opacity="0.5" d="M182.642 532.893H174.857C173.13 532.893 171.475 532.263 170.254 531.141C169.034 530.02 168.348 528.499 168.348 526.913V488.005H189.198V526.913C189.198 527.702 189.028 528.483 188.698 529.211C188.368 529.94 187.885 530.601 187.275 531.157C186.666 531.713 185.943 532.152 185.147 532.45C184.352 532.748 183.501 532.899 182.642 532.893Z" fill="white"/>
<path d="M141.839 409.132C141.839 409.132 138.829 476.392 159.175 487.976H135.945C135.945 487.976 117.916 465.069 123.006 409.132H141.839Z" fill="#263238"/>
<path opacity="0.5" d="M141.839 409.132C141.839 409.132 138.829 476.392 159.175 487.976H135.945C135.945 487.976 117.916 465.069 123.006 409.132H141.839Z" fill="white"/>
<path d="M135.898 478.564H224.421C226.511 478.564 228.516 479.327 229.993 480.685C231.471 482.042 232.301 483.884 232.301 485.804V493.131H128.018V485.804C128.018 483.884 128.848 482.042 130.326 480.685C131.803 479.327 133.808 478.564 135.898 478.564Z" fill="#1C20A6"/>
<path d="M233.468 485.847H126.836C125.086 485.847 123.668 487.151 123.668 488.758V490.22C123.668 491.828 125.086 493.131 126.836 493.131H233.468C235.217 493.131 236.636 491.828 236.636 490.22V488.758C236.636 487.151 235.217 485.847 233.468 485.847Z" fill="#1C20A6"/>
<path opacity="0.6" d="M233.468 485.847H126.836C125.086 485.847 123.668 487.151 123.668 488.758V490.22C123.668 491.828 125.086 493.131 126.836 493.131H233.468C235.217 493.131 236.636 491.828 236.636 490.22V488.758C236.636 487.151 235.217 485.847 233.468 485.847Z" fill="white"/>
<path d="M120.501 422.802H151.359C164.049 422.802 174.337 413.349 174.337 401.69V394.189C174.337 382.529 164.049 373.077 151.359 373.077H120.501C107.81 373.077 97.5227 382.529 97.5227 394.189V401.69C97.5227 413.349 107.81 422.802 120.501 422.802Z" fill="#1C20A6"/>
<path d="M218.496 362.753C222.673 364.331 246.36 392.089 246.975 397.939C247.747 405.035 239.914 406.381 231.388 404.542C222.862 402.703 229.323 395.014 229.323 395.014L216.195 378.131L218.496 362.753Z" fill="#263238"/>
<path d="M214.714 431.88H184.77C184.77 431.88 190.538 395.536 191.483 395.014C192.429 394.493 213.358 393.204 213.358 393.204V413.476L214.714 431.88Z" fill="#263238"/>
<path d="M180.578 352.892C181.665 352.689 193.091 348.345 199.301 352.733C205.51 357.12 212.508 371.731 201.381 377.03C190.255 382.33 176.055 379.564 174.353 371.586C172.651 363.607 180.578 352.892 180.578 352.892Z" fill="#263238"/>
<path d="M171.673 320.124C171.673 320.124 164.171 336.052 169.419 341.96C174.668 347.868 208.898 352.559 214.84 347.013C220.781 341.467 212.996 319.501 212.996 319.501L171.673 320.124Z" fill="#263238"/>
<path d="M306.232 553.686L297.312 555.656L292.805 544.347L288.707 534.066L298.856 530.084L302.765 542.566L306.232 553.686Z" fill="#E4897B"/>
<path opacity="0.2" d="M302.765 542.566L292.805 544.347L288.707 534.066L298.856 530.084L302.765 542.566Z" fill="black"/>
<path d="M301.866 536.6L289.511 540.814C289.511 540.814 256.525 465.054 249.748 464.794C242.971 464.533 173.942 493.667 156.654 477.507C139.365 461.347 164.36 422.396 164.36 422.396C164.36 422.396 205.967 416.952 209.103 425.582C209.878 428.125 210.468 430.713 210.868 433.329C211.341 435.964 211.656 438.179 211.656 438.179C212.948 437.89 254.712 428.043 271.166 438.179C287.919 448.576 301.866 536.6 301.866 536.6Z" fill="#263238"/>
<path opacity="0.2" d="M301.866 536.6L289.511 540.814C289.511 540.814 256.525 465.054 249.748 464.794C242.971 464.533 173.942 493.667 156.654 477.507C139.365 461.347 164.36 422.396 164.36 422.396C164.36 422.396 205.967 416.952 209.103 425.582C209.878 428.125 210.468 430.713 210.868 433.329C211.341 435.964 211.656 438.179 211.656 438.179C212.948 437.89 254.712 428.043 271.166 438.179C287.919 448.576 301.866 536.6 301.866 536.6Z" fill="white"/>
<path d="M230.758 586.006L221.869 583.906L223.587 572.206L225.163 561.462L236.148 562.374L233.295 574.885L230.758 586.006Z" fill="#E4897B"/>
<path opacity="0.2" d="M233.232 575.131L223.523 572.423L225.131 561.578L236.131 562.432L233.232 575.131Z" fill="black"/>
<path d="M284.404 536.614L302.402 530.996L303.174 537.773L289.526 542.204L284.404 536.614Z" fill="#263238"/>
<path d="M186.535 481.388C186.535 481.388 189.34 481.46 232.98 479.592C232.98 479.592 226.471 529.707 222.909 567.239L235.959 569.281C235.959 569.281 267.132 488.932 266.801 476.16C266.47 463.389 250.584 459.653 250.584 459.653C250.584 459.653 219.442 476.16 186.535 481.388Z" fill="#263238"/>
<path opacity="0.1" d="M186.535 481.388C186.535 481.388 189.34 481.46 232.98 479.592C232.98 479.592 226.471 529.707 222.909 567.239L235.959 569.281C235.959 569.281 267.132 488.932 266.801 476.16C266.47 463.389 250.584 459.653 250.584 459.653C250.584 459.653 219.442 476.16 186.535 481.388Z" fill="white"/>
<path d="M221.002 563.605L238.937 565.473L235.47 571.931L220.955 570.222L221.002 563.605Z" fill="#263238"/>
<path opacity="0.3" d="M211.657 438.179L187.323 442.842C187.323 442.842 200.782 436.022 210.869 433.328C211.341 435.964 211.657 438.179 211.657 438.179Z" fill="black"/>
<path d="M165.369 416.459L164.36 422.411L209.103 425.582L210.285 418.544L165.369 416.459Z" fill="#263238"/>
<path opacity="0.2" d="M165.369 416.459L164.36 422.411L209.103 425.582L210.285 418.544L165.369 416.459Z" fill="black"/>
<path d="M180.63 416.066L178.42 415.857L177.263 426.199L179.473 426.408L180.63 416.066Z" fill="#263238"/>
<path d="M199.789 418.548L189.991 417.969L189.513 424.804L199.311 425.383L199.789 418.548Z" fill="white"/>
<path d="M208.116 417.179L205.905 416.97L204.748 427.312L206.958 427.521L208.116 417.179Z" fill="#263238"/>
<path opacity="0.2" d="M180.63 416.066L178.42 415.857L177.263 426.199L179.473 426.408L180.63 416.066Z" fill="white"/>
<path opacity="0.2" d="M208.116 417.179L205.905 416.97L204.748 427.312L206.958 427.521L208.116 417.179Z" fill="white"/>
<path d="M215.565 361.855C208.092 357.488 199.535 354.937 190.695 354.441C176.338 353.761 163.431 361.03 163.431 361.03L165.338 416.459L210.254 418.544C210.254 418.544 224.453 381.562 215.565 361.855Z" fill="#1C20A6"/>
<path d="M213.374 324.815C213.374 324.815 219.851 298.042 192.886 300.692C159.049 304.022 171.894 342.684 188.678 340.266C205.462 337.847 213.374 324.815 213.374 324.815Z" fill="#263238"/>
<path opacity="0.2" d="M207.811 360.682L208.615 372.353L198.875 364.331C198.875 364.331 198.213 370.123 195.96 379.752C195.251 374.74 193.71 369.856 191.389 365.272L182.185 373.874L176.165 360.682C176.165 360.682 194.604 348.403 207.811 360.682Z" fill="black"/>
<path d="M195.534 370.152L190.696 359.176L181.76 355.498C189.64 350.488 185.684 339.281 185.684 339.281L198.434 343.408C197.845 345.04 197.387 346.71 197.063 348.403C195.739 355.643 199.316 356.28 199.316 356.28L196.858 359.553L195.534 370.152Z" fill="#E4897B"/>
<path opacity="0.2" d="M198.418 343.408C197.829 345.04 197.371 346.71 197.047 348.403C190.948 346.159 185.668 339.281 185.668 339.281L198.418 343.408Z" fill="black"/>
<path d="M198.859 308.424C210.38 309.336 213.548 315.288 213.374 326.249C213.154 339.961 208.961 349.417 194.84 345.334C175.661 339.846 179.742 306.976 198.859 308.424Z" fill="#E4897B"/>
<path d="M205.983 325.076C206.76 326.728 207.749 328.289 208.93 329.724C208.554 330.137 208.059 330.445 207.502 330.614C206.945 330.783 206.348 330.806 205.778 330.68L205.983 325.076Z" fill="#DE5753"/>
<path d="M199.016 323.657C199.016 324.526 198.402 325.206 197.771 325.105C197.141 325.004 196.668 324.338 196.731 323.469C196.794 322.6 197.346 321.919 197.976 321.948C198.607 321.977 199.079 322.788 199.016 323.657Z" fill="#263238"/>
<path d="M197.725 322.035L199.836 321.413C199.836 321.413 198.702 322.904 197.725 322.035Z" fill="#263238"/>
<path d="M210.821 324.149C210.821 325.018 210.191 325.699 209.56 325.597C208.93 325.496 208.473 324.83 208.52 323.961C208.567 323.092 209.15 322.412 209.781 322.441C210.411 322.47 210.868 323.28 210.821 324.149Z" fill="#263238"/>
<path d="M209.513 322.528L211.625 321.905C211.625 321.905 210.49 323.44 209.513 322.528Z" fill="#263238"/>
<path d="M194.447 318.068C194.374 318.069 194.302 318.056 194.234 318.031C194.166 318.007 194.105 317.97 194.053 317.923C193.998 317.875 193.954 317.818 193.924 317.755C193.894 317.691 193.879 317.623 193.879 317.554C193.879 317.484 193.894 317.416 193.924 317.352C193.954 317.289 193.998 317.232 194.053 317.184C194.817 316.567 195.728 316.122 196.714 315.885C197.699 315.649 198.731 315.628 199.726 315.823C199.873 315.855 200.001 315.937 200.083 316.053C200.166 316.169 200.196 316.31 200.168 316.446C200.153 316.514 200.123 316.578 200.081 316.635C200.038 316.692 199.984 316.741 199.921 316.779C199.858 316.817 199.787 316.843 199.713 316.855C199.639 316.867 199.563 316.866 199.49 316.851C198.683 316.7 197.85 316.716 197.051 316.899C196.252 317.082 195.507 317.427 194.872 317.908C194.816 317.959 194.75 318 194.677 318.027C194.604 318.054 194.526 318.068 194.447 318.068Z" fill="#263238"/>
<path d="M212.508 318.314C212.377 318.311 212.25 318.27 212.145 318.198C211.613 317.745 210.978 317.406 210.285 317.209C209.592 317.011 208.86 316.958 208.142 317.054C207.998 317.09 207.844 317.072 207.714 317.004C207.585 316.936 207.489 316.824 207.449 316.692C207.409 316.558 207.429 316.415 207.502 316.293C207.576 316.171 207.698 316.081 207.843 316.04C208.733 315.9 209.647 315.946 210.515 316.177C211.383 316.408 212.183 316.817 212.854 317.373C212.914 317.415 212.964 317.468 213.001 317.528C213.038 317.588 213.061 317.655 213.07 317.724C213.079 317.792 213.073 317.862 213.052 317.929C213.031 317.995 212.996 318.057 212.949 318.111C212.897 318.174 212.831 318.225 212.754 318.26C212.678 318.296 212.593 318.314 212.508 318.314Z" fill="#263238"/>
<path d="M184.612 325.25C184.612 325.25 190.806 316.996 190.617 310.22C190.617 310.22 214.257 303.457 213.374 324.815C213.374 324.815 217.361 306.107 197.614 304.123C177.867 302.14 175.456 328.739 185.006 337.427C184.943 337.485 180.767 330.434 184.612 325.25Z" fill="#263238"/>
<path d="M186.282 327.639C186.293 327.023 186.17 326.411 185.922 325.839C185.673 325.267 185.304 324.746 184.835 324.305C184.366 323.865 183.807 323.515 183.19 323.274C182.573 323.034 181.91 322.908 181.239 322.904C177.646 322.991 175.313 329.579 184.029 331.896C185.289 332.287 186.109 331.201 186.282 327.639Z" fill="#E4897B"/>
<path d="M206.456 334.995C205.764 336.128 205.159 337.304 204.644 338.513L203.919 338.369C200.609 337.688 199.333 336.385 198.907 335.125C198.706 334.51 198.673 333.858 198.812 333.228C198.875 332.872 198.991 332.526 199.159 332.2C200.995 333.447 203.102 334.317 205.337 334.749C205.983 334.922 206.456 334.995 206.456 334.995Z" fill="#263238"/>
<path d="M205.305 334.749L204.738 335.777C201.586 335.14 199.537 334.329 198.78 333.228C198.842 332.872 198.959 332.526 199.127 332.2C200.963 333.447 203.07 334.317 205.305 334.749Z" fill="white"/>
<path d="M203.887 338.369C200.577 337.688 199.301 336.385 198.875 335.125C200.124 335.416 201.309 335.906 202.374 336.573C203.064 337.017 203.592 337.643 203.887 338.369Z" fill="#DE5753"/>
<path d="M198.576 309.206C198.576 309.206 192.272 326.234 180.405 325.134C168.537 324.033 188.962 303.414 188.962 303.414C188.962 303.414 209.072 298.201 217.787 308.453C226.503 318.705 213.406 324.902 213.406 324.902C213.406 324.902 215.36 311.392 198.576 309.206Z" fill="#263238"/>
<path d="M189.01 323.744C188.931 323.743 188.854 323.72 188.79 323.679C188.725 323.638 188.675 323.58 188.647 323.512C188.611 323.42 188.616 323.318 188.66 323.229C188.704 323.14 188.784 323.07 188.884 323.034C198.34 319.747 198.15 308.076 198.15 307.961C198.15 307.865 198.192 307.773 198.266 307.705C198.34 307.637 198.44 307.599 198.544 307.599C198.595 307.597 198.646 307.604 198.694 307.621C198.742 307.637 198.785 307.663 198.822 307.695C198.859 307.728 198.888 307.767 198.908 307.81C198.928 307.853 198.938 307.899 198.938 307.946C198.938 308.062 199.128 320.24 189.151 323.715L189.01 323.744Z" fill="#263238"/>
<path d="M185.195 351.212L190.68 359.176L183.808 370.152L178.828 356.063L185.195 351.212Z" fill="#1C20A6"/>
<path d="M196.842 352.733V359.553L204.958 367.792L202.311 355.962L196.842 352.733Z" fill="#1C20A6"/>
<path d="M320.983 569.585C319.633 569.015 318.18 568.676 316.697 568.586C316.697 568.586 311.543 565.806 306.437 554.989H300.7C299.73 554.998 298.786 555.28 297.997 555.798C297.208 556.316 296.611 557.045 296.287 557.885C296.196 558.118 296.143 558.362 296.13 558.609C296.19 559.886 296.338 561.158 296.571 562.418C297.417 566.608 298.538 570.747 299.928 574.813L300.889 574.595L299.124 566.718C298.541 564.054 301.599 566.631 303.017 569.325C304.435 572.018 306.61 574.74 312.946 573.408C320.337 571.786 323.3 570.816 320.983 569.585Z" fill="#263238"/>
<path d="M305.397 552.151C305.397 552.151 312.568 565.922 316.697 568.586C316.697 568.586 311.165 571.612 305.397 564.865C297.942 556.177 296.13 558.58 296.13 558.58C296.28 557.077 296.581 555.588 297.028 554.135C298.147 551.326 305.397 552.151 305.397 552.151Z" fill="#E4897B"/>
<path d="M242.057 602.368C240.891 601.519 239.567 600.871 238.149 600.457C238.149 600.457 233.862 596.634 231.687 585.007L226.124 583.732C225.18 583.531 224.192 583.6 223.293 583.932C222.393 584.263 221.627 584.841 221.096 585.586C220.94 585.793 220.823 586.023 220.75 586.266C220.479 587.514 220.295 588.776 220.198 590.046C219.913 594.303 219.913 598.573 220.198 602.831H221.191L221.506 594.809C221.632 592.087 223.933 595.258 224.658 598.183C225.383 601.108 226.754 604.221 233.247 604.308C240.86 604.41 243.996 604.106 242.057 602.368Z" fill="#263238"/>
<path d="M231.42 582.096C231.42 582.096 234.824 597.054 238.149 600.529C238.149 600.529 231.987 602.267 228.126 594.462C223.146 584.326 220.75 586.339 220.75 586.339C221.281 584.908 221.956 583.527 222.767 582.212C224.58 579.692 231.42 582.096 231.42 582.096Z" fill="#E4897B"/>
<path d="M177.378 355.412C177.378 355.412 191.357 393.566 171.657 436.891L152.524 434.603L164.36 409.987L161.776 360.407L177.378 355.412Z" fill="#263238"/>
<path d="M203.887 356.773C203.887 356.773 210.285 366.243 209.513 395.014L213.374 435.747L217.094 433.328L214.052 413.462C214.052 413.462 222.137 378.493 218.496 362.782L203.887 356.773Z" fill="#263238"/>
<path d="M199.301 352.733C199.301 352.733 210.159 357.975 215.707 365.142L211.657 368.574L217.094 375.814L209.513 394.942C209.513 394.942 205.4 359.104 199.301 352.733Z" fill="#263238"/>
<path opacity="0.2" d="M199.301 352.733C199.301 352.733 210.159 357.975 215.707 365.142L211.657 368.574L217.094 375.814L209.513 394.942C209.513 394.942 205.4 359.104 199.301 352.733Z" fill="white"/>
<path d="M180.577 352.892C180.577 352.892 185.557 378.956 181.744 397.071L169.829 372.266L176.653 366.243L167.56 360.277C171.199 356.901 175.662 354.369 180.577 352.892Z" fill="#263238"/>
<path opacity="0.2" d="M180.577 352.892C180.577 352.892 185.557 378.956 181.744 397.071L169.829 372.266L176.653 366.243L167.56 360.277C171.199 356.901 175.662 354.369 180.577 352.892Z" fill="white"/>
<path d="M194.683 398.823L210.805 399.865C212.11 399.074 213.533 398.459 215.029 398.041C216.999 397.606 228.456 396.462 230.537 397.201C232.617 397.939 234.477 404.18 234.288 405.469C234.098 406.758 216.778 407.192 216.227 407.235C215.675 407.279 213.705 405.599 213.705 405.599L194.683 405.44V398.823Z" fill="#E4897B"/>
<path d="M161.776 360.349C151.28 366.141 145.559 397.346 152.525 402.225C159.491 407.105 207.354 407.236 207.354 407.236L208.93 397.939C208.93 397.939 167.812 394.16 165.716 390.497C163.62 386.833 164.36 372.353 164.36 372.353L161.776 360.349Z" fill="#263238"/>
<path d="M347.413 604.352H355.719L370.643 413.462H359.627L347.413 604.352Z" fill="#263238"/>
<path opacity="0.7" d="M347.413 604.352H355.719L369.918 422.946L370.643 413.78H359.627L359.028 422.946L347.413 604.352Z" fill="white"/>
<path opacity="0.2" d="M359.028 422.497H369.918L370.643 413.78H359.627L359.028 422.497Z" fill="black"/>
<path d="M286.47 604.352H294.775L296.13 413.462H285.114L286.47 604.352Z" fill="#263238"/>
<path opacity="0.7" d="M285.099 413.78L285.319 444.565L286.454 604.352H294.775L295.91 444.565L296.131 413.78H285.099Z" fill="white"/>
<path opacity="0.2" d="M285.099 413.78L285.319 444.912H295.91L296.131 413.78H285.099Z" fill="black"/>
<path d="M198.292 604.352H206.598L221.522 413.462H210.506L198.292 604.352Z" fill="#263238"/>
<path opacity="0.7" d="M198.292 604.352H206.598L220.797 422.946L221.522 413.78H210.506L209.907 422.946L198.292 604.352Z" fill="white"/>
<path opacity="0.2" d="M209.907 422.497H220.797L221.522 413.78H210.506L209.907 422.497Z" fill="black"/>
<path d="M442.431 604.352H450.736L438.522 413.462H427.506L442.431 604.352Z" fill="#263238"/>
<path opacity="0.7" d="M427.506 413.78L428.231 422.946L442.431 604.352H450.72L439.121 422.946L438.522 413.78H427.506Z" fill="white"/>
<path opacity="0.2" d="M438.522 413.78H427.506L428.231 422.497H439.121L438.522 413.78Z" fill="black"/>
<path d="M443.849 418.255H205.18C204.277 418.255 203.411 417.925 202.773 417.339C202.134 416.752 201.776 415.957 201.776 415.127V408.698H447.301V415.127C447.301 415.542 447.211 415.952 447.037 416.334C446.863 416.716 446.608 417.063 446.287 417.354C445.966 417.645 445.585 417.875 445.167 418.029C444.748 418.184 444.3 418.261 443.849 418.255Z" fill="#1C20A6"/>
<path opacity="0.6" d="M443.849 418.255H205.18C204.277 418.255 203.411 417.925 202.773 417.339C202.134 416.752 201.776 415.957 201.776 415.127V408.698H447.301V415.127C447.301 415.542 447.211 415.952 447.037 416.334C446.863 416.716 446.608 417.063 446.287 417.354C445.966 417.645 445.585 417.875 445.167 418.029C444.748 418.184 444.3 418.261 443.849 418.255Z" fill="white"/>
<path opacity="0.2" d="M201.775 413.476H447.269V408.698H201.775V413.476Z" fill="black"/>
<path d="M196.622 409.929H452.407C453.184 409.929 453.93 409.645 454.479 409.14C455.029 408.635 455.338 407.95 455.338 407.236C455.334 406.522 455.024 405.84 454.475 405.335C453.926 404.831 453.183 404.546 452.407 404.542H196.622C195.844 404.542 195.099 404.826 194.549 405.331C193.999 405.836 193.69 406.521 193.69 407.236C193.69 407.95 193.999 408.635 194.549 409.14C195.099 409.645 195.844 409.929 196.622 409.929Z" fill="#1C20A6"/>
<path opacity="0.6" d="M196.622 409.929H452.407C453.184 409.929 453.93 409.645 454.479 409.14C455.029 408.635 455.338 407.95 455.338 407.236C455.334 406.522 455.024 405.84 454.475 405.335C453.926 404.831 453.183 404.546 452.407 404.542H196.622C195.844 404.542 195.099 404.826 194.549 405.331C193.999 405.836 193.69 406.521 193.69 407.236C193.69 407.95 193.999 408.635 194.549 409.14C195.099 409.645 195.844 409.929 196.622 409.929Z" fill="white"/>
<path d="M347.508 404.542L346.169 399.909H291.198L265.887 402.225L264.91 404.542H347.508Z" fill="#263238"/>
<path opacity="0.4" d="M291.197 399.909V404.542H347.508L346.168 399.909H291.197Z" fill="black"/>
<path d="M302.245 377.667C302.171 378.231 302.229 378.802 302.415 379.343C302.602 379.884 302.912 380.382 303.326 380.804C303.74 381.225 304.247 381.56 304.814 381.786C305.381 382.012 305.993 382.123 306.611 382.113H390.848C392.166 382.088 393.429 381.623 394.4 380.805C395.372 379.987 395.986 378.871 396.128 377.667L401.124 328.131C401.193 327.569 401.131 326.999 400.943 326.46C400.754 325.921 400.444 325.425 400.031 325.005C399.618 324.585 399.113 324.25 398.549 324.022C397.985 323.795 397.374 323.68 396.758 323.686H312.521C311.201 323.704 309.935 324.167 308.961 324.987C307.988 325.806 307.376 326.925 307.241 328.131L302.245 377.667Z" fill="#263238"/>
<path opacity="0.4" d="M306.894 382.113H390.848C392.166 382.088 393.429 381.623 394.4 380.805C395.372 379.987 395.986 378.871 396.128 377.667L401.124 328.131C401.184 327.646 401.147 327.156 401.013 326.683H317.075C315.758 326.708 314.495 327.173 313.523 327.991C312.551 328.809 311.937 329.925 311.796 331.129L306.8 380.665C306.743 381.149 306.775 381.638 306.894 382.113Z" fill="black"/>
<path d="M364.765 351.734H347.335L351.984 397.563L324.436 401.357V404.542H382.448V401.357L370.565 397.563L364.765 351.734Z" fill="#263238"/>
<path opacity="0.1" d="M347.335 351.734L360.242 403.818L370.565 403.543L364.766 351.734H347.335Z" fill="white"/>
<path d="M356.633 320.312H353.276V325.684H356.633V320.312Z" fill="#263238"/>
<path d="M353.276 320.109H349.226C348.814 319.351 348.613 318.51 348.643 317.662C348.598 316.818 348.799 315.978 349.226 315.23H353.276V320.109Z" fill="#263238"/>
<path d="M360.195 317.46C360.195 318.347 359.909 319.215 359.372 319.953C358.835 320.692 358.072 321.267 357.179 321.607C356.286 321.946 355.304 322.035 354.356 321.862C353.409 321.689 352.538 321.261 351.855 320.634C351.172 320.006 350.706 319.206 350.518 318.335C350.329 317.465 350.426 316.562 350.796 315.742C351.166 314.922 351.792 314.22 352.595 313.727C353.399 313.234 354.343 312.971 355.309 312.971C355.952 312.969 356.588 313.084 357.182 313.308C357.775 313.533 358.315 313.864 358.769 314.281C359.223 314.698 359.583 315.194 359.827 315.739C360.072 316.285 360.197 316.87 360.195 317.46Z" fill="#263238"/>
<path opacity="0.1" d="M360.195 317.46C360.195 318.347 359.909 319.215 359.372 319.953C358.835 320.692 358.072 321.267 357.179 321.607C356.286 321.946 355.304 322.035 354.356 321.862C353.409 321.689 352.538 321.261 351.855 320.634C351.172 320.006 350.706 319.206 350.518 318.335C350.329 317.465 350.426 316.562 350.796 315.742C351.166 314.922 351.792 314.22 352.595 313.727C353.399 313.234 354.343 312.971 355.309 312.971C355.952 312.969 356.588 313.084 357.182 313.308C357.775 313.533 358.315 313.864 358.769 314.281C359.223 314.698 359.583 315.194 359.827 315.739C360.072 316.285 360.197 316.87 360.195 317.46Z" fill="white"/>
<path d="M414.85 369.95V404.542H396.08C396.209 392.524 398.048 380.574 401.549 368.994C401.775 368.256 402.258 367.606 402.924 367.143C403.59 366.681 404.402 366.43 405.237 366.431H411.021C411.523 366.431 412.021 366.522 412.486 366.699C412.951 366.876 413.373 367.135 413.729 367.461C414.084 367.788 414.366 368.176 414.559 368.603C414.751 369.03 414.85 369.487 414.85 369.95Z" fill="#263238"/>
<path opacity="0.4" d="M414.851 369.95V404.542H405.395V371.238C405.395 369.967 405.944 368.748 406.922 367.849C407.901 366.95 409.228 366.445 410.611 366.445H410.958C411.465 366.438 411.968 366.523 412.439 366.695C412.91 366.868 413.339 367.124 413.701 367.45C414.063 367.776 414.351 368.165 414.549 368.594C414.746 369.023 414.849 369.484 414.851 369.95Z" fill="black"/>
<path d="M295.075 369.95V404.542H276.305C276.434 392.524 278.272 380.574 281.773 368.994C282 368.256 282.483 367.606 283.149 367.143C283.815 366.681 284.627 366.43 285.461 366.431H291.245C291.748 366.431 292.246 366.522 292.711 366.699C293.175 366.876 293.598 367.135 293.953 367.461C294.309 367.788 294.591 368.176 294.783 368.603C294.976 369.03 295.075 369.487 295.075 369.95Z" fill="#263238"/>
<path opacity="0.4" d="M295.074 369.95V404.542H285.618V371.238C285.618 369.967 286.168 368.748 287.146 367.849C288.124 366.95 289.451 366.445 290.835 366.445H291.181C291.688 366.438 292.192 366.523 292.663 366.695C293.134 366.868 293.563 367.124 293.925 367.45C294.287 367.776 294.575 368.165 294.772 368.594C294.97 369.023 295.072 369.484 295.074 369.95Z" fill="black"/>
</svg>
