<svg width="500" height="500" viewBox="0 0 500 500" fill="none" xmlns="http://www.w3.org/2000/svg">
<path d="M500 382.4H0V382.65H500V382.4Z" fill="#EBEBEB"/>
<path d="M449.9 398.49H416.78V398.74H449.9V398.49Z" fill="#EBEBEB"/>
<path d="M331.22 401.21H322.53V401.46H331.22V401.21Z" fill="#EBEBEB"/>
<path d="M415.78 389.21H396.59V389.46H415.78V389.21Z" fill="#EBEBEB"/>
<path d="M95.65 390.89H52.46V391.14H95.65V390.89Z" fill="#EBEBEB"/>
<path d="M110.89 390.89H104.56V391.14H110.89V390.89Z" fill="#EBEBEB"/>
<path d="M225.15 395.11H131.47V395.36H225.15V395.11Z" fill="#EBEBEB"/>
<path d="M237 337.8H43.91C42.3973 337.797 40.9475 337.195 39.8788 336.124C38.8102 335.053 38.21 333.603 38.21 332.09V60.66C38.2231 59.156 38.8292 57.718 39.8964 56.6582C40.9637 55.5985 42.4059 55.0026 43.91 55H237C238.514 55 239.967 55.6016 241.038 56.6724C242.108 57.7433 242.71 59.1956 242.71 60.71V332.09C242.71 333.604 242.108 335.057 241.038 336.128C239.967 337.198 238.514 337.8 237 337.8ZM43.91 55.2C42.4636 55.2026 41.0774 55.7791 40.0556 56.8027C39.0338 57.8264 38.46 59.2136 38.46 60.66V332.09C38.46 333.536 39.0338 334.924 40.0556 335.947C41.0774 336.971 42.4636 337.547 43.91 337.55H237C238.447 337.547 239.834 336.971 240.858 335.948C241.881 334.924 242.457 333.537 242.46 332.09V60.66C242.457 59.2127 241.881 57.8255 240.858 56.8021C239.834 55.7787 238.447 55.2026 237 55.2H43.91Z" fill="#EBEBEB"/>
<path d="M453.31 337.8H260.21C258.696 337.797 257.246 337.195 256.175 336.125C255.105 335.054 254.503 333.604 254.5 332.09V60.66C254.516 59.1551 255.124 57.7171 256.193 56.6576C257.262 55.5981 258.705 55.0025 260.21 55H453.31C454.812 55.0052 456.252 55.6022 457.317 56.6617C458.382 57.7212 458.987 59.1578 459 60.66V332.09C459 333.601 458.401 335.05 457.335 336.121C456.268 337.191 454.821 337.795 453.31 337.8ZM260.21 55.2C258.763 55.2026 257.375 55.7787 256.352 56.8021C255.329 57.8255 254.753 59.2127 254.75 60.66V332.09C254.753 333.537 255.329 334.924 256.352 335.948C257.375 336.971 258.763 337.547 260.21 337.55H453.31C454.757 337.547 456.145 336.971 457.168 335.948C458.191 334.924 458.767 333.537 458.77 332.09V60.66C458.767 59.2127 458.191 57.8255 457.168 56.8021C456.145 55.7787 454.757 55.2026 453.31 55.2H260.21Z" fill="#EBEBEB"/>
<path d="M208.83 263.88H193.43V382.4H208.83V263.88Z" fill="#F0F0F0"/>
<path d="M58.6399 382.4H193.43L193.43 263.88H58.6399L58.6399 382.4Z" fill="#F5F5F5"/>
<path d="M57.42 371.99H175.76V308.6H57.42L57.42 371.99Z" fill="#FAFAFA"/>
<path d="M57.42 301.88H175.76V281.01H57.42V301.88Z" fill="#FAFAFA"/>
<g style="mix-blend-mode:multiply" opacity="0.7">
<path d="M176.81 308.6H175.75V371.99H176.81V308.6Z" fill="#E6E6E6"/>
</g>
<g style="mix-blend-mode:multiply" opacity="0.7">
<path d="M176.81 281.01H175.75V301.88H176.81V281.01Z" fill="#E6E6E6"/>
</g>
<g style="mix-blend-mode:multiply" opacity="0.7">
<path d="M208.83 268.88H58.3V271.56H208.83V268.88Z" fill="#E6E6E6"/>
</g>
<path d="M210.63 262.26H193.43V270.01H210.63V262.26Z" fill="#F0F0F0"/>
<path d="M56.8399 270.01H193.43V262.26H56.8399V270.01Z" fill="#F5F5F5"/>
<path d="M439.53 241.39H398.72V382.4H439.53V241.39Z" fill="#E0E0E0"/>
<path d="M233.77 382.4H430.82L440.52 237.69H243.47L233.77 382.4Z" fill="#E6E6E6"/>
<path d="M230.43 382.4H427.49L437.18 237.69H240.13L230.43 382.4Z" fill="#F0F0F0"/>
<path d="M242.5 373.95H416.55L425.11 246.14H251.06L242.5 373.95Z" fill="white"/>
<path d="M184.19 257.91H180.59V199.15C180.593 198.673 180.783 198.217 181.12 197.88C181.457 197.543 181.914 197.353 182.39 197.35C182.867 197.353 183.323 197.543 183.66 197.88C183.997 198.217 184.187 198.673 184.19 199.15V257.91Z" fill="#F5F5F5"/>
<path d="M193.57 262.26H171.21L172.33 260.26C172.781 259.456 173.439 258.786 174.235 258.32C175.032 257.854 175.938 257.609 176.86 257.61H187.93C188.852 257.611 189.757 257.857 190.553 258.323C191.349 258.789 192.007 259.457 192.46 260.26L193.57 262.26Z" fill="#F0F0F0"/>
<path d="M165.32 218.15C165.32 218.15 165.75 201.36 182.39 201.36C199.03 201.36 199.47 218.15 199.47 218.15H165.32Z" fill="#E0E0E0"/>
<path d="M91.44 178.35L427.26 178.35V76.86L91.44 76.86V178.35Z" fill="#E6E6E6"/>
<path d="M82.2799 178.35L425.13 178.35V76.86L82.2799 76.86V178.35Z" fill="#F0F0F0"/>
<path d="M91.4399 178.35H427.26V185.61H87.1599L91.4399 178.35Z" fill="#E6E6E6"/>
<path d="M74.72 178.35H417.57L415.59 185.61H72.74L74.72 178.35Z" fill="#F0F0F0"/>
<path d="M412.31 165.53V89.68L95.1001 89.68V165.53H412.31Z" fill="#FAFAFA"/>
<path d="M366.48 165.53L323.55 89.68H282.56L325.49 165.53H366.48Z" fill="white"/>
<path d="M316.68 165.53L273.76 89.68H257.78L300.7 165.53H316.68Z" fill="white"/>
<path d="M96.73 165.53V89.68H95.1V165.53H96.73Z" fill="#E6E6E6"/>
<path d="M250 427.56C357.083 427.56 443.89 422.492 443.89 416.24C443.89 409.988 357.083 404.92 250 404.92C142.918 404.92 56.1101 409.988 56.1101 416.24C56.1101 422.492 142.918 427.56 250 427.56Z" fill="#F5F5F5"/>
<path d="M197.61 402.89L205.14 400.11L199.37 382.36L191.84 385.14L197.61 402.89Z" fill="#FFC3BD"/>
<path d="M203.86 394.68L195.6 397.58C195.454 397.63 195.332 397.733 195.256 397.867C195.181 398.002 195.157 398.159 195.19 398.31L196.74 405.37C196.783 405.546 196.862 405.711 196.973 405.855C197.083 405.999 197.222 406.119 197.381 406.206C197.54 406.294 197.715 406.347 197.896 406.363C198.076 406.379 198.258 406.358 198.43 406.3C201.43 405.2 205.62 403.52 209.36 402.21C213.74 400.67 215.06 400.78 219.98 398.5C222.98 397.13 222.07 393.82 220.67 394.14C214.3 395.56 212.49 395.89 205.95 394.62C205.26 394.454 204.539 394.475 203.86 394.68Z" fill="#263238"/>
<path opacity="0.2" d="M199.37 382.36L202.35 391.51L194.81 394.29L191.83 385.14L199.37 382.36Z" fill="black"/>
<path d="M205.46 394.91C205.426 394.91 205.392 394.9 205.363 394.88C205.334 394.86 205.312 394.832 205.3 394.8C205.277 394.768 205.265 394.729 205.265 394.69C205.265 394.651 205.277 394.612 205.3 394.58C205.59 394.28 208.18 391.63 209.3 391.83C209.402 391.85 209.496 391.897 209.573 391.965C209.651 392.034 209.708 392.122 209.74 392.22C209.807 392.381 209.835 392.556 209.821 392.73C209.807 392.904 209.752 393.072 209.66 393.22C209.05 394.22 206.78 394.72 205.49 394.9L205.46 394.91ZM209.14 392.21C208.51 392.21 207.04 393.43 206.01 394.43C207.77 394.13 209.01 393.62 209.34 393.03C209.392 392.928 209.419 392.815 209.419 392.7C209.419 392.585 209.392 392.472 209.34 392.37C209.327 392.33 209.303 392.294 209.272 392.266C209.24 392.238 209.202 392.218 209.16 392.21H209.14Z" fill="#1C20A6"/>
<path d="M205.46 394.91H205.41C205.378 394.9 205.349 394.882 205.326 394.858C205.304 394.833 205.288 394.803 205.28 394.77C205.28 394.68 204.86 392.53 205.58 391.38C205.784 391.048 206.111 390.811 206.49 390.72C207 390.6 207.22 390.8 207.31 391C207.71 391.82 206.38 394.12 205.59 394.86C205.573 394.877 205.553 394.89 205.53 394.898C205.508 394.907 205.484 394.911 205.46 394.91ZM206.76 391.06H206.56C206.422 391.09 206.291 391.15 206.178 391.234C206.064 391.319 205.969 391.426 205.9 391.55C205.531 392.41 205.427 393.36 205.6 394.28C206.36 393.38 207.21 391.63 206.97 391.14C207 391.14 206.92 391.06 206.76 391.06Z" fill="#1C20A6"/>
<path d="M163.11 312.47C145.61 274.06 132.27 257.64 133.62 236.99L161.83 234.1C161.83 234.1 178.39 284 183.1 307.75C188 332.43 203 385.6 203 385.6L190.53 389.09C190.53 389.09 166.12 340.14 163.11 312.47Z" fill="#1C20A6"/>
<path opacity="0.2" d="M136.43 256.18C139.43 265.25 144.7 275.12 151.27 288.03C151.61 288.67 151.95 289.31 152.27 289.97C151.09 274.3 150.1 261.11 136.43 256.18Z" fill="black"/>
<path d="M203.47 381.81L204.42 387.38L191.19 392.67L188.8 387.97L203.47 381.81Z" fill="#263238"/>
<path d="M122.35 392.66L121.72 411.31L130.64 411.19L131.28 392.53L122.35 392.66Z" fill="#FFC3BD"/>
<path d="M130.53 407.15L121.76 407.29C121.606 407.292 121.458 407.349 121.344 407.452C121.23 407.556 121.157 407.697 121.14 407.85L120.38 415.02C120.365 415.202 120.388 415.385 120.447 415.558C120.507 415.73 120.602 415.888 120.726 416.022C120.85 416.156 121.001 416.262 121.169 416.334C121.337 416.406 121.518 416.442 121.7 416.44C124.85 416.33 125.85 416.08 129.82 416.01C134.47 415.94 135.9 416.13 141.35 416.01C144.65 415.95 145.18 412.62 143.77 412.32C139.3 411.39 134.55 409.61 132.54 407.71C131.965 407.275 131.247 407.075 130.53 407.15Z" fill="#263238"/>
<path opacity="0.2" d="M122.35 392.66L122.02 402.28L130.95 402.15L131.28 392.54L122.35 392.66Z" fill="black"/>
<path d="M128.94 407.76C128.905 407.762 128.87 407.753 128.84 407.735C128.81 407.718 128.786 407.691 128.77 407.66C128.748 407.629 128.736 407.593 128.736 407.555C128.736 407.517 128.748 407.481 128.77 407.45C129.05 407.14 131.48 404.45 132.59 404.61C132.693 404.624 132.79 404.665 132.873 404.728C132.955 404.791 133.02 404.874 133.06 404.97C133.141 405.124 133.183 405.296 133.183 405.47C133.183 405.644 133.141 405.816 133.06 405.97C132.52 407.02 130.25 407.55 128.95 407.77L128.94 407.76ZM132.48 404.98C131.83 404.98 130.48 406.25 129.48 407.28C131.25 406.92 132.48 406.37 132.76 405.79C132.814 405.689 132.843 405.575 132.843 405.46C132.843 405.345 132.814 405.232 132.76 405.13C132.744 405.092 132.718 405.058 132.684 405.034C132.651 405.009 132.611 404.994 132.57 404.99L132.48 404.98Z" fill="#1C20A6"/>
<path d="M128.94 407.76H128.89C128.857 407.751 128.826 407.733 128.802 407.709C128.777 407.684 128.759 407.653 128.75 407.62C128.75 407.53 128.15 405.43 128.81 404.28C128.901 404.113 129.025 403.966 129.174 403.849C129.324 403.732 129.496 403.647 129.68 403.6C129.827 403.532 129.994 403.519 130.15 403.563C130.305 403.607 130.44 403.705 130.53 403.84C130.99 404.64 129.82 406.95 129.07 407.71C129.035 407.742 128.988 407.76 128.94 407.76ZM129.94 403.93H129.75C129.615 403.964 129.487 404.026 129.377 404.112C129.267 404.198 129.176 404.306 129.11 404.43C128.8 405.298 128.765 406.241 129.01 407.13C129.72 406.22 130.45 404.47 130.17 403.99C130.123 403.95 130.062 403.928 130 403.93H129.94Z" fill="#1C20A6"/>
<path d="M122.46 318.79C119.93 290.03 111.9 259.52 115.92 238.56L145.38 236C145.38 236 148.62 295.21 145.38 319.71C142.05 345.19 133.38 396.38 133.38 396.38L120.38 396.57C120.38 396.57 119 347 122.46 318.79Z" fill="#1C20A6"/>
<path d="M135.32 393.49L134.47 399.03L119.93 399.29L119.11 394.05L135.32 393.49Z" fill="#263238"/>
<path d="M188.87 149.89C188.894 149.496 188.839 149.101 188.711 148.728C188.582 148.355 188.38 148.011 188.119 147.716C187.857 147.421 187.539 147.18 187.184 147.007C186.829 146.835 186.444 146.734 186.05 146.71C185.254 146.662 184.472 146.933 183.876 147.461C183.28 147.99 182.918 148.734 182.87 149.53V149.68C182.41 151.68 181.87 153.89 181.38 155.95C180.89 158.01 180.24 160.06 179.53 161.95C178.916 163.765 178.122 165.513 177.16 167.17C176.802 167.792 176.376 168.372 175.89 168.9C174.082 168.641 172.289 168.284 170.52 167.83C168.07 167.19 165.52 166.42 163.06 165.59C160.6 164.76 158.06 163.86 155.54 162.92C153.02 161.98 150.54 160.99 148.11 160.06H148C146.524 159.519 144.896 159.568 143.456 160.198C142.016 160.828 140.874 161.989 140.269 163.44C139.665 164.891 139.643 166.519 140.21 167.985C140.776 169.452 141.887 170.643 143.31 171.31C146.02 172.53 148.62 173.49 151.31 174.5C154 175.51 156.71 176.37 159.49 177.17C162.27 177.97 165.09 178.68 168.04 179.23C171.183 179.879 174.392 180.161 177.6 180.07H177.91C178.727 180.031 179.522 179.787 180.22 179.36C181.771 178.399 183.112 177.134 184.16 175.64C185.019 174.418 185.743 173.107 186.32 171.73C186.855 170.504 187.29 169.236 187.62 167.94C187.95 166.7 188.22 165.47 188.42 164.26C188.814 161.875 189.047 159.466 189.12 157.05C189.197 154.66 189.113 152.268 188.87 149.89Z" fill="#FFC3BD"/>
<path d="M186.88 154L194.7 150.65L188.17 143.39C188.17 143.39 180.86 147.04 182.69 151.39L186.88 154Z" fill="#FFC3BD"/>
<path d="M197.79 145.12L195 141.77C194.653 141.357 194.174 141.076 193.643 140.976C193.113 140.876 192.564 140.962 192.09 141.22L188.22 143.34L194.75 150.6L197.48 148.48C197.728 148.284 197.933 148.04 198.083 147.763C198.234 147.486 198.326 147.181 198.355 146.866C198.384 146.552 198.349 146.235 198.252 145.935C198.155 145.635 197.998 145.358 197.79 145.12Z" fill="#FFC3BD"/>
<path d="M143.05 157.14C150.98 156.58 166.7 165.69 166.7 165.69L159 182.06C154.239 181.052 149.698 179.199 145.59 176.59C143.34 175.2 133.65 157.81 143.05 157.14Z" fill="#263238"/>
<path d="M144 157.12C133.43 157.489 122.946 159.169 112.79 162.12C107.99 163.63 103.79 168.12 104.69 173.06C106.78 185.06 111.34 205.11 113.69 239.87C117.97 241.11 132.14 239.92 142.05 238.94C143.13 238.84 145.7 236.24 145.7 236.24C145.7 236.24 148.13 238.24 149.5 238.04C156.06 237.04 161.26 235.8 162.44 234.47C161.44 224.61 158.82 202.99 157.32 188.95C157.12 183.41 156.26 173.2 153.98 167.41C151.81 161.92 149.84 157 144 157.12Z" fill="#263238"/>
<path d="M123.64 145.46C124.95 151.35 124.51 157.65 121.15 161.91C123.62 165.58 129.37 168.46 135.08 169.91C138.71 165.56 138.51 161.01 136.87 158.61C136.87 155.26 136.5 152.92 136.62 150.41L123.64 145.46Z" fill="#FFC3BD"/>
<path d="M135.08 169.89C135.817 168.889 136.295 167.721 136.47 166.49C136.62 164.69 139.77 165.88 139.77 165.88C138.577 167.597 136.962 168.978 135.08 169.89Z" fill="#E0E0E0"/>
<path d="M135.08 169.89C134.898 169.243 134.522 168.666 134.004 168.238C133.486 167.809 132.85 167.548 132.18 167.49C130.606 167.284 129.006 167.438 127.5 167.94C127.5 167.94 132 170 135.08 169.89Z" fill="#E0E0E0"/>
<path opacity="0.2" d="M127.82 143.83H127.72C127.77 143.91 127.81 143.89 127.82 143.83Z" fill="black"/>
<path opacity="0.2" d="M136.63 150.4L126.41 145.87C125.41 151.26 130.75 153.93 136.76 154.95C136.639 153.437 136.595 151.918 136.63 150.4Z" fill="black"/>
<path d="M136.74 125.65C144.25 124.79 145.95 130.05 142.63 136.85C140.835 135.58 139.365 133.903 138.341 131.957C137.317 130.01 136.769 127.849 136.74 125.65Z" fill="#263238"/>
<path d="M121.24 135.49C122.74 143.32 122.77 148.35 127.82 151C139.01 156.88 143.82 151.82 144.67 143.68C145.46 136.35 142.88 124.77 134.75 122.68C132.949 122.22 131.06 122.224 129.26 122.692C127.46 123.16 125.808 124.076 124.459 125.355C123.11 126.635 122.107 128.236 121.544 130.008C120.981 131.78 120.876 133.666 121.24 135.49Z" fill="#FFC3BD"/>
<path d="M123.44 141C126.44 141.73 127.66 140.58 127.77 140.14C126.996 140.027 126.243 139.794 125.54 139.45C125.54 139.45 127.22 138.92 127.39 137.74C126.04 137.74 123.49 135.74 124.3 133.61C125.11 131.48 124.81 130.94 123.44 130.38C120.891 129.716 118.234 129.577 115.63 129.97C116.092 130.381 116.615 130.719 117.18 130.97C117.18 130.97 114.18 132.49 115.63 134.97C117.08 137.45 120.07 139.53 119.83 141.03C122.23 141.92 123.44 141 123.44 141Z" fill="#263238"/>
<path d="M142 122.81C144.72 122.81 146.24 121.25 146.43 119.5C144.1 120.82 140.73 120.15 134.54 118.02C128.89 116.02 124.88 117.2 122.18 119.31C122.23 118.11 124.49 116.24 124.49 116.24C124.49 116.24 119.14 116.24 116.56 120.46C114.5 123.83 116.67 125.61 116.67 125.61C116.67 125.61 112.24 125.55 110.94 129.1C113.83 127.8 115.37 129.34 115.37 129.34C114.719 129.845 113.994 130.246 113.22 130.53C114.15 132.1 116.78 131.29 116.78 131.29C121.36 134 135.1 130 137.27 129C136.087 128.839 134.931 128.523 133.83 128.06C133.83 128.06 142.67 125.31 146.33 127.4C147 125.74 144.34 123.47 142 122.81Z" fill="#1C20A6"/>
<path d="M141.63 144.51C141.63 144.51 139.22 143.9 132.52 143.77C132.931 144.961 133.725 145.983 134.778 146.676C135.831 147.368 137.083 147.693 138.34 147.6C138.765 147.642 139.195 147.592 139.599 147.454C140.004 147.316 140.374 147.094 140.686 146.801C140.997 146.508 141.243 146.153 141.405 145.758C141.568 145.362 141.645 144.937 141.63 144.51Z" fill="#263238"/>
<path d="M136.69 146C138.028 145.949 139.348 146.324 140.46 147.07C139.836 147.491 139.091 147.695 138.34 147.65C137.003 147.695 135.685 147.321 134.57 146.58C135.194 146.16 135.939 145.956 136.69 146Z" fill="#ED847E"/>
<path d="M141.32 144.45C141.15 144.88 140.98 145.32 140.32 145.45C138.322 145.411 136.332 145.2 134.37 144.82C134.05 144.79 133.743 144.683 133.473 144.509C133.203 144.335 132.979 144.099 132.82 143.82C135.666 143.802 138.508 144.013 141.32 144.45Z" fill="white"/>
<path opacity="0.2" d="M132.28 142.59C132.28 142.59 130.43 142.39 130.74 143.87C131 143.24 132.28 142.59 132.28 142.59Z" fill="black"/>
<path opacity="0.2" d="M131.1 136.27C130.036 135.834 128.844 135.834 127.78 136.27C128.876 136.484 130.004 136.484 131.1 136.27Z" fill="black"/>
<path opacity="0.2" d="M131 137.07C130.489 136.967 129.963 136.978 129.456 137.101C128.95 137.223 128.477 137.455 128.07 137.78C129.086 137.752 130.084 137.51 131 137.07Z" fill="black"/>
<path opacity="0.2" d="M142.15 134.84C142.15 134.84 142.99 133.9 143.63 134.2C143.209 134.552 142.695 134.775 142.15 134.84Z" fill="black"/>
<path opacity="0.2" d="M142.15 135.43C142.15 135.43 142.96 134.82 143.43 135.43C143.227 135.515 143.01 135.558 142.79 135.558C142.57 135.558 142.353 135.515 142.15 135.43Z" fill="black"/>
<path d="M118.56 142.2C119.184 143.909 120.461 145.301 122.11 146.07C124.31 147.07 125.79 145.19 125.51 142.92C125.25 140.92 123.8 137.92 121.44 137.86C120.924 137.859 120.416 137.985 119.96 138.229C119.505 138.472 119.118 138.825 118.832 139.255C118.547 139.685 118.372 140.179 118.325 140.693C118.278 141.207 118.358 141.725 118.56 142.2Z" fill="#FFC3BD"/>
<path d="M132.27 136.59C132.36 137.23 132.76 137.71 133.18 137.65C133.6 137.59 133.88 137.03 133.8 136.38C133.72 135.73 133.31 135.26 132.89 135.32C132.47 135.38 132.19 136 132.27 136.59Z" fill="#263238"/>
<path d="M140.3 135.51C140.38 136.15 140.79 136.63 141.21 136.57C141.63 136.51 141.9 135.94 141.82 135.3C141.74 134.66 141.33 134.18 140.91 134.24C140.49 134.3 140.21 134.86 140.3 135.51Z" fill="#263238"/>
<path d="M137.64 135.9C138.741 137.719 140.087 139.378 141.64 140.83C141.252 141.223 140.782 141.526 140.263 141.718C139.745 141.91 139.191 141.986 138.64 141.94L137.64 135.9Z" fill="#ED847E"/>
<path d="M130.24 133.67C130.181 133.683 130.119 133.683 130.06 133.67C130.016 133.646 129.977 133.613 129.945 133.574C129.914 133.534 129.891 133.489 129.878 133.44C129.865 133.391 129.862 133.341 129.869 133.291C129.876 133.241 129.894 133.193 129.92 133.15C130.205 132.612 130.614 132.15 131.113 131.802C131.612 131.454 132.187 131.231 132.79 131.15C132.84 131.147 132.89 131.154 132.937 131.171C132.984 131.188 133.028 131.214 133.065 131.247C133.102 131.28 133.132 131.321 133.154 131.366C133.175 131.411 133.188 131.46 133.19 131.51C133.194 131.559 133.188 131.609 133.173 131.656C133.157 131.703 133.133 131.747 133.1 131.784C133.067 131.821 133.027 131.852 132.983 131.873C132.938 131.895 132.89 131.907 132.84 131.91C132.365 131.98 131.914 132.16 131.521 132.436C131.129 132.712 130.806 133.077 130.58 133.5C130.543 133.556 130.493 133.601 130.433 133.631C130.373 133.66 130.307 133.674 130.24 133.67Z" fill="#263238"/>
<path d="M142.5 131.34C142.44 131.357 142.376 131.358 142.315 131.344C142.254 131.33 142.197 131.301 142.15 131.26C141.808 130.928 141.392 130.683 140.937 130.543C140.481 130.404 139.999 130.376 139.53 130.46C139.482 130.473 139.431 130.477 139.381 130.47C139.331 130.463 139.283 130.446 139.24 130.419C139.197 130.393 139.159 130.358 139.13 130.317C139.101 130.276 139.081 130.229 139.07 130.18C139.046 130.083 139.06 129.981 139.111 129.895C139.161 129.809 139.244 129.746 139.34 129.72C139.935 129.605 140.548 129.635 141.128 129.81C141.708 129.984 142.238 130.296 142.67 130.72C142.74 130.793 142.779 130.889 142.779 130.99C142.779 131.091 142.74 131.187 142.67 131.26C142.623 131.304 142.564 131.332 142.5 131.34Z" fill="#263238"/>
<path d="M122.25 211.28H122.08C119.91 210.8 117.56 210.28 115.38 209.6C113.234 208.992 111.132 208.237 109.09 207.34C107.283 206.596 105.597 205.584 104.09 204.34C103.544 203.883 103.078 203.339 102.71 202.73C102.605 202.534 102.515 202.33 102.44 202.12C102.44 202.06 102.52 201.82 102.55 201.65L102.75 200.98L103 200.22C103.38 199.16 103.84 197.99 104.35 196.83C105.35 194.51 106.54 192.12 107.74 189.74C108.94 187.36 110.19 184.97 111.45 182.59L115.26 175.47C116.019 174.064 116.196 172.417 115.753 170.882C115.311 169.347 114.283 168.047 112.893 167.262C111.502 166.476 109.858 166.267 108.315 166.68C106.772 167.093 105.453 168.095 104.64 169.47C103.16 171.95 101.87 174.4 100.55 176.9C99.2301 179.4 98.0001 181.9 96.8301 184.54C95.6601 187.18 94.5201 189.78 93.5101 192.54C93.0101 193.95 92.5101 195.38 92.1001 196.96L91.8101 198.19C91.7201 198.64 91.6301 199.06 91.5501 199.54C91.4636 200.063 91.4035 200.591 91.3701 201.12C91.3701 201.44 91.3701 201.65 91.3701 202.05C91.3701 202.45 91.3701 202.8 91.4301 203.17V203.25C91.4498 203.467 91.49 203.681 91.5501 203.89C92.0505 205.797 92.9503 207.577 94.1901 209.11C95.2958 210.45 96.5931 211.619 98.0401 212.58C100.526 214.167 103.256 215.336 106.12 216.04C108.704 216.7 111.341 217.128 114 217.32C116.606 217.53 119.224 217.53 121.83 217.32C122.626 217.373 123.41 217.108 124.01 216.583C124.61 216.058 124.977 215.316 125.03 214.52C125.083 213.724 124.818 212.94 124.293 212.34C123.768 211.74 123.026 211.373 122.23 211.32L122.25 211.28Z" fill="#FFC3BD"/>
<path d="M112.25 162.27C103.31 164.71 94.25 187.54 94.25 187.54L107.8 198.32C107.8 198.32 116.16 191.06 118.01 182.48C119.4 175.9 121.34 159.78 112.25 162.27Z" fill="#263238"/>
<path d="M117.53 210.87L125.07 207.81L126.07 217.52C126.07 217.52 118.91 219.46 117.26 215.82L117.53 210.87Z" fill="#FFC3BD"/>
<path d="M132.88 211L132.66 214.46C132.616 215.127 132.336 215.756 131.871 216.236C131.406 216.716 130.785 217.015 130.12 217.08L126.06 217.48L125.06 207.77L130.18 208C130.556 208.014 130.926 208.103 131.267 208.263C131.608 208.422 131.913 208.648 132.165 208.928C132.417 209.208 132.61 209.536 132.733 209.892C132.856 210.247 132.906 210.624 132.88 211Z" fill="#FFC3BD"/>
<path d="M122.67 158.51C122.9 160.35 124.07 166.51 132.18 167.51C129.3 168.2 129.27 172.88 129.27 172.88C129.27 172.88 118.71 167.37 120.27 159.96C120.869 159.203 121.721 158.688 122.67 158.51Z" fill="white"/>
<path d="M136.91 156.68C136.71 158.62 137.27 161.25 136.47 166.49C139.36 165.85 140.95 169.89 140.95 169.89C140.95 169.89 143.14 162.66 138.65 157.03C138.087 156.843 137.502 156.726 136.91 156.68Z" fill="white"/>
<path d="M282.63 138.44C286.86 132.92 294.63 126.38 301.75 132.73C308.35 138.64 308.11 156.73 300.42 161.64C300.67 153.16 287.29 152.83 289.98 142.48C288.602 144.303 286.909 145.864 284.98 147.09L282.63 138.44Z" fill="#263238"/>
<path d="M280.8 136.13C284.39 135.13 285.32 134.7 286.8 135.34C288.28 135.98 287.73 138.83 289.05 140.96C290.37 143.09 292.11 144.81 287.83 146.88C285.94 145.715 284.331 144.147 283.116 142.289C281.901 140.431 281.11 138.328 280.8 136.13Z" fill="#1C20A6"/>
<path d="M266.44 134.11C250.36 129.69 250.07 153.11 253.01 167.11C254.027 164.1 255.654 161.332 257.79 158.98L271.57 169.05C281.3 166.05 298.2 154.86 284.57 140.92C279.42 124.78 266.44 134.11 266.44 134.11Z" fill="#263238"/>
<path d="M287.62 387.61L297.5 388.33C296.14 396.2 294.85 408.63 294.85 408.63H287C287 408.63 287.91 393 287.62 387.61Z" fill="#B55B52"/>
<path d="M235.74 387.61L245.55 388.33C243.34 396.2 240.74 408.63 240.74 408.63H232.9C232.9 408.63 235.46 393 235.74 387.61Z" fill="#B55B52"/>
<path d="M278.52 416.4C285.33 416.4 284.85 416.29 288.69 416.16C291.97 416.05 292.69 416.46 295.37 416.4C297.57 416.4 297.64 414.24 297.14 411.82C296.95 410.89 296.66 409.82 296.39 408.47C296.317 408.095 296.115 407.758 295.819 407.516C295.523 407.275 295.152 407.145 294.77 407.15H286.77C286.478 407.151 286.19 407.22 285.93 407.352C285.669 407.484 285.443 407.675 285.27 407.91C284.323 409.152 283.132 410.188 281.77 410.953C280.408 411.719 278.904 412.197 277.35 412.36C273.68 412.85 275.81 416.4 278.52 416.4Z" fill="#1C20A6"/>
<path d="M221.07 413.33C227.63 414.45 228.38 414.15 232.07 414.66C235.28 415.1 235.54 415.84 238.75 416.4C240.87 416.77 242.09 414.49 242 412.61C242 411.48 241.72 410.16 241.73 408.77C241.744 408.411 241.625 408.06 241.396 407.783C241.168 407.507 240.845 407.324 240.49 407.27L233.66 406.09C233.391 406.045 233.116 406.055 232.851 406.121C232.586 406.186 232.337 406.305 232.12 406.47C230.602 407.674 228.857 408.559 226.99 409.075C225.122 409.59 223.17 409.725 221.25 409.47C217.63 409.14 218.44 412.87 221.07 413.33Z" fill="#1C20A6"/>
<path d="M246.39 233.92C246.39 233.92 240.2 282.08 240.74 312.67C238.39 341.39 234.61 396.32 234.61 396.32C234.73 397.78 242.47 397.2 243.84 396.32C243.84 396.32 261.58 359.25 258.69 312.67C278.4 264.09 277.22 233.92 277.22 233.92H246.39Z" fill="#1C20A6"/>
<path opacity="0.2" d="M271.73 272.81C270.2 279.09 268.24 286.04 265.73 293.61C264.99 278.36 260.87 257.95 260.73 257.26L271.73 272.81Z" fill="black"/>
<path d="M254.78 233.92C254.78 233.92 268.87 288.28 274.45 314.98C280.31 342.98 288.52 377.69 286.89 396.32C288.46 397.24 294.07 397.32 297.24 396.32C297.24 396.32 309.3 343.21 293.96 316.22C299.51 249.8 281.96 233.92 281.96 233.92H254.78Z" fill="#1C20A6"/>
<path d="M286.22 392.44C286.154 393.723 285.996 394.999 285.75 396.26C285.725 396.364 285.723 396.472 285.742 396.577C285.761 396.683 285.803 396.783 285.863 396.871C285.923 396.96 286.001 397.034 286.092 397.091C286.183 397.148 286.284 397.185 286.39 397.2C290.16 397.81 295.67 396.93 297.39 396.62C297.553 396.59 297.702 396.51 297.819 396.392C297.935 396.274 298.012 396.123 298.04 395.96L298.71 392.38C298.732 392.267 298.729 392.151 298.701 392.039C298.672 391.928 298.619 391.824 298.545 391.736C298.471 391.647 298.379 391.577 298.274 391.529C298.169 391.481 298.055 391.458 297.94 391.46L286.94 391.67C286.749 391.693 286.572 391.783 286.44 391.924C286.308 392.065 286.23 392.247 286.22 392.44Z" fill="#263238"/>
<path opacity="0.1" d="M286.22 392.44C286.154 393.723 285.996 394.999 285.75 396.26C285.725 396.364 285.723 396.472 285.742 396.577C285.761 396.683 285.803 396.783 285.863 396.871C285.923 396.96 286.001 397.034 286.092 397.091C286.183 397.148 286.284 397.185 286.39 397.2C290.16 397.81 295.67 396.93 297.39 396.62C297.553 396.59 297.702 396.51 297.819 396.392C297.935 396.274 298.012 396.123 298.04 395.96L298.71 392.38C298.732 392.267 298.729 392.151 298.701 392.039C298.672 391.928 298.619 391.824 298.545 391.736C298.471 391.647 298.379 391.577 298.274 391.529C298.169 391.481 298.055 391.458 297.94 391.46L286.94 391.67C286.749 391.693 286.572 391.783 286.44 391.924C286.308 392.065 286.23 392.247 286.22 392.44Z" fill="white"/>
<path d="M233.86 392.27C233.76 393.27 233.57 395.04 233.38 396.36C233.364 396.461 233.369 396.565 233.394 396.664C233.419 396.763 233.464 396.857 233.525 396.939C233.587 397.021 233.664 397.089 233.752 397.141C233.841 397.193 233.938 397.227 234.04 397.24C237.433 397.518 240.844 397.478 244.23 397.12C244.398 397.105 244.558 397.038 244.687 396.929C244.815 396.82 244.907 396.673 244.95 396.51L245.95 392.94C245.986 392.826 245.994 392.705 245.975 392.587C245.956 392.469 245.91 392.357 245.84 392.26C245.77 392.163 245.679 392.083 245.573 392.028C245.467 391.972 245.35 391.942 245.23 391.94L234.75 391.52C234.642 391.51 234.534 391.522 234.43 391.555C234.327 391.587 234.232 391.64 234.149 391.71C234.066 391.779 233.998 391.865 233.948 391.961C233.899 392.057 233.869 392.162 233.86 392.27Z" fill="#263238"/>
<path opacity="0.1" d="M233.86 392.27C233.76 393.27 233.57 395.04 233.38 396.36C233.364 396.461 233.369 396.565 233.394 396.664C233.419 396.763 233.464 396.857 233.525 396.939C233.587 397.021 233.664 397.089 233.752 397.141C233.841 397.193 233.938 397.227 234.04 397.24C237.433 397.518 240.844 397.478 244.23 397.12C244.398 397.105 244.558 397.038 244.687 396.929C244.815 396.82 244.907 396.673 244.95 396.51L245.95 392.94C245.986 392.826 245.994 392.705 245.975 392.587C245.956 392.469 245.91 392.357 245.84 392.26C245.77 392.163 245.679 392.083 245.573 392.028C245.467 391.972 245.35 391.942 245.23 391.94L234.75 391.52C234.642 391.51 234.534 391.522 234.43 391.555C234.327 391.587 234.232 391.64 234.149 391.71C234.066 391.779 233.998 391.865 233.948 391.961C233.899 392.057 233.869 392.162 233.86 392.27Z" fill="white"/>
<path d="M254.83 183.57C254.209 183.185 253.519 182.927 252.798 182.81C252.077 182.693 251.34 182.719 250.629 182.887C249.919 183.055 249.248 183.362 248.656 183.79C248.064 184.218 247.563 184.758 247.18 185.38C245.76 187.68 244.41 190.04 243.01 192.38C241.61 194.72 240.27 197.06 238.93 199.38C236.74 203.19 234.59 207.02 232.45 210.85C232 210.75 231.55 210.64 231.08 210.49C229.392 209.947 227.748 209.279 226.16 208.49C224.49 207.69 222.83 206.77 221.16 205.79C219.49 204.81 217.83 203.79 216.27 202.74L216.13 202.66C215.578 202.299 214.914 202.147 214.26 202.231C213.605 202.315 213.002 202.631 212.559 203.121C212.116 203.61 211.863 204.242 211.845 204.902C211.827 205.562 212.045 206.207 212.46 206.72C213.17 207.62 213.85 208.39 214.59 209.17C215.33 209.95 216.05 210.72 216.82 211.46C218.4 212.951 220.07 214.344 221.82 215.63C223.653 216.977 225.608 218.148 227.66 219.13C229.991 220.272 232.514 220.971 235.1 221.19C235.92 221.247 236.74 221.087 237.477 220.725C238.215 220.363 238.844 219.813 239.3 219.13L239.53 218.79C242.563 214.237 245.523 209.647 248.41 205.02C249.86 202.71 251.28 200.37 252.68 198.02C254.08 195.67 255.48 193.34 256.81 190.94C257.48 189.69 257.648 188.232 257.281 186.863C256.913 185.493 256.036 184.316 254.83 183.57Z" fill="#B55B52"/>
<path d="M204.33 206.27L206.2 208.27C206.546 208.643 206.976 208.929 207.454 209.103C207.932 209.277 208.445 209.334 208.95 209.27L213.73 208.64C214.671 208.514 215.569 208.166 216.349 207.626C217.13 207.085 217.771 206.367 218.22 205.53L218.78 204.53C215.91 200.99 210.2 199.27 210.2 199.27L208.62 198.6C208.301 198.452 207.957 198.369 207.606 198.355C207.254 198.342 206.904 198.399 206.576 198.523C206.247 198.647 205.946 198.835 205.691 199.077C205.436 199.318 205.232 199.608 205.09 199.93L203.72 203.03C203.502 203.572 203.443 204.165 203.551 204.739C203.659 205.313 203.93 205.845 204.33 206.27Z" fill="#B55B52"/>
<path d="M253.85 177.79C247.06 179.07 243.46 184.79 236.78 196.85C238.33 201.34 248.87 205.63 248.87 205.63C248.87 205.63 265 186.55 253.85 177.79Z" fill="#263238"/>
<path d="M280 225.44C280.163 228.284 280.497 231.116 281 233.92H246.75L246.39 225.18C246.39 225.18 272.85 223.68 280 225.44Z" fill="#B55B52"/>
<path d="M243.09 189.8C242.887 195.074 242.967 200.355 243.33 205.62C243.62 212.49 242.33 214.18 243.33 225.44C247.09 227.65 271.85 227.56 284.03 225.99C283.29 216.24 282.38 209.67 288.98 187.75C290.51 182.67 287.1 177.75 281.65 177.26C280.19 177.13 278.65 177.01 277.06 176.94C271.5 176.565 265.92 176.565 260.36 176.94C258.55 177.09 256.67 177.31 254.87 177.54C248.41 178.39 243.29 183.71 243.09 189.8Z" fill="#263238"/>
<path d="M275.92 158.16C274.47 163.53 272.68 173.37 276.17 176.96C276.17 176.96 278.85 181.96 263.01 181.18C251.92 180.61 259.48 176.96 259.48 176.96C265.57 175.53 265.75 171.08 265.02 166.91L275.92 158.16Z" fill="#B55B52"/>
<path opacity="0.2" d="M271.47 161.73L265 166.9C265.19 167.889 265.291 168.893 265.3 169.9C267.61 169.57 270.94 167.05 271.36 164.66C271.58 163.699 271.617 162.705 271.47 161.73Z" fill="black"/>
<path d="M280.59 148.53C279.06 156.7 278.59 160.18 273.92 164.09C266.92 169.99 257.28 166.87 256.36 158.54C255.53 151.05 258.18 138.95 266.59 136.25C268.379 135.609 270.306 135.459 272.172 135.814C274.039 136.169 275.776 137.017 277.204 138.27C278.632 139.523 279.699 141.135 280.295 142.939C280.89 144.743 280.992 146.673 280.59 148.53Z" fill="#B55B52"/>
<path d="M277.61 148C274.42 153.11 277.61 155.65 277.61 155.65L281.3 152L277.61 148Z" fill="#263238"/>
<path d="M259.84 157.57C259.84 157.57 264.34 157.07 268.84 156.62C266.68 159.69 260.86 160.86 259.84 157.57Z" fill="white"/>
<path d="M267.65 149.89C267.55 150.58 267.11 151.11 266.65 151.08C266.19 151.05 265.93 150.46 266.03 149.77C266.13 149.08 266.57 148.55 267.03 148.58C267.49 148.61 267.75 149.2 267.65 149.89Z" fill="#263238"/>
<path d="M259.31 149.4C259.21 150.09 258.77 150.62 258.31 150.59C257.85 150.56 257.59 149.97 257.69 149.28C257.79 148.59 258.23 148.05 258.69 148.09C259.15 148.13 259.41 148.71 259.31 149.4Z" fill="#263238"/>
<path d="M258.88 148.14L257.32 147.54C257.32 147.54 258 148.9 258.88 148.14Z" fill="#263238"/>
<path d="M261.47 150.7C260.637 152.234 259.612 153.655 258.42 154.93C258.737 155.209 259.113 155.411 259.521 155.522C259.928 155.633 260.355 155.649 260.77 155.57L261.47 150.7Z" fill="#A02724"/>
<path d="M281.75 155.5C281.487 156.251 281.072 156.939 280.53 157.52C279.987 158.102 279.33 158.565 278.6 158.88C276.76 159.57 275.72 157.49 276.13 155.26C276.5 153.26 277.9 150.47 279.8 150.76C281.7 151.05 282.51 153.5 281.75 155.5Z" fill="#B55B52"/>
<path d="M266.44 135.29C264.11 141.11 281.16 150.29 282.03 157.46C286.28 150.32 282.18 129.84 266.44 135.29Z" fill="#263238"/>
<path d="M267.47 135C261.53 136.61 259.84 141 259.84 141C259.84 141 272.11 137.89 267.47 135Z" fill="#263238"/>
<path d="M270 146.18C269.946 146.181 269.893 146.17 269.845 146.148C269.796 146.125 269.754 146.092 269.72 146.05C269.395 145.678 268.983 145.392 268.52 145.218C268.058 145.043 267.56 144.986 267.07 145.05C267.02 145.06 266.968 145.06 266.918 145.049C266.868 145.038 266.821 145.016 266.78 144.986C266.739 144.956 266.704 144.918 266.678 144.874C266.652 144.83 266.636 144.781 266.63 144.73C266.615 144.622 266.642 144.512 266.705 144.423C266.768 144.334 266.863 144.272 266.97 144.25C267.589 144.162 268.22 144.229 268.807 144.446C269.393 144.662 269.917 145.021 270.33 145.49C270.398 145.574 270.431 145.682 270.422 145.79C270.412 145.898 270.362 145.999 270.28 146.07C270.2 146.135 270.102 146.173 270 146.18Z" fill="#263238"/>
<path d="M257.73 144C257.679 144.007 257.628 144.002 257.58 143.987C257.531 143.971 257.487 143.945 257.45 143.91C257.412 143.873 257.382 143.828 257.362 143.779C257.341 143.731 257.331 143.678 257.331 143.625C257.331 143.572 257.341 143.519 257.362 143.471C257.382 143.422 257.412 143.377 257.45 143.34C257.869 142.834 258.4 142.433 259 142.165C259.6 141.898 260.254 141.773 260.91 141.8C260.961 141.807 261.01 141.825 261.054 141.852C261.099 141.878 261.137 141.914 261.167 141.956C261.197 141.998 261.218 142.046 261.229 142.097C261.24 142.147 261.24 142.199 261.23 142.25C261.208 142.357 261.149 142.452 261.062 142.518C260.976 142.584 260.869 142.617 260.76 142.61C260.241 142.596 259.726 142.702 259.254 142.918C258.783 143.135 258.367 143.457 258.04 143.86C258 143.903 257.952 143.937 257.899 143.961C257.846 143.985 257.788 143.998 257.73 144Z" fill="#263238"/>
<path d="M267.22 148.63L265.66 148.03C265.66 148.03 266.31 149.39 267.22 148.63Z" fill="#263238"/>
<path d="M273.03 211.35H263.44L262.64 195.65H273.83L273.03 211.35Z" fill="#1C20A6"/>
<path d="M270.05 207.38H263.2L262.84 199.67H270.05V207.38Z" fill="white"/>
<path d="M274.43 194.9H273.2L273 194.1H263.46L263.26 194.9H262.04L261.65 196.41H274.81L274.43 194.9Z" fill="white"/>
<path d="M270 199L272.73 198.77C273.237 198.727 273.748 198.805 274.219 198.998C274.69 199.191 275.109 199.493 275.44 199.88L278.56 203.56C279.177 204.283 279.611 205.144 279.825 206.07C280.039 206.996 280.027 207.96 279.79 208.88L279.5 210.03C274.99 210.73 269.61 208.16 269.61 208.16L268 207.6C267.665 207.495 267.354 207.323 267.086 207.097C266.818 206.87 266.597 206.593 266.437 206.28C266.277 205.967 266.181 205.626 266.154 205.276C266.127 204.925 266.17 204.573 266.28 204.24L267.35 201.02C267.55 200.464 267.907 199.977 268.377 199.619C268.847 199.261 269.411 199.046 270 199Z" fill="#B55B52"/>
<path d="M297.28 208.82C297.115 206.31 296.781 203.815 296.28 201.35C295.797 198.917 295.176 196.513 294.42 194.15C294.03 192.98 293.62 191.81 293.18 190.65C292.95 190.07 292.73 189.48 292.48 188.9C292.23 188.32 291.99 187.78 291.65 187.08C291.052 185.741 289.948 184.692 288.58 184.164C287.212 183.636 285.69 183.671 284.347 184.262C283.004 184.853 281.95 185.951 281.415 187.317C280.88 188.682 280.907 190.204 281.49 191.55L281.6 191.84L282.14 193.17L282.71 194.63C283.09 195.63 283.43 196.63 283.76 197.63C284.43 199.63 285.01 201.68 285.53 203.72C286.05 205.76 286.42 207.82 286.72 209.86C286.78 210.25 286.82 210.63 286.87 211.02L286.77 210.95C285.49 210 284.21 208.95 282.93 207.86L279.08 204.56L279.01 204.5C278.513 204.081 277.886 203.848 277.236 203.841C276.586 203.833 275.954 204.053 275.448 204.46C274.942 204.868 274.593 205.44 274.462 206.076C274.331 206.713 274.426 207.375 274.73 207.95C275.607 209.562 276.572 211.124 277.62 212.63C278.664 214.149 279.793 215.608 281 217C281.63 217.72 282.31 218.42 283 219.13C283.807 219.91 284.688 220.61 285.63 221.22C286.237 221.614 286.88 221.948 287.55 222.22C288.579 222.643 289.69 222.828 290.8 222.76C291.625 222.709 292.432 222.502 293.18 222.15C293.937 221.774 294.616 221.259 295.18 220.63C295.977 219.739 296.561 218.679 296.89 217.53C296.972 217.287 297.022 217.035 297.04 216.78V216.48C297.324 213.937 297.404 211.376 297.28 208.82Z" fill="#B55B52"/>
<path d="M282 177.35C288 178.27 290.39 180.09 295.28 192.12C293.06 196.61 282.66 200.9 282.66 200.9C282.66 200.9 275.8 185.32 282 177.35Z" fill="#263238"/>
<path d="M246.32 236.54C258.591 237.897 270.975 237.873 283.24 236.47C283.369 236.451 283.491 236.402 283.598 236.327C283.704 236.253 283.792 236.154 283.854 236.04C283.916 235.925 283.951 235.798 283.955 235.668C283.96 235.538 283.934 235.408 283.88 235.29C283.58 234.59 283.28 233.88 282.99 233.17C282.928 233.013 282.816 232.88 282.672 232.791C282.528 232.703 282.358 232.664 282.19 232.68C270.396 233.985 258.494 233.985 246.7 232.68C246.595 232.67 246.488 232.682 246.388 232.714C246.287 232.747 246.193 232.799 246.113 232.868C246.033 232.937 245.968 233.021 245.921 233.116C245.874 233.211 245.846 233.314 245.84 233.42C245.77 234.16 245.69 234.89 245.62 235.62C245.591 235.835 245.649 236.052 245.78 236.224C245.911 236.397 246.105 236.51 246.32 236.54Z" fill="#263238"/>
<path d="M337.62 412.72C344.78 412.17 349.62 407.25 349.1 402.05C348.82 399.17 358 398.92 358 398.92C356.55 407.82 358.37 409.09 359 411.39C359.63 413.69 359.45 416.23 357.55 416.28C355.28 416.34 354.22 415.9 351.39 416.01C348.09 416.14 344.52 416.27 338.65 416.28C336.27 416.29 334.44 413 337.62 412.72Z" fill="#1C20A6"/>
<path d="M327.16 245C327.16 245 328.44 286.72 334.52 318.15C335.96 344.75 348.52 403.23 348.52 403.23C351.654 403.97 354.921 403.939 358.04 403.14C358.04 403.14 364.39 360.42 358.04 317.7C362.68 272.92 361.1 245 361.1 245H327.16Z" fill="#263238"/>
<path opacity="0.2" d="M361.33 265.79C361.11 278.31 360.33 296.04 358.08 317.73C358.55 320.93 358.93 324.15 359.22 327.34C343.66 301.59 340 260.89 361.33 265.79Z" fill="black"/>
<path d="M412.64 399C410.022 396.197 407.801 393.047 406.04 389.64C406.04 389.64 397.85 391.64 399.46 394.02C402.38 398.31 403.8 407.11 400.04 411.84C397.89 414.53 401.29 414.98 403.53 413.84C407.1 412 406.95 411.32 408.81 408.29C410.39 405.69 411.02 404.67 413.2 403.56C415 402.59 414.14 400.79 412.64 399Z" fill="#1C20A6"/>
<path d="M339.53 245C339.53 245 353.33 303 362.03 327.74C371.17 353.74 398.03 393.87 399.03 395.6C402.62 394.6 405.82 393.39 407.95 391.3C407.95 391.3 397.72 349.67 386.17 321.43C381.77 262.52 366.94 245 366.94 245H339.53Z" fill="#263238"/>
<path d="M299.13 191L298.48 187.6C298.239 186.368 297.68 185.22 296.86 184.27L295.32 182.47C294.823 181.893 294.14 181.509 293.39 181.383C292.639 181.256 291.868 181.397 291.21 181.78L289.21 182.97C288.837 183.187 288.511 183.476 288.25 183.82C287.99 184.164 287.801 184.556 287.694 184.974C287.587 185.392 287.564 185.827 287.627 186.254C287.69 186.681 287.837 187.091 288.06 187.46L289.06 189.19C289.06 189.19 291.35 194.32 295.28 196.46L296.28 195.75C297.095 195.238 297.777 194.541 298.272 193.715C298.767 192.89 299.061 191.96 299.13 191Z" fill="#7F3E3B"/>
<path d="M335.35 196.11C334.638 195.718 333.856 195.47 333.049 195.381C332.241 195.291 331.424 195.362 330.644 195.588C329.864 195.815 329.136 196.193 328.502 196.701C327.868 197.21 327.341 197.838 326.95 198.55C326.95 198.49 326.9 198.62 326.86 198.67L326.7 198.91L326.33 199.43C326.08 199.78 325.82 200.14 325.54 200.49C324.98 201.19 324.4 201.89 323.79 202.49C322.614 203.762 321.303 204.902 319.88 205.89C318.547 206.813 317.089 207.54 315.55 208.05C314.79 208.288 314.015 208.475 313.23 208.61C313.087 208.62 312.943 208.62 312.8 208.61C312.448 208.367 312.114 208.1 311.8 207.81C311.099 207.158 310.431 206.47 309.8 205.75C308.46 204.25 307.17 202.55 305.87 200.84C303.29 197.4 300.76 193.74 298.23 190.16L298.18 190.09C297.747 189.493 297.115 189.07 296.398 188.897C295.681 188.724 294.926 188.813 294.269 189.146C293.611 189.48 293.094 190.037 292.81 190.718C292.526 191.398 292.494 192.158 292.72 192.86C294.196 197.25 295.994 201.525 298.1 205.65C299.181 207.786 300.376 209.862 301.68 211.87C302.37 212.87 303.11 213.93 303.98 214.99C304.981 216.231 306.149 217.328 307.45 218.25C308.562 219.017 309.828 219.533 311.16 219.76C311.398 219.8 311.639 219.823 311.88 219.83H312.25H313C313.36 219.83 313.72 219.83 314.08 219.83C315.526 219.778 316.965 219.601 318.38 219.3C321.181 218.692 323.864 217.628 326.32 216.15C328.684 214.749 330.85 213.037 332.76 211.06C333.691 210.109 334.569 209.108 335.39 208.06C335.8 207.53 336.19 206.98 336.58 206.41L337.14 205.52L337.42 205.05L337.75 204.46C338.526 203.032 338.71 201.356 338.261 199.793C337.812 198.231 336.766 196.908 335.35 196.11Z" fill="#7F3E3B"/>
<path d="M325.53 204.41C325.68 207.8 320.32 215.65 326.93 220.2C325.7 222.96 324.65 241.68 327.16 245.03C330.81 247.71 350.56 247.19 366.94 245.03C367.63 238.26 363.94 224.24 368.47 202.37C368.722 201.173 368.719 199.937 368.461 198.741C368.203 197.546 367.696 196.418 366.974 195.431C366.251 194.444 365.329 193.621 364.267 193.014C363.205 192.407 362.027 192.031 360.81 191.91C359.43 191.77 357.98 191.65 356.48 191.58C351.263 191.205 346.027 191.205 340.81 191.58C339.12 191.73 337.37 191.95 335.7 192.18C332.79 192.594 330.138 194.075 328.258 196.335C326.379 198.595 325.406 201.473 325.53 204.41Z" fill="#1C20A6"/>
<path d="M357 173.94C355.75 178.94 354.53 187.2 356.52 191.58C356.52 191.58 348 192.73 338.52 200.32C336.91 192.7 340.3 191.63 340.3 191.63C344.3 190.71 344.88 185.9 344.88 182.15L357 173.94Z" fill="#7F3E3B"/>
<path opacity="0.2" d="M344.81 182.15L351.72 177.48C351.783 178.537 351.569 179.591 351.1 180.54C349.646 183.266 347.277 185.391 344.41 186.54C344.695 185.094 344.829 183.623 344.81 182.15Z" fill="black"/>
<path d="M360.25 164.69C358.25 172.89 357.62 176.4 352.76 179.93C345.45 185.23 336.01 181.05 335.54 172.43C335.11 164.67 338.4 152.57 346.94 150.68C355.48 148.79 362.21 156.49 360.25 164.69Z" fill="#7F3E3B"/>
<path d="M358.48 169.53C354.95 164.77 356.68 160.99 358.48 159.64C351.26 157.31 342.66 159 340.7 154.64C342.01 148.45 344.03 142.64 347.47 137.75C351.88 131.51 370.87 141.96 374.42 154.1C375.63 158.15 360.59 174.3 358.48 169.53Z" fill="#263238"/>
<path d="M347 165.57C346.88 166.25 346.42 166.73 346 166.65C345.58 166.57 345.3 165.96 345.42 165.29C345.54 164.62 345.99 164.13 346.42 164.21C346.85 164.29 347.15 164.9 347 165.57Z" fill="#263238"/>
<path d="M338.71 164.22C338.59 164.89 338.13 165.38 337.71 165.3C337.29 165.22 337.01 164.61 337.13 163.94C337.25 163.27 337.71 162.78 338.13 162.86C338.55 162.94 338.83 163.55 338.71 164.22Z" fill="#263238"/>
<path d="M338.31 162.93L336.78 162.17C336.78 162.17 337.38 163.59 338.31 162.93Z" fill="#263238"/>
<path d="M340.72 164.77C339.847 166.2 338.784 167.506 337.56 168.65C337.859 168.957 338.222 169.195 338.623 169.347C339.023 169.499 339.453 169.561 339.88 169.53L340.72 164.77Z" fill="#630F0F"/>
<path d="M360.85 172.33C360.541 173.037 360.085 173.67 359.513 174.187C358.94 174.704 358.264 175.094 357.53 175.33C355.65 175.85 354.73 173.79 355.26 171.71C355.74 169.84 357.26 167.31 359.16 167.71C361.06 168.11 361.71 170.49 360.85 172.33Z" fill="#7F3E3B"/>
<path d="M360.12 177.05C360.12 177.562 359.968 178.063 359.683 178.489C359.399 178.915 358.994 179.247 358.521 179.443C358.048 179.639 357.527 179.69 357.025 179.59C356.522 179.49 356.061 179.244 355.699 178.881C355.336 178.519 355.09 178.058 354.99 177.555C354.89 177.053 354.941 176.532 355.137 176.059C355.333 175.586 355.665 175.181 356.091 174.897C356.517 174.612 357.018 174.46 357.53 174.46C358.217 174.46 358.876 174.733 359.361 175.219C359.847 175.704 360.12 176.363 360.12 177.05Z" fill="#1C20A6"/>
<path d="M349.29 163C349.237 162.984 349.188 162.958 349.147 162.921C349.105 162.885 349.072 162.84 349.05 162.79C348.834 162.333 348.515 161.932 348.117 161.62C347.72 161.308 347.255 161.092 346.76 160.99C346.656 160.977 346.56 160.924 346.495 160.842C346.429 160.759 346.399 160.655 346.41 160.55C346.425 160.444 346.48 160.348 346.564 160.281C346.647 160.214 346.753 160.181 346.86 160.19C347.49 160.305 348.083 160.569 348.589 160.961C349.095 161.352 349.5 161.859 349.77 162.44C349.794 162.486 349.808 162.537 349.812 162.589C349.816 162.641 349.809 162.694 349.792 162.743C349.775 162.792 349.749 162.838 349.714 162.877C349.679 162.916 349.637 162.948 349.59 162.97C349.498 163.019 349.39 163.029 349.29 163Z" fill="#263238"/>
<path d="M336.23 159.79C336.18 159.784 336.132 159.768 336.089 159.742C336.045 159.716 336.008 159.682 335.98 159.64C335.915 159.556 335.886 159.451 335.899 159.346C335.912 159.241 335.967 159.145 336.05 159.08C336.55 158.68 337.139 158.405 337.767 158.28C338.395 158.155 339.045 158.182 339.66 158.36C339.761 158.396 339.843 158.47 339.889 158.567C339.935 158.663 339.941 158.774 339.905 158.875C339.869 158.976 339.795 159.058 339.698 159.104C339.602 159.15 339.491 159.156 339.39 159.12C338.901 158.986 338.388 158.97 337.892 159.075C337.396 159.179 336.933 159.4 336.54 159.72C336.496 159.753 336.446 159.777 336.393 159.789C336.339 159.801 336.284 159.801 336.23 159.79Z" fill="#263238"/>
<path d="M346.63 164.28L345.1 163.53C345.1 163.53 345.7 164.94 346.63 164.28Z" fill="#263238"/>
<path opacity="0.2" d="M367.68 206.61C366.884 211.259 366.399 215.956 366.23 220.67C362.46 215.44 358.18 205.96 358.42 201.53L367.68 206.61Z" fill="black"/>
<path d="M344.36 220.89L340.96 216.32L334.71 223.26C334.71 223.26 338.87 227.01 343.23 227.39L343.86 226.33C344.361 225.525 344.667 224.614 344.754 223.669C344.841 222.725 344.706 221.773 344.36 220.89Z" fill="#7F3E3B"/>
<path d="M334.69 216L332.84 218.69C332.437 219.279 332.282 220.003 332.409 220.705C332.537 221.407 332.936 222.03 333.52 222.44L334.71 223.27L340.96 216.33L338 215C337.418 214.757 336.769 214.724 336.166 214.906C335.562 215.089 335.04 215.475 334.69 216Z" fill="#7F3E3B"/>
<path d="M372.46 214.38C372.021 211.583 371.416 208.815 370.65 206.09C370.27 204.74 369.86 203.41 369.42 202.09C369.2 201.42 368.98 200.76 368.74 200.09C368.5 199.42 368.25 198.81 367.93 198.03C367.352 196.496 366.188 195.254 364.694 194.578C363.201 193.902 361.499 193.847 359.965 194.425C358.431 195.003 357.189 196.167 356.513 197.661C355.837 199.155 355.782 200.856 356.36 202.39L356.44 202.61L357 204.24L357.58 205.97C357.96 207.13 358.32 208.3 358.65 209.48C359.33 211.82 359.9 214.17 360.38 216.48C360.834 218.706 361.128 220.962 361.26 223.23C361.304 224.318 361.271 225.407 361.16 226.49H361C359.206 226.194 357.437 225.759 355.71 225.19C353.85 224.62 351.96 223.93 350.06 223.19C348.16 222.45 346.23 221.7 344.36 220.98H344.24C343.559 220.722 342.81 220.712 342.123 220.952C341.435 221.191 340.854 221.665 340.481 222.289C340.108 222.914 339.966 223.65 340.081 224.369C340.196 225.088 340.561 225.743 341.11 226.22C342.785 227.645 344.534 228.98 346.35 230.22C348.182 231.484 350.078 232.652 352.03 233.72C354.129 234.883 356.34 235.831 358.63 236.55C360.048 236.989 361.517 237.245 363 237.31C364.028 237.354 365.057 237.24 366.05 236.97C367.465 236.591 368.761 235.862 369.82 234.85C370.271 234.401 370.634 233.872 370.89 233.29L370.98 233.1C372.313 229.982 373.016 226.631 373.05 223.24C373.121 220.275 372.923 217.31 372.46 214.38Z" fill="#7F3E3B"/>
<path d="M338.3 171.55C341.211 171.339 344.134 171.366 347.04 171.63C346.14 173.22 344.63 174.47 341.34 174.25C338.05 174.03 338.3 171.55 338.3 171.55Z" fill="#263238"/>
<path d="M343 173.05C341.753 172.907 340.491 173.108 339.35 173.63C339.948 174.013 340.64 174.224 341.35 174.24C342.593 174.384 343.851 174.187 344.99 173.67C344.395 173.288 343.707 173.074 343 173.05Z" fill="#630F0F"/>
<path d="M338.59 171.52C338.652 171.737 338.772 171.934 338.938 172.087C339.104 172.24 339.308 172.345 339.53 172.39C341.432 172.507 343.34 172.487 345.24 172.33C345.531 172.338 345.82 172.278 346.084 172.155C346.348 172.032 346.579 171.849 346.76 171.62C344.042 171.406 341.312 171.372 338.59 171.52Z" fill="white"/>
<path d="M337.71 192.25C337.62 192.249 337.534 192.213 337.47 192.15C337.441 192.117 337.417 192.08 337.4 192.04C337.39 192.001 337.39 191.959 337.4 191.92C337.399 191.832 337.431 191.746 337.49 191.68C337.523 191.651 337.56 191.627 337.6 191.61C337.681 191.58 337.769 191.58 337.85 191.61C337.89 191.627 337.927 191.651 337.96 191.68C337.992 191.71 338.016 191.748 338.03 191.79C338.04 191.833 338.04 191.877 338.03 191.92C338.039 191.959 338.039 192 338.03 192.04C338.016 192.082 337.992 192.12 337.96 192.15C337.928 192.183 337.889 192.209 337.846 192.227C337.802 192.244 337.756 192.252 337.71 192.25Z" fill="white"/>
<path d="M335 210C335 209.912 335.034 209.827 335.096 209.763C335.158 209.7 335.241 209.663 335.33 209.66C335.417 209.66 335.501 209.695 335.563 209.757C335.625 209.819 335.66 209.902 335.66 209.99C335.66 210.078 335.625 210.163 335.564 210.227C335.502 210.29 335.418 210.327 335.33 210.33C335.242 210.33 335.158 210.295 335.097 210.233C335.035 210.171 335 210.087 335 210ZM336.76 209.86C336.75 209.817 336.748 209.773 336.755 209.73C336.762 209.686 336.777 209.645 336.801 209.607C336.824 209.57 336.855 209.538 336.89 209.513C336.926 209.487 336.967 209.469 337.01 209.46C337.096 209.444 337.184 209.461 337.258 209.507C337.332 209.554 337.386 209.626 337.41 209.71C337.425 209.797 337.407 209.887 337.359 209.961C337.31 210.035 337.236 210.089 337.15 210.11H337C336.933 210.104 336.869 210.078 336.817 210.035C336.765 209.992 336.728 209.935 336.71 209.87L336.76 209.86ZM333.49 210.04C333.448 210.026 333.41 210.005 333.377 209.976C333.344 209.948 333.317 209.913 333.297 209.874C333.278 209.835 333.266 209.792 333.263 209.749C333.26 209.705 333.266 209.661 333.28 209.62C333.293 209.577 333.315 209.538 333.345 209.504C333.374 209.47 333.41 209.442 333.45 209.423C333.49 209.403 333.534 209.392 333.579 209.39C333.623 209.387 333.668 209.394 333.71 209.41C333.792 209.439 333.859 209.5 333.896 209.579C333.934 209.657 333.939 209.748 333.91 209.83C333.888 209.895 333.846 209.952 333.791 209.993C333.735 210.034 333.669 210.058 333.6 210.06L333.49 210.04ZM338.49 209.37C338.457 209.289 338.457 209.198 338.491 209.118C338.525 209.037 338.589 208.973 338.67 208.94C338.751 208.907 338.841 208.907 338.922 208.941C339.003 208.975 339.067 209.039 339.1 209.12C339.134 209.2 339.135 209.289 339.103 209.37C339.071 209.45 339.009 209.515 338.93 209.55H338.8C338.724 209.571 338.643 209.565 338.57 209.535C338.498 209.504 338.438 209.449 338.4 209.38L338.49 209.37ZM331.92 209.03C331.889 208.999 331.864 208.963 331.847 208.922C331.83 208.882 331.822 208.839 331.822 208.795C331.822 208.751 331.83 208.708 331.847 208.668C331.864 208.627 331.889 208.591 331.92 208.56C331.951 208.529 331.987 208.504 332.027 208.487C332.068 208.47 332.111 208.462 332.155 208.462C332.199 208.462 332.242 208.47 332.282 208.487C332.323 208.504 332.359 208.529 332.39 208.56C332.422 208.59 332.448 208.626 332.466 208.667C332.484 208.707 332.493 208.751 332.493 208.795C332.493 208.839 332.484 208.883 332.466 208.923C332.448 208.964 332.422 209 332.39 209.03C332.361 209.063 332.326 209.089 332.286 209.106C332.246 209.123 332.203 209.132 332.16 209.13C332.098 209.146 332.033 209.142 331.974 209.119C331.914 209.096 331.864 209.054 331.83 209L331.92 209.03ZM340.08 208.6C340.057 208.564 340.041 208.523 340.034 208.48C340.027 208.437 340.028 208.393 340.039 208.351C340.049 208.309 340.068 208.27 340.094 208.235C340.12 208.201 340.152 208.172 340.19 208.15C340.226 208.127 340.267 208.111 340.31 208.104C340.353 208.097 340.396 208.098 340.438 208.109C340.481 208.119 340.52 208.138 340.555 208.164C340.589 208.19 340.618 208.222 340.64 208.26C340.663 208.296 340.679 208.337 340.686 208.38C340.693 208.423 340.692 208.466 340.681 208.509C340.671 208.551 340.652 208.59 340.626 208.625C340.6 208.659 340.567 208.688 340.53 208.71C340.479 208.741 340.42 208.759 340.36 208.76C340.292 208.78 340.219 208.776 340.153 208.749C340.088 208.721 340.034 208.672 340 208.61L340.08 208.6ZM341.54 207.6C341.487 207.529 341.463 207.441 341.475 207.353C341.486 207.265 341.531 207.185 341.6 207.13C341.634 207.103 341.673 207.082 341.714 207.071C341.756 207.059 341.8 207.056 341.843 207.061C341.886 207.067 341.927 207.081 341.965 207.103C342.002 207.125 342.034 207.155 342.06 207.19C342.114 207.258 342.138 207.344 342.129 207.43C342.12 207.516 342.077 207.595 342.01 207.65C341.95 207.697 341.876 207.722 341.8 207.72C341.739 207.739 341.674 207.741 341.612 207.725C341.55 207.709 341.494 207.676 341.45 207.63L341.54 207.6ZM330.9 207.42C330.863 207.35 330.853 207.268 330.872 207.191C330.89 207.114 330.936 207.046 331 207C331.041 206.984 331.084 206.976 331.128 206.977C331.171 206.978 331.215 206.987 331.255 207.005C331.295 207.023 331.331 207.048 331.361 207.08C331.391 207.112 331.414 207.149 331.43 207.19C331.46 207.272 331.457 207.363 331.421 207.443C331.386 207.523 331.321 207.587 331.24 207.62H331.12C331.058 207.623 330.996 207.608 330.941 207.578C330.886 207.548 330.841 207.504 330.81 207.45L330.9 207.42ZM342.9 206.42C342.839 206.357 342.806 206.273 342.806 206.185C342.806 206.097 342.839 206.013 342.9 205.95C342.963 205.889 343.047 205.856 343.135 205.856C343.222 205.856 343.307 205.889 343.37 205.95C343.401 205.981 343.426 206.017 343.443 206.058C343.46 206.098 343.468 206.141 343.468 206.185C343.468 206.229 343.46 206.272 343.443 206.312C343.426 206.353 343.401 206.389 343.37 206.42C343.339 206.449 343.303 206.473 343.264 206.488C343.224 206.504 343.182 206.511 343.14 206.51C343.086 206.537 343.027 206.549 342.967 206.546C342.907 206.542 342.85 206.523 342.8 206.49L342.9 206.42ZM330.49 205.58C330.481 205.491 330.508 205.403 330.564 205.334C330.62 205.264 330.701 205.22 330.79 205.21C330.877 205.204 330.963 205.232 331.03 205.288C331.097 205.344 331.14 205.423 331.15 205.51C331.155 205.554 331.152 205.598 331.14 205.64C331.127 205.682 331.106 205.722 331.078 205.755C331.05 205.789 331.015 205.817 330.976 205.836C330.937 205.856 330.894 205.868 330.85 205.87C330.806 205.891 330.757 205.901 330.709 205.901C330.66 205.901 330.612 205.89 330.568 205.869C330.524 205.848 330.485 205.817 330.454 205.779C330.424 205.741 330.402 205.697 330.39 205.65L330.49 205.58ZM344.16 205.18C344.129 205.149 344.104 205.113 344.087 205.072C344.07 205.032 344.062 204.989 344.062 204.945C344.062 204.901 344.07 204.858 344.087 204.818C344.104 204.777 344.129 204.741 344.16 204.71C344.191 204.679 344.227 204.654 344.268 204.637C344.308 204.62 344.351 204.612 344.395 204.612C344.439 204.612 344.482 204.62 344.522 204.637C344.563 204.654 344.599 204.679 344.63 204.71C344.661 204.741 344.686 204.777 344.703 204.818C344.72 204.858 344.728 204.901 344.728 204.945C344.728 204.989 344.72 205.032 344.703 205.072C344.686 205.113 344.661 205.149 344.63 205.18C344.6 205.213 344.562 205.239 344.521 205.256C344.479 205.274 344.435 205.282 344.39 205.28C344.337 205.303 344.279 205.312 344.221 205.307C344.164 205.301 344.108 205.282 344.06 205.25L344.16 205.18ZM330.8 204.11C330.714 204.1 330.636 204.057 330.581 203.989C330.527 203.922 330.501 203.836 330.51 203.75C330.512 203.706 330.524 203.663 330.543 203.624C330.563 203.585 330.591 203.55 330.625 203.522C330.658 203.493 330.698 203.473 330.74 203.46C330.782 203.448 330.826 203.444 330.87 203.45C330.956 203.46 331.034 203.503 331.088 203.571C331.143 203.638 331.168 203.724 331.16 203.81C331.152 203.892 331.114 203.969 331.053 204.024C330.992 204.08 330.912 204.11 330.83 204.11H330.8ZM345.36 203.87C345.329 203.84 345.305 203.804 345.288 203.765C345.271 203.725 345.262 203.683 345.262 203.64C345.262 203.597 345.271 203.555 345.288 203.515C345.305 203.476 345.329 203.44 345.36 203.41C345.423 203.349 345.507 203.316 345.595 203.316C345.682 203.316 345.767 203.349 345.83 203.41C345.861 203.441 345.886 203.477 345.903 203.518C345.919 203.558 345.928 203.601 345.928 203.645C345.928 203.689 345.919 203.732 345.903 203.772C345.886 203.813 345.861 203.849 345.83 203.88C345.801 203.919 345.763 203.95 345.72 203.971C345.676 203.991 345.628 204.002 345.58 204C345.526 204.022 345.468 204.028 345.411 204.017C345.354 204.007 345.302 203.98 345.26 203.94L345.36 203.87ZM346.51 202.53C346.475 202.503 346.446 202.469 346.425 202.43C346.404 202.392 346.39 202.349 346.386 202.306C346.381 202.262 346.385 202.217 346.398 202.175C346.411 202.133 346.432 202.094 346.46 202.06C346.491 202.029 346.527 202.004 346.568 201.987C346.608 201.97 346.651 201.962 346.695 201.962C346.739 201.962 346.782 201.97 346.822 201.987C346.863 202.004 346.899 202.029 346.93 202.06C346.961 202.091 346.986 202.127 347.003 202.168C347.02 202.208 347.028 202.251 347.028 202.295C347.028 202.339 347.02 202.382 347.003 202.422C346.986 202.463 346.961 202.499 346.93 202.53C346.9 202.567 346.862 202.598 346.819 202.618C346.775 202.639 346.728 202.65 346.68 202.65C346.634 202.662 346.586 202.664 346.539 202.655C346.493 202.647 346.448 202.628 346.41 202.6L346.51 202.53ZM331 202.43C330.957 202.421 330.917 202.403 330.881 202.377C330.846 202.352 330.816 202.319 330.793 202.282C330.771 202.244 330.756 202.203 330.751 202.159C330.745 202.116 330.748 202.072 330.76 202.03C330.769 201.987 330.787 201.947 330.813 201.911C330.838 201.876 330.87 201.846 330.908 201.823C330.945 201.801 330.987 201.786 331.03 201.781C331.074 201.775 331.118 201.778 331.16 201.79C331.245 201.811 331.318 201.865 331.363 201.94C331.408 202.015 331.421 202.105 331.4 202.19C331.382 202.261 331.341 202.325 331.283 202.37C331.225 202.415 331.153 202.44 331.08 202.44H331V202.43ZM347.57 201.24C347.509 201.177 347.476 201.093 347.476 201.005C347.476 200.917 347.509 200.833 347.57 200.77C347.626 200.702 347.707 200.659 347.795 200.65C347.882 200.641 347.97 200.666 348.04 200.72C348.071 200.751 348.096 200.787 348.113 200.828C348.13 200.868 348.138 200.911 348.138 200.955C348.138 200.999 348.13 201.042 348.113 201.082C348.096 201.123 348.071 201.159 348.04 201.19C348.01 201.227 347.972 201.258 347.929 201.278C347.885 201.299 347.838 201.31 347.79 201.31C347.744 201.317 347.697 201.315 347.652 201.303C347.608 201.291 347.566 201.269 347.53 201.24H347.57ZM331.49 200.73C331.448 200.717 331.41 200.695 331.377 200.666C331.345 200.637 331.318 200.602 331.299 200.563C331.281 200.524 331.27 200.481 331.269 200.438C331.267 200.394 331.274 200.351 331.29 200.31C331.304 200.268 331.327 200.23 331.357 200.197C331.386 200.164 331.422 200.138 331.462 200.119C331.503 200.1 331.546 200.09 331.59 200.088C331.634 200.087 331.679 200.094 331.72 200.11C331.761 200.125 331.798 200.149 331.83 200.179C331.862 200.209 331.887 200.245 331.905 200.285C331.923 200.325 331.932 200.368 331.933 200.412C331.934 200.456 331.926 200.499 331.91 200.54C331.886 200.602 331.843 200.656 331.788 200.693C331.732 200.731 331.667 200.751 331.6 200.75C331.549 200.763 331.495 200.756 331.45 200.73H331.49ZM348.69 199.87C348.659 199.839 348.634 199.803 348.617 199.762C348.6 199.722 348.592 199.679 348.592 199.635C348.592 199.591 348.6 199.548 348.617 199.508C348.634 199.467 348.659 199.431 348.69 199.4C348.746 199.332 348.827 199.289 348.915 199.28C349.002 199.271 349.09 199.296 349.16 199.35C349.191 199.381 349.216 199.417 349.233 199.458C349.25 199.498 349.258 199.541 349.258 199.585C349.258 199.629 349.25 199.672 349.233 199.712C349.216 199.753 349.191 199.789 349.16 199.82C349.13 199.857 349.092 199.888 349.049 199.908C349.005 199.929 348.958 199.94 348.91 199.94C348.864 199.949 348.817 199.947 348.772 199.935C348.727 199.923 348.685 199.9 348.65 199.87H348.69ZM332.16 199.1C332.119 199.082 332.082 199.056 332.052 199.023C332.022 198.99 331.999 198.951 331.985 198.908C331.971 198.866 331.966 198.821 331.97 198.776C331.974 198.732 331.988 198.689 332.01 198.65C332.049 198.572 332.117 198.512 332.199 198.484C332.281 198.456 332.372 198.462 332.45 198.5C332.529 198.541 332.588 198.61 332.616 198.694C332.644 198.779 332.638 198.87 332.6 198.95C332.57 199.004 332.527 199.049 332.474 199.08C332.421 199.112 332.361 199.129 332.3 199.13C332.238 199.138 332.176 199.127 332.12 199.1H332.16ZM349.82 198.51C349.789 198.479 349.764 198.443 349.747 198.402C349.73 198.362 349.722 198.319 349.722 198.275C349.722 198.231 349.73 198.188 349.747 198.148C349.764 198.107 349.789 198.071 349.82 198.04C349.851 198.009 349.887 197.984 349.928 197.967C349.968 197.95 350.011 197.942 350.055 197.942C350.099 197.942 350.142 197.95 350.182 197.967C350.223 197.984 350.259 198.009 350.29 198.04C350.321 198.071 350.346 198.107 350.363 198.148C350.38 198.188 350.388 198.231 350.388 198.275C350.388 198.319 350.38 198.362 350.363 198.402C350.346 198.443 350.321 198.479 350.29 198.51C350.258 198.548 350.218 198.578 350.173 198.599C350.128 198.619 350.079 198.63 350.03 198.63C349.982 198.629 349.935 198.617 349.892 198.597C349.849 198.576 349.811 198.546 349.78 198.51H349.82ZM332.98 197.51C332.907 197.461 332.856 197.387 332.835 197.301C332.815 197.216 332.827 197.127 332.87 197.05C332.919 196.977 332.993 196.926 333.078 196.906C333.164 196.885 333.253 196.897 333.33 196.94C333.402 196.989 333.454 197.063 333.474 197.149C333.495 197.234 333.482 197.323 333.44 197.4C333.411 197.448 333.37 197.488 333.321 197.517C333.272 197.545 333.216 197.559 333.16 197.56C333.086 197.574 333.01 197.567 332.94 197.54L332.98 197.51ZM350.98 197.15C350.949 197.119 350.924 197.083 350.907 197.042C350.89 197.002 350.882 196.959 350.882 196.915C350.882 196.871 350.89 196.828 350.907 196.788C350.924 196.747 350.949 196.711 350.98 196.68C351.01 196.648 351.046 196.622 351.087 196.604C351.127 196.586 351.171 196.577 351.215 196.577C351.259 196.577 351.303 196.586 351.343 196.604C351.384 196.622 351.42 196.648 351.45 196.68C351.51 196.742 351.543 196.824 351.543 196.91C351.543 196.996 351.51 197.078 351.45 197.14C351.419 197.176 351.38 197.204 351.337 197.223C351.294 197.242 351.247 197.251 351.2 197.25C351.154 197.256 351.107 197.253 351.063 197.241C351.018 197.229 350.976 197.208 350.94 197.18L350.98 197.15ZM333.98 196.02C333.944 195.995 333.914 195.963 333.891 195.926C333.868 195.889 333.852 195.848 333.846 195.805C333.839 195.762 333.841 195.718 333.853 195.676C333.864 195.634 333.883 195.594 333.91 195.56C333.964 195.489 334.043 195.442 334.131 195.429C334.218 195.416 334.308 195.438 334.38 195.49C334.448 195.543 334.493 195.621 334.506 195.706C334.519 195.792 334.499 195.879 334.45 195.95C334.418 195.992 334.378 196.027 334.331 196.051C334.284 196.075 334.233 196.088 334.18 196.09C334.133 196.106 334.084 196.111 334.035 196.104C333.986 196.097 333.94 196.078 333.9 196.05L333.98 196.02ZM352.23 195.86C352.199 195.829 352.174 195.793 352.157 195.752C352.14 195.712 352.132 195.669 352.132 195.625C352.132 195.581 352.14 195.538 352.157 195.498C352.174 195.457 352.199 195.421 352.23 195.39C352.261 195.359 352.297 195.334 352.337 195.317C352.378 195.3 352.421 195.292 352.465 195.292C352.509 195.292 352.552 195.3 352.592 195.317C352.633 195.334 352.669 195.359 352.7 195.39C352.731 195.421 352.756 195.457 352.773 195.498C352.789 195.538 352.798 195.581 352.798 195.625C352.798 195.669 352.789 195.712 352.773 195.752C352.756 195.793 352.731 195.829 352.7 195.86C352.638 195.919 352.555 195.951 352.47 195.95C352.416 195.966 352.358 195.969 352.303 195.958C352.247 195.948 352.195 195.924 352.15 195.89L352.23 195.86ZM353.51 194.64C353.449 194.577 353.416 194.493 353.416 194.405C353.416 194.317 353.449 194.233 353.51 194.17C353.541 194.139 353.577 194.114 353.618 194.097C353.658 194.08 353.701 194.072 353.745 194.072C353.789 194.072 353.832 194.08 353.872 194.097C353.913 194.114 353.949 194.139 353.98 194.17C354.011 194.201 354.036 194.237 354.053 194.278C354.07 194.318 354.078 194.361 354.078 194.405C354.078 194.449 354.07 194.492 354.053 194.532C354.036 194.573 354.011 194.609 353.98 194.64C353.918 194.691 353.84 194.719 353.76 194.72C353.705 194.739 353.646 194.744 353.589 194.736C353.531 194.727 353.477 194.704 353.43 194.67L353.51 194.64ZM335.06 194.64C335.029 194.609 335.004 194.573 334.987 194.532C334.97 194.492 334.962 194.449 334.962 194.405C334.962 194.361 334.97 194.318 334.987 194.278C335.004 194.237 335.029 194.201 335.06 194.17C335.091 194.139 335.127 194.114 335.168 194.097C335.208 194.08 335.251 194.072 335.295 194.072C335.339 194.072 335.382 194.08 335.422 194.097C335.463 194.114 335.499 194.139 335.53 194.17C335.59 194.233 335.624 194.317 335.624 194.405C335.624 194.493 335.59 194.577 335.53 194.64C335.5 194.677 335.462 194.708 335.419 194.728C335.375 194.749 335.328 194.76 335.28 194.76C335.229 194.764 335.178 194.757 335.129 194.739C335.081 194.722 335.037 194.695 335 194.66L335.06 194.64ZM354.87 193.52C354.845 193.485 354.827 193.445 354.818 193.402C354.808 193.36 354.807 193.316 354.815 193.273C354.822 193.231 354.838 193.19 354.861 193.153C354.884 193.117 354.914 193.085 354.95 193.06C355.02 193.009 355.108 192.987 355.194 193C355.28 193.013 355.358 193.06 355.41 193.13C355.462 193.202 355.484 193.291 355.471 193.379C355.458 193.467 355.411 193.546 355.34 193.6C355.281 193.639 355.211 193.66 355.14 193.66C355.076 193.675 355.01 193.671 354.948 193.65C354.886 193.629 354.831 193.591 354.79 193.54L354.87 193.52ZM336.25 193.33C336.219 193.299 336.194 193.263 336.177 193.222C336.16 193.182 336.152 193.139 336.152 193.095C336.152 193.051 336.16 193.008 336.177 192.968C336.194 192.927 336.219 192.891 336.25 192.86C336.281 192.829 336.317 192.804 336.358 192.787C336.398 192.77 336.441 192.762 336.485 192.762C336.529 192.762 336.572 192.77 336.612 192.787C336.653 192.804 336.689 192.829 336.72 192.86C336.751 192.891 336.776 192.927 336.793 192.968C336.81 193.008 336.818 193.051 336.818 193.095C336.818 193.139 336.81 193.182 336.793 193.222C336.776 193.263 336.751 193.299 336.72 193.33C336.657 193.387 336.575 193.419 336.49 193.42C336.435 193.434 336.377 193.436 336.321 193.423C336.266 193.411 336.214 193.386 336.17 193.35L336.25 193.33ZM356.34 192.54C356.317 192.502 356.301 192.46 356.295 192.416C356.288 192.372 356.291 192.327 356.302 192.284C356.313 192.242 356.333 192.201 356.36 192.166C356.387 192.131 356.421 192.102 356.46 192.08C356.498 192.059 356.54 192.045 356.583 192.04C356.626 192.036 356.67 192.039 356.712 192.051C356.754 192.063 356.793 192.084 356.827 192.111C356.861 192.138 356.889 192.172 356.91 192.21C356.953 192.286 356.965 192.375 356.943 192.46C356.92 192.544 356.865 192.616 356.79 192.66C356.734 192.675 356.676 192.675 356.62 192.66C356.557 192.682 356.489 192.684 356.424 192.666C356.36 192.648 356.303 192.611 356.26 192.56L356.34 192.54Z" fill="white"/>
<path d="M358.16 191.93C358.121 191.941 358.079 191.941 358.04 191.93C358 191.913 357.963 191.889 357.93 191.86C357.898 191.828 357.871 191.791 357.85 191.75C357.844 191.707 357.844 191.663 357.85 191.62C357.853 191.533 357.888 191.451 357.95 191.39C357.978 191.356 358.017 191.331 358.06 191.32C358.12 191.296 358.186 191.29 358.25 191.302C358.314 191.315 358.373 191.345 358.42 191.39C358.479 191.452 358.511 191.535 358.51 191.62C358.52 191.663 358.52 191.707 358.51 191.75C358.493 191.79 358.469 191.827 358.44 191.86C358.401 191.89 358.355 191.912 358.307 191.924C358.259 191.936 358.209 191.938 358.16 191.93Z" fill="white"/>
<path d="M326 240.88C324.53 243.51 325.14 251.95 327.65 255.54C342.5 256.23 363.27 246.9 369.31 248.62C370.53 245.57 368.38 244.27 368.31 242.04C368.24 239.81 367.98 237.26 364.99 238.44C362 239.62 341.45 242.91 326 240.88Z" fill="#1C20A6"/>
<path opacity="0.5" d="M326 240.88C324.53 243.51 325.14 251.95 327.65 255.54C342.5 256.23 363.27 246.9 369.31 248.62C370.53 245.57 368.38 244.27 368.31 242.04C368.24 239.81 367.98 237.26 364.99 238.44C362 239.62 341.45 242.91 326 240.88Z" fill="white"/>
<path d="M315.07 37.33C337.99 43.81 354.85 67.73 352.73 90.74C351.36 105.53 342.5 116.33 330.26 120.46C330.134 122.709 330.726 124.939 331.95 126.83C331.95 126.83 326.09 125 324 122C318.429 122.739 312.764 122.306 307.37 120.73C284.44 114.25 267.58 90.33 269.71 67.31C271.84 44.29 292.14 30.84 315.07 37.33Z" fill="#1C20A6"/>
<path opacity="0.7" d="M315.07 37.33C337.99 43.81 354.85 67.73 352.73 90.74C351.36 105.53 342.5 116.33 330.26 120.46C330.134 122.709 330.726 124.939 331.95 126.83C331.95 126.83 326.09 125 324 122C318.429 122.739 312.764 122.306 307.37 120.73C284.44 114.25 267.58 90.33 269.71 67.31C271.84 44.29 292.14 30.84 315.07 37.33Z" fill="white"/>
<path d="M145.09 74.22C145.581 72.0753 146.524 70.06 147.855 68.3081C149.186 66.5562 150.875 65.1081 152.81 64.06C151.716 62.4246 151.141 60.4973 151.16 58.53C151.25 52.19 157.59 47.15 165.31 47.26C168.594 47.2856 171.789 48.3343 174.45 50.26C177.52 43.61 186.54 41.13 194.75 44.72C201.61 47.72 205.75 54.02 205.28 59.95C206.7 59.7095 208.142 59.6257 209.58 59.7C218.58 60.2 225.58 66.61 225.21 74.02C224.96 78.53 222.02 82.36 217.73 84.56C220.73 90.24 220.84 96.66 217.51 101.56C214.18 106.46 208.51 108.63 202.32 108.2C197.52 112.89 189.66 115.12 181.51 113.42C179.933 113.091 178.389 112.615 176.9 112C174.07 115.67 168.03 115.71 168.03 115.71C169.936 114.006 171.287 111.77 171.91 109.29C169.111 107.372 166.813 104.81 165.21 101.82C161.6 101.93 156.21 101.05 153.1 97.99C150.6 95.53 149.27 91.55 150.1 88.89C146 84.85 144 79.51 145.09 74.22Z" fill="#1C20A6"/>
<path opacity="0.2" d="M145.09 74.22C145.581 72.0753 146.524 70.06 147.855 68.3081C149.186 66.5562 150.875 65.1081 152.81 64.06C151.716 62.4246 151.141 60.4973 151.16 58.53C151.25 52.19 157.59 47.15 165.31 47.26C168.594 47.2856 171.789 48.3343 174.45 50.26C177.52 43.61 186.54 41.13 194.75 44.72C201.61 47.72 205.75 54.02 205.28 59.95C206.7 59.7095 208.142 59.6257 209.58 59.7C218.58 60.2 225.58 66.61 225.21 74.02C224.96 78.53 222.02 82.36 217.73 84.56C220.73 90.24 220.84 96.66 217.51 101.56C214.18 106.46 208.51 108.63 202.32 108.2C197.52 112.89 189.66 115.12 181.51 113.42C179.933 113.091 178.389 112.615 176.9 112C174.07 115.67 168.03 115.71 168.03 115.71C169.936 114.006 171.287 111.77 171.91 109.29C169.111 107.372 166.813 104.81 165.21 101.82C161.6 101.93 156.21 101.05 153.1 97.99C150.6 95.53 149.27 91.55 150.1 88.89C146 84.85 144 79.51 145.09 74.22Z" fill="black"/>
<path d="M266.55 122.58L266.34 121.58C271.227 120.585 276.039 119.248 280.74 117.58L281.09 118.52C276.344 120.211 271.485 121.568 266.55 122.58Z" fill="#1C20A6"/>
<path d="M255.05 124.59L254.91 123.59C256.81 123.32 258.71 123.03 260.53 122.71L260.7 123.71C258.87 124 257 124.32 255.05 124.59Z" fill="#1C20A6"/>
<path d="M287 77.54C286.901 75.8882 286.219 74.325 285.077 73.1278C283.935 71.9305 282.405 71.1767 280.76 71C257.3 68.55 224.46 74 211.36 76.54C209.71 76.856 208.227 77.7511 207.178 79.0638C206.129 80.3766 205.584 82.0207 205.64 83.7C206.11 99.2 210.14 109.37 216.58 119.6C217.204 120.577 218.058 121.387 219.067 121.957C220.077 122.527 221.211 122.841 222.37 122.87C226.99 123 231.54 122.96 235.96 122.78C238.27 125.997 241.306 128.624 244.82 130.45C244.396 127.72 244.396 124.94 244.82 122.21C259 120.98 271.39 118.33 279.88 115.21C280.919 114.822 281.853 114.197 282.609 113.385C283.364 112.572 283.919 111.595 284.23 110.53C287.49 99.61 287.53 85.89 287 77.54Z" fill="#1C20A6"/>
</svg>
