<svg width="538" height="391" viewBox="0 0 538 391" fill="none" xmlns="http://www.w3.org/2000/svg">
<g clip-path="url(#clip0_49_117)">
<path d="M484.871 137.532H484.299C478.09 137.525 472.136 135.068 467.745 130.7C463.354 126.331 460.884 120.409 460.877 114.231V106.275H391.18V105.138H462.019V114.231C462.026 120.009 464.298 125.556 468.352 129.694C472.406 133.832 477.922 136.233 483.728 136.388V105.138H500.295C502.567 105.136 504.745 104.237 506.352 102.638C507.958 101.04 508.862 98.8735 508.865 96.6134V9.66134C508.862 7.40123 507.958 5.23442 506.352 3.63628C504.745 2.03814 502.567 1.13919 500.295 1.13663H282.065C279.793 1.13919 277.615 2.03814 276.009 3.63628C274.402 5.23442 273.498 7.40123 273.496 9.66134V72.7442H272.353V9.66134C272.356 7.09988 273.38 4.64415 275.201 2.83292C277.022 1.0217 279.49 0.00288355 282.065 0H500.295C502.87 0.00288355 505.339 1.0217 507.159 2.83292C508.98 4.64415 510.004 7.09988 510.007 9.66134V96.6134C510.004 99.1748 508.98 101.631 507.159 103.442C505.339 105.253 502.87 106.272 500.295 106.275H484.871V137.532Z" fill="#CCCCCC"/>
<path d="M464.293 28.7055C464.221 26.872 463.439 25.1372 462.11 23.8648C460.781 22.5924 459.008 21.8812 457.163 21.8801H325.197C323.303 21.8801 321.487 22.6285 320.147 23.9608C318.808 25.293 318.056 27.0999 318.056 28.984C318.056 30.8681 318.808 32.675 320.147 34.0073C321.487 35.3395 323.303 36.0879 325.197 36.0879H457.163C459.057 36.0853 460.871 35.3361 462.21 34.0044C463.549 32.6727 464.302 30.8673 464.304 28.984C464.306 28.8911 464.303 28.798 464.293 28.7055Z" fill="#CCCCCC"/>
<path d="M464.293 52.5747C464.221 50.7411 463.439 49.0064 462.11 47.734C460.781 46.4616 459.008 45.7503 457.163 45.7493H325.197C323.303 45.7493 321.487 46.4977 320.147 47.83C318.808 49.1622 318.056 50.9691 318.056 52.8532C318.056 54.7373 318.808 56.5442 320.147 57.8764C321.487 59.2087 323.303 59.9571 325.197 59.9571H457.163C459.057 59.9545 460.871 59.2052 462.21 57.8735C463.549 56.5419 464.302 54.7365 464.304 52.8532C464.306 52.7602 464.303 52.6672 464.293 52.5747Z" fill="#CCCCCC"/>
<path d="M464.293 76.4439C464.221 74.6103 463.439 72.8756 462.109 71.6032C460.78 70.3308 459.008 69.6195 457.163 69.6185H325.197C324.15 69.6185 323.116 69.8476 322.168 70.2896C321.221 70.7316 320.382 71.3755 319.712 72.1759C319.419 72.53 319.159 72.9106 318.936 73.3125H382.039C384.311 73.3153 386.489 74.2143 388.096 75.8124C389.702 77.4105 390.606 79.5772 390.609 81.8372V83.8263H457.163C459.056 83.8237 460.871 83.0744 462.21 81.7427C463.549 80.4111 464.302 78.6057 464.304 76.7224C464.306 76.6294 464.302 76.5364 464.293 76.4439Z" fill="#CCCCCC"/>
<path d="M14.0064 389.127C14.3171 389.381 14.6281 389.624 14.9462 389.863H93.4429C94.0276 389.624 94.6097 389.379 95.1893 389.127C103.476 385.54 111.189 380.762 118.083 374.948C122.66 371.09 126.871 367.107 129.923 363.375C134.182 358.166 138.105 352.49 139.929 346.023C141.749 339.555 141.206 332.142 137.139 326.778C135.88 325.129 134.332 323.718 132.569 322.615C132.277 322.431 131.981 322.255 131.677 322.089C126.618 319.38 120.716 318.674 115.156 320.112C107.293 322.133 100.758 327.776 96.096 334.394C91.4337 341.009 88.4068 348.607 85.4246 356.12C82.3977 342.71 73.2323 330.699 60.8513 324.592C48.474 318.485 33.0958 318.559 20.9813 325.174C17.1696 327.267 13.7263 329.965 10.7871 333.161C10.495 333.474 10.2098 333.794 9.92871 334.118C4.01955 340.925 0.322939 349.641 0.0195822 358.63C-0.116806 364.434 1.07087 370.194 3.49339 375.476C5.9159 380.758 9.51024 385.425 14.0064 389.127Z" fill="#F2F2F2"/>
<path d="M90.3052 389.863H91.4152C91.4299 389.617 91.4485 389.374 91.4707 389.127C91.8587 384.312 92.671 379.541 93.8981 374.867C96.7134 364.197 101.522 354.15 108.074 345.25C114.606 336.321 122.842 328.759 132.31 322.994C132.379 322.955 132.439 322.9 132.484 322.835C132.529 322.769 132.558 322.694 132.569 322.615C132.587 322.512 132.576 322.407 132.536 322.31C132.496 322.214 132.429 322.131 132.343 322.07C132.257 322.01 132.156 321.975 132.052 321.97C131.947 321.965 131.843 321.99 131.751 322.041C131.726 322.056 131.701 322.072 131.677 322.089C126.313 325.342 121.333 329.184 116.832 333.544C108.781 341.357 102.288 350.616 97.6982 360.831C93.6486 369.778 91.1681 379.348 90.3642 389.127C90.342 389.374 90.3236 389.62 90.3052 389.863Z" fill="white"/>
<path d="M9.92872 334.118C9.93676 334.123 9.94555 334.125 9.95457 334.126C10.7649 334.273 11.579 334.428 12.3857 334.593C19.0073 335.946 25.4893 337.904 31.7491 340.442C37.9923 342.977 43.9978 346.057 49.6952 349.645C55.3998 353.231 60.7793 357.306 65.7726 361.822C70.7659 366.331 75.3463 371.273 79.4598 376.59C82.5342 380.573 85.3295 384.762 87.8259 389.127C87.9665 389.37 88.1035 389.617 88.2404 389.863H89.5095C89.3764 389.617 89.2394 389.37 89.0988 389.127C86.0786 383.779 82.6156 378.69 78.7456 373.914C74.466 368.628 69.7221 363.731 64.57 359.282C59.4507 354.857 53.9564 350.882 48.1484 347.399C42.3163 343.903 36.1845 340.927 29.8249 338.506C23.6533 336.159 17.2816 334.37 10.7871 333.161C10.6059 333.128 10.4283 333.095 10.2469 333.062C9.55509 332.937 9.25896 333.975 9.92872 334.118Z" fill="white"/>
<path d="M32.0024 372.544C39.7323 371.486 47.5824 371.662 55.2565 373.066C62.9083 374.457 70.2953 377.027 77.1518 380.681C81.005 382.741 84.6622 385.144 88.0782 387.862C88.6362 388.306 87.8463 389.083 87.2933 388.643C81.2991 383.9 74.5798 380.142 67.3908 377.514C60.2586 374.889 52.7619 373.377 45.1656 373.028C40.8674 372.832 36.5601 373.026 32.2974 373.609C32.1557 373.643 32.0063 373.622 31.8796 373.55C31.7528 373.479 31.6582 373.362 31.6147 373.223C31.5765 373.082 31.5957 372.932 31.6683 372.805C31.7408 372.677 31.8609 372.584 32.0024 372.544Z" fill="white"/>
<path d="M381.468 73.3125H163.238C160.663 73.3161 158.195 74.3352 156.375 76.1462C154.554 77.9573 153.53 80.4126 153.526 82.9738V169.926C153.53 172.487 154.554 174.942 156.375 176.753C158.195 178.565 160.663 179.584 163.238 179.587H178.663V210.844H179.234C185.444 210.838 191.398 208.381 195.789 204.013C200.18 199.644 202.65 193.721 202.657 187.544V179.587H381.468C384.043 179.584 386.511 178.565 388.331 176.753C390.152 174.942 391.176 172.487 391.18 169.926V82.9738C391.176 80.4126 390.152 77.9573 388.331 76.1462C386.511 74.3352 384.043 73.3161 381.468 73.3125ZM390.037 169.926C390.035 172.186 389.131 174.353 387.525 175.951C385.918 177.549 383.74 178.448 381.468 178.451H201.514V187.544C201.506 193.321 199.234 198.868 195.18 203.006C191.127 207.144 185.611 209.546 179.805 209.702V178.451H163.238C160.966 178.448 158.788 177.549 157.182 175.951C155.575 174.353 154.671 172.186 154.669 169.926V82.9738C154.671 80.7138 155.575 78.5471 157.182 76.949C158.788 75.3509 160.966 74.4519 163.238 74.4491H381.468C383.74 74.4519 385.918 75.3509 387.525 76.949C389.131 78.5471 390.035 80.7138 390.037 82.9738V169.926Z" fill="#3F3D56"/>
<path d="M338.337 95.1926H206.37C204.525 95.1937 202.753 95.9049 201.424 97.1773C200.095 98.4497 199.312 100.184 199.24 102.018C199.231 102.111 199.227 102.204 199.229 102.297C199.232 104.18 199.985 105.985 201.324 107.317C202.662 108.648 204.477 109.398 206.37 109.4H338.337C340.23 109.4 342.047 108.652 343.386 107.32C344.725 105.988 345.478 104.181 345.478 102.297C345.478 100.412 344.725 98.6055 343.386 97.2733C342.047 95.941 340.23 95.1926 338.337 95.1926Z" fill="#1C20A6"/>
<path d="M338.337 119.062H206.37C204.525 119.063 202.753 119.774 201.424 121.046C200.095 122.319 199.312 124.054 199.24 125.887C199.231 125.98 199.227 126.073 199.229 126.166C199.232 128.049 199.985 129.854 201.324 131.186C202.662 132.518 204.477 133.267 206.37 133.27H338.337C340.23 133.27 342.047 132.521 343.386 131.189C344.725 129.857 345.478 128.05 345.478 126.166C345.478 124.282 344.725 122.475 343.386 121.142C342.047 119.81 340.23 119.062 338.337 119.062Z" fill="#1C20A6"/>
<path d="M338.337 142.931H206.37C204.525 142.932 202.753 143.643 201.424 144.916C200.095 146.188 199.312 147.923 199.24 149.756C199.231 149.849 199.227 149.942 199.229 150.035C199.232 151.918 199.985 153.724 201.324 155.055C202.662 156.387 204.477 157.136 206.37 157.139H338.337C340.23 157.139 342.047 156.39 343.386 155.058C344.725 153.726 345.478 151.919 345.478 150.035C345.478 148.151 344.725 146.344 343.386 145.012C342.047 143.679 340.23 142.931 338.337 142.931Z" fill="#1C20A6"/>
<path d="M128.382 268.653C128.125 268.653 127.868 268.637 127.613 268.605C126.734 268.498 125.888 268.207 125.129 267.752C124.371 267.297 123.718 266.687 123.213 265.963C122.709 265.239 122.363 264.418 122.2 263.552C122.037 262.686 122.059 261.795 122.266 260.939C122.315 260.74 122.374 260.544 122.443 260.351L103.382 236.076C102.543 234.999 102.076 233.681 102.049 232.319C102.022 230.956 102.438 229.621 103.234 228.512L109.91 219.288L118.637 225.985L115.131 231.976L129.015 256.186C129.294 256.211 129.571 256.256 129.844 256.32C131.34 256.678 132.652 257.569 133.532 258.824C134.411 260.08 134.798 261.612 134.618 263.132C134.438 264.652 133.703 266.054 132.554 267.071C131.405 268.089 129.921 268.651 128.382 268.653Z" fill="#A0616A"/>
<path d="M161.369 383.679L168.373 383.678L171.704 356.804L161.368 356.805L161.369 383.679Z" fill="#A0616A"/>
<path d="M181.88 390.147L159.868 390.148L159.868 381.688L173.375 381.687C174.492 381.687 175.598 381.906 176.63 382.331C177.662 382.756 178.599 383.38 179.389 384.165C180.179 384.951 180.805 385.883 181.233 386.91C181.66 387.936 181.88 389.036 181.88 390.147Z" fill="#2F2E41"/>
<path d="M103.669 383.679L110.673 383.678L114.005 356.804L103.668 356.805L103.669 383.679Z" fill="#A0616A"/>
<path d="M124.18 390.147L102.168 390.148L102.168 381.688L115.675 381.687C116.792 381.687 117.898 381.906 118.93 382.331C119.962 382.756 120.899 383.38 121.689 384.165C122.479 384.951 123.105 385.883 123.533 386.91C123.96 387.936 124.18 389.036 124.18 390.147Z" fill="#2F2E41"/>
<path d="M107.968 220.596L123.692 226.54L127.531 215.932C128.041 214.523 128.034 212.981 127.511 211.577C126.988 210.173 125.983 208.998 124.674 208.26C123.349 207.513 121.8 207.262 120.306 207.553C118.811 207.843 117.471 208.655 116.526 209.842L107.968 220.596Z" fill="#1C20A6"/>
<path d="M160.124 361.985C159.496 361.984 158.886 361.776 158.39 361.392C157.895 361.009 157.541 360.472 157.386 359.867C149.545 330.024 141.583 315.066 133.045 297.77C132.832 297.339 132.486 296.986 132.057 296.764C131.629 296.542 131.14 296.462 130.662 296.535C130.185 296.608 129.743 296.831 129.402 297.172C129.06 297.512 128.837 297.951 128.764 298.427L118.182 359.264C118.076 359.943 117.726 360.56 117.197 361.001C116.667 361.442 115.995 361.677 115.305 361.661L99.5939 361.28C99.2127 361.273 98.837 361.188 98.4896 361.032C98.1423 360.875 97.8304 360.65 97.5729 360.371C97.3009 360.103 97.0928 359.777 96.9639 359.418C96.835 359.06 96.7886 358.677 96.8281 358.298C103.944 311.614 109.547 269.356 120.321 256.465C120.62 256.183 120.962 255.952 121.335 255.779L121.008 255.729C120.915 255.715 120.666 255.677 120.663 255.428L120.66 255.187L120.905 255.141C121.298 255.127 121.689 255.186 122.06 255.314L146.651 259.079C147.332 259.183 147.952 259.53 148.395 260.056C148.838 260.581 149.073 261.248 149.058 261.934C150.395 268.155 152.444 277.546 152.627 278.009C165.747 302.822 170.838 322.362 176.13 355.727C176.239 356.435 176.076 357.157 175.672 357.75C175.268 358.342 174.653 358.76 173.952 358.921L160.764 361.913C160.554 361.961 160.339 361.985 160.124 361.985Z" fill="#2F2E41"/>
<path d="M146.324 263.147C146.103 263.147 145.883 263.121 145.669 263.071L121.458 257.341C121.087 257.255 120.738 257.094 120.432 256.869C120.126 256.643 119.869 256.357 119.678 256.029C119.482 255.69 119.356 255.314 119.308 254.925C119.261 254.536 119.293 254.142 119.402 253.765C122.013 244.761 118.589 233.6 114.501 222.88C113.981 219.745 114.491 216.527 115.954 213.702C117.417 210.878 119.756 208.598 122.624 207.201L122.69 207.169L135.401 207.807C137.488 208.352 139.424 209.36 141.063 210.755C142.703 212.151 144.003 213.898 144.865 215.866C149.765 227.272 151.167 241.909 149.153 260.612C149.079 261.307 148.749 261.951 148.227 262.419C147.705 262.887 147.027 263.146 146.324 263.147Z" fill="#1C20A6"/>
<path d="M149.581 237.11C148.288 237.113 147.028 236.714 145.974 235.97L136.597 229.321L143.287 220.607L149.327 224.066L173.596 210.139C173.62 209.861 173.664 209.585 173.726 209.313C174.011 208.11 174.648 207.017 175.556 206.173C176.465 205.33 177.605 204.773 178.831 204.574C180.058 204.375 181.317 204.542 182.448 205.054C183.579 205.567 184.532 206.401 185.186 207.452C185.841 208.504 186.167 209.724 186.124 210.96C186.081 212.196 185.671 213.391 184.945 214.395C184.219 215.398 183.211 216.165 182.047 216.599C180.883 217.032 179.616 217.113 178.406 216.83C178.206 216.782 178.008 216.724 177.814 216.656L153.435 235.789C152.336 236.647 150.978 237.113 149.581 237.11Z" fill="#A0616A"/>
<path d="M133.622 232.034L147.532 222.624L140.995 213.414C140.127 212.191 138.852 211.312 137.396 210.934C135.94 210.555 134.396 210.701 133.038 211.345C131.663 211.997 130.569 213.116 129.951 214.5C129.333 215.885 129.234 217.443 129.67 218.894L133.622 232.034Z" fill="#1C20A6"/>
<path d="M126.932 202.446C134.681 202.446 140.963 196.197 140.963 188.488C140.963 180.779 134.681 174.529 126.932 174.529C119.183 174.529 112.901 180.779 112.901 188.488C112.901 196.197 119.183 202.446 126.932 202.446Z" fill="#A0616A"/>
<path d="M128.218 202.769C126.112 202.76 124.487 200.554 124.582 198.461C124.676 196.368 126.089 194.527 127.792 193.294C129.494 192.06 131.491 191.309 133.389 190.402C135.288 189.496 137.17 188.365 138.342 186.624C139.05 185.485 139.473 184.193 139.574 182.858C139.676 181.522 139.454 180.182 138.926 178.949C137.836 176.485 135.963 174.444 133.594 173.139C130.077 171.09 125.912 170.435 121.931 171.304C117.949 172.173 114.443 174.502 112.11 177.828L109.706 184.339C107.257 187.27 106.868 191.621 108.374 195.126C109.88 198.63 113.086 201.267 116.704 202.52C120.374 203.694 124.304 203.811 128.039 202.858" fill="#2F2E41"/>
<path d="M113.057 181.87C112.096 180.395 110.785 179.179 109.239 178.327C107.694 177.476 105.961 177.016 104.195 176.988C102.429 176.959 100.682 177.364 99.1104 178.166C97.5383 178.967 96.1886 180.141 95.1802 181.584C93.4924 184 92.8794 186.978 91.7188 189.683C89.6168 194.529 85.7939 198.434 80.9805 200.653C85.195 201.391 89.3938 199.258 92.7632 196.634C96.1327 194.009 99.0959 190.806 102.869 188.799C105.838 187.226 109.173 186.464 112.534 186.591" fill="#2F2E41"/>
<path d="M231.16 391H13.501C13.3495 391 13.2041 390.94 13.097 390.834C12.9899 390.727 12.9297 390.582 12.9297 390.432C12.9297 390.281 12.9899 390.136 13.097 390.03C13.2041 389.923 13.3495 389.863 13.501 389.863H231.16C231.311 389.863 231.457 389.923 231.564 390.03C231.671 390.136 231.731 390.281 231.731 390.432C231.731 390.582 231.671 390.727 231.564 390.834C231.457 390.94 231.311 391 231.16 391Z" fill="#3F3D56"/>
<path d="M504.294 208.003C522.91 208.003 538 192.991 538 174.472C538 155.954 522.91 140.942 504.294 140.942C485.679 140.942 470.589 155.954 470.589 174.472C470.589 192.991 485.679 208.003 504.294 208.003Z" fill="#E6E6E6"/>
<path d="M507.509 198.371C506.136 198.333 504.428 198.285 503.112 197.33C502.72 197.033 502.398 196.655 502.169 196.222C501.939 195.788 501.808 195.31 501.784 194.821C501.76 194.474 501.817 194.125 501.951 193.803C502.085 193.482 502.292 193.195 502.556 192.966C502.948 192.675 503.407 192.486 503.892 192.416C504.376 192.347 504.87 192.399 505.329 192.569L504.208 184.421L505.031 184.309L506.348 193.887L505.661 193.574C504.865 193.21 503.771 193.026 503.092 193.597C502.925 193.746 502.795 193.931 502.712 194.139C502.629 194.346 502.595 194.57 502.613 194.792C502.633 195.156 502.732 195.512 502.903 195.834C503.073 196.157 503.312 196.44 503.602 196.662C504.626 197.407 505.987 197.503 507.532 197.546L507.509 198.371Z" fill="#3F3D56"/>
<path d="M500.14 185.124H495.667V185.95H500.14V185.124Z" fill="#3F3D56"/>
<path d="M514.256 185.124H509.783V185.95H514.256V185.124Z" fill="#3F3D56"/>
<path d="M487.897 173.717C484.296 173.308 481.507 169.876 481.2 166.393C480.836 162.249 483.262 158.314 486.589 155.989C490.07 153.557 494.405 152.542 498.601 152.318C506.785 151.913 514.828 154.55 521.165 159.717C524.309 162.314 527.245 165.623 528.357 169.619C529.324 173.09 528.537 177.021 525.732 179.452C525.037 180.048 524.227 180.494 523.351 180.762C522.475 181.031 521.552 181.115 520.641 181.011C518.464 180.786 516.455 179.647 514.717 178.39C511.334 175.943 508.557 172.535 504.436 171.256C501.415 170.319 497.494 171.144 495.647 173.862C495.228 174.485 494.957 175.193 494.853 175.935C494.815 176.093 494.839 176.26 494.919 176.402C495 176.543 495.132 176.649 495.288 176.697C495.447 176.74 495.617 176.719 495.76 176.638C495.904 176.557 496.009 176.423 496.054 176.265C496.539 172.841 500.771 171.563 503.74 172.345C508.07 173.485 510.977 177.329 514.529 179.771C516.368 181.135 518.534 181.995 520.812 182.266C522.787 182.42 524.746 181.821 526.294 180.59C529.328 178.206 530.489 174.106 529.818 170.414C529.041 166.139 526.148 162.475 522.975 159.639C516.541 153.949 508.189 150.879 499.582 151.042C495.192 151.142 490.611 152.044 486.829 154.352C483.161 156.591 480.325 160.337 479.955 164.691C479.628 168.523 481.695 172.532 485.243 174.211C486.08 174.605 486.977 174.857 487.897 174.956C488.692 175.046 488.686 173.806 487.897 173.717Z" fill="#3F3D56"/>
</g>
<defs>
<clipPath id="clip0_49_117">
<rect width="538" height="391" fill="white"/>
</clipPath>
</defs>
</svg>
